<?xml version="1.0" encoding="UTF-8" standalone="no"?>
<!-- Created with Inkscape (http://www.inkscape.org/) -->

<svg
   width="512"
   height="512"
   viewBox="0 0 135.46666 135.46667"
   version="1.1"
   id="svg8"
   inkscape:version="1.2 (1:1.2+202206011327+fc4e4096c5)"
   sodipodi:docname="favicon.svg"
   inkscape:export-filename="/home/joaorodriguesjr/fasting/graphics/favicon.png"
   inkscape:export-xdpi="96"
   inkscape:export-ydpi="96"
   xmlns:inkscape="http://www.inkscape.org/namespaces/inkscape"
   xmlns:sodipodi="http://sodipodi.sourceforge.net/DTD/sodipodi-0.dtd"
   xmlns="http://www.w3.org/2000/svg"
   xmlns:svg="http://www.w3.org/2000/svg"
   xmlns:rdf="http://www.w3.org/1999/02/22-rdf-syntax-ns#"
   xmlns:cc="http://creativecommons.org/ns#"
   xmlns:dc="http://purl.org/dc/elements/1.1/">
  <defs
     id="defs2" />
  <sodipodi:namedview
     id="base"
     pagecolor="#ffffff"
     bordercolor="#666666"
     borderopacity="1.0"
     inkscape:pageopacity="0.0"
     inkscape:pageshadow="2"
     inkscape:zoom="1.4"
     inkscape:cx="251.78571"
     inkscape:cy="154.64286"
     inkscape:document-units="px"
     inkscape:current-layer="layer1"
     showgrid="false"
     units="px"
     inkscape:window-width="1920"
     inkscape:window-height="2089"
     inkscape:window-x="1920"
     inkscape:window-y="34"
     inkscape:window-maximized="0"
     inkscape:showpageshadow="0"
     inkscape:pagecheckerboard="1"
     inkscape:deskcolor="#d1d1d1">
    <inkscape:grid
       type="xygrid"
       id="grid815"
       empspacing="16" />
  </sodipodi:namedview>
  <metadata
     id="metadata5">
    <rdf:RDF>
      <cc:Work
         rdf:about="">
        <dc:format>image/svg+xml</dc:format>
        <dc:type
           rdf:resource="http://purl.org/dc/dcmitype/StillImage" />
        <dc:title />
      </cc:Work>
    </rdf:RDF>
  </metadata>
  <g
     inkscape:label="Layer 1"
     inkscape:groupmode="layer"
     id="layer1"
     transform="translate(0,-161.53331)">
    <circle
       style="display:inline;opacity:1;fill:#323232;fill-opacity:1;stroke:none;stroke-width:14.8167;stroke-linejoin:bevel;stroke-miterlimit:4;stroke-dasharray:none;stroke-opacity:1"
       id="path864"
       cx="67.73333"
       cy="229.26665"
       r="67.73333"
       inkscape:label="Background" />
    <path
       style="opacity:1;fill:#45d865;fill-opacity:1;stroke:none;stroke-width:30.81385422;stroke-linejoin:bevel;stroke-miterlimit:4;stroke-dasharray:none;stroke-opacity:1"
       d="m 158.68945,81.691406 c -1.5131,-0.06493 -3.24069,0.326671 -5.15625,1.488282 -7.66224,4.64644 -3.01562,12.308593 -3.01562,12.308593 l 23.23242,38.312499 -7.66211,4.64649 -23.23242,-38.3125 c 0,0 -4.64637,-7.662072 -12.30859,-3.015629 -7.66225,4.646439 -3.01758,12.308589 -3.01758,12.308589 l 23.23242,38.3125 -7.66211,4.64454 -23.23242,-38.31055 c 0,0 -4.64635,-7.66207 -12.3086,-3.01563 -7.662234,4.64645 -3.01562,12.3086 -3.01562,12.3086 l 27.87891,45.97461 c 13.9393,22.98674 36.57884,9.25647 46.17187,24.67968 0,0 4.69338,7.35335 9.33984,15.01563 4.64644,7.66224 -3.01562,12.30859 -3.01562,12.30859 l 46.46484,76.62305 c 0,0 0.69837,0.94505 1.97657,2.2207 2.69739,10.78336 14.82031,10.79297 14.82031,10.79297 h 184.27929 c 0,0 15.35743,0.001 15.35743,-15.35547 0,-23.03495 -23.0348,-30.71484 -53.74805,-30.71484 h -53.74805 v 7.47266 c 0,7.884 -7.67969,7.88476 -7.67969,7.88476 h -70.13867 c -0.27491,-0.55075 -0.4707,-0.88672 -0.4707,-0.88672 l -46.46484,-76.62304 c 0,0 -7.66216,4.64661 -12.3086,-3.01563 -4.64645,-7.66226 -8.99609,-15.22266 -8.99609,-15.22266 -9.24168,-15.63628 13.39831,-29.36482 -0.54102,-52.35156 L 165.8418,86.195312 c 0,0 -2.61302,-4.309117 -7.15235,-4.503906 z"
       id="path854"
       inkscape:connector-curvature="0"
       sodipodi:nodetypes="sscccccccccccccscccccsscsccccscccs"
       inkscape:label="Pointers"
       transform="matrix(0.26458333,0,0,0.26458333,0,161.53331)" />
    <path
       style="color:#000000;display:inline;fill:#45d865;stroke-width:0.941187;stroke-linejoin:bevel;-inkscape-stroke:none"
       d="m 67.732479,161.53332 c -37.361254,0 -67.7323404459,30.37293 -67.7323404459,67.7342 0,37.36127 30.3710864459,67.73236 67.7323404459,67.73236 37.361251,0 67.734181,-30.37109 67.734181,-67.73236 0,-37.36127 -30.37293,-67.7342 -67.734181,-67.7342 z m 0,7.96884 c 33.054651,0 59.765341,26.7107 59.765341,59.76536 0,33.05466 -26.71069,59.76537 -59.765341,59.76537 -33.054646,0 -59.7653436,-26.71071 -59.7653436,-59.76537 0,-33.05466 26.7106976,-59.76536 59.7653436,-59.76536 z"
       id="circle252"
       inkscape:label="Border" />
  </g>
</svg>
