<svg width="429" height="909" viewBox="0 0 429 909" fill="none" xmlns="http://www.w3.org/2000/svg">
<rect width="428.41" height="909" fill="#202020"/>
<path d="M128.527 192.273V198.777C128.527 202.273 128.215 205.223 127.59 207.625C126.965 210.027 126.066 211.961 124.894 213.426C123.723 214.891 122.307 215.955 120.646 216.619C119.006 217.264 117.15 217.586 115.08 217.586C113.439 217.586 111.926 217.381 110.539 216.971C109.152 216.561 107.902 215.906 106.789 215.008C105.695 214.09 104.758 212.898 103.977 211.434C103.195 209.969 102.6 208.191 102.189 206.102C101.779 204.012 101.574 201.57 101.574 198.777V192.273C101.574 188.777 101.887 185.848 102.512 183.484C103.156 181.121 104.064 179.227 105.236 177.801C106.408 176.355 107.814 175.32 109.455 174.695C111.115 174.07 112.971 173.758 115.021 173.758C116.682 173.758 118.205 173.963 119.592 174.373C120.998 174.764 122.248 175.398 123.342 176.277C124.435 177.137 125.363 178.289 126.125 179.734C126.906 181.16 127.502 182.908 127.912 184.979C128.322 187.049 128.527 189.48 128.527 192.273ZM123.078 199.656V191.365C123.078 189.451 122.961 187.771 122.727 186.326C122.512 184.861 122.189 183.611 121.76 182.576C121.33 181.541 120.783 180.701 120.119 180.057C119.475 179.412 118.723 178.943 117.863 178.65C117.023 178.338 116.076 178.182 115.021 178.182C113.732 178.182 112.59 178.426 111.594 178.914C110.598 179.383 109.758 180.135 109.074 181.17C108.41 182.205 107.902 183.562 107.551 185.242C107.199 186.922 107.023 188.963 107.023 191.365V199.656C107.023 201.57 107.131 203.26 107.346 204.725C107.58 206.189 107.922 207.459 108.371 208.533C108.82 209.588 109.367 210.457 110.012 211.141C110.656 211.824 111.398 212.332 112.238 212.664C113.098 212.977 114.045 213.133 115.08 213.133C116.408 213.133 117.57 212.879 118.566 212.371C119.562 211.863 120.393 211.072 121.057 209.998C121.74 208.904 122.248 207.508 122.58 205.809C122.912 204.09 123.078 202.039 123.078 199.656ZM163.449 212.547V217H135.529V213.104L149.504 197.547C151.223 195.633 152.551 194.012 153.488 192.684C154.445 191.336 155.109 190.135 155.48 189.08C155.871 188.006 156.066 186.912 156.066 185.799C156.066 184.393 155.773 183.123 155.187 181.99C154.621 180.838 153.781 179.92 152.668 179.236C151.555 178.553 150.207 178.211 148.625 178.211C146.73 178.211 145.148 178.582 143.879 179.324C142.629 180.047 141.691 181.062 141.066 182.371C140.441 183.68 140.129 185.184 140.129 186.883H134.709C134.709 184.48 135.236 182.283 136.291 180.291C137.346 178.299 138.908 176.717 140.978 175.545C143.049 174.354 145.598 173.758 148.625 173.758C151.32 173.758 153.625 174.236 155.539 175.193C157.453 176.131 158.918 177.459 159.934 179.178C160.969 180.877 161.486 182.869 161.486 185.154C161.486 186.404 161.271 187.674 160.842 188.963C160.432 190.232 159.855 191.502 159.113 192.771C158.391 194.041 157.541 195.291 156.564 196.521C155.607 197.752 154.582 198.963 153.488 200.154L142.062 212.547H163.449ZM169.602 214.129C169.602 213.211 169.885 212.439 170.451 211.814C171.037 211.17 171.877 210.848 172.971 210.848C174.064 210.848 174.894 211.17 175.461 211.814C176.047 212.439 176.34 213.211 176.34 214.129C176.34 215.027 176.047 215.789 175.461 216.414C174.894 217.039 174.064 217.352 172.971 217.352C171.877 217.352 171.037 217.039 170.451 216.414C169.885 215.789 169.602 215.027 169.602 214.129ZM169.631 188.26C169.631 187.342 169.914 186.57 170.48 185.945C171.066 185.301 171.906 184.979 173 184.979C174.094 184.979 174.924 185.301 175.49 185.945C176.076 186.57 176.369 187.342 176.369 188.26C176.369 189.158 176.076 189.92 175.49 190.545C174.924 191.17 174.094 191.482 173 191.482C171.906 191.482 171.066 191.17 170.48 190.545C169.914 189.92 169.631 189.158 169.631 188.26ZM190.637 196.697L186.301 195.584L188.439 174.344H210.324V179.354H193.039L191.75 190.955C192.531 190.506 193.518 190.086 194.709 189.695C195.92 189.305 197.307 189.109 198.869 189.109C200.842 189.109 202.609 189.451 204.172 190.135C205.734 190.799 207.062 191.756 208.156 193.006C209.269 194.256 210.119 195.76 210.705 197.518C211.291 199.275 211.584 201.238 211.584 203.406C211.584 205.457 211.301 207.342 210.734 209.061C210.187 210.779 209.357 212.283 208.244 213.572C207.131 214.842 205.725 215.828 204.025 216.531C202.346 217.234 200.363 217.586 198.078 217.586C196.359 217.586 194.728 217.352 193.185 216.883C191.662 216.395 190.295 215.662 189.084 214.686C187.893 213.689 186.916 212.459 186.154 210.994C185.412 209.51 184.943 207.771 184.748 205.779H189.904C190.139 207.381 190.607 208.729 191.31 209.822C192.014 210.916 192.932 211.746 194.064 212.312C195.217 212.859 196.555 213.133 198.078 213.133C199.367 213.133 200.51 212.908 201.506 212.459C202.502 212.01 203.342 211.365 204.025 210.525C204.709 209.686 205.227 208.67 205.578 207.479C205.949 206.287 206.135 204.949 206.135 203.465C206.135 202.117 205.949 200.867 205.578 199.715C205.207 198.562 204.65 197.557 203.908 196.697C203.185 195.838 202.297 195.174 201.242 194.705C200.187 194.217 198.977 193.973 197.609 193.973C195.793 193.973 194.416 194.217 193.478 194.705C192.56 195.193 191.613 195.857 190.637 196.697ZM244.309 192.273V198.777C244.309 202.273 243.996 205.223 243.371 207.625C242.746 210.027 241.848 211.961 240.676 213.426C239.504 214.891 238.088 215.955 236.428 216.619C234.787 217.264 232.932 217.586 230.861 217.586C229.221 217.586 227.707 217.381 226.32 216.971C224.934 216.561 223.684 215.906 222.57 215.008C221.477 214.09 220.539 212.898 219.758 211.434C218.977 209.969 218.381 208.191 217.971 206.102C217.56 204.012 217.355 201.57 217.355 198.777V192.273C217.355 188.777 217.668 185.848 218.293 183.484C218.937 181.121 219.846 179.227 221.018 177.801C222.189 176.355 223.596 175.32 225.236 174.695C226.896 174.07 228.752 173.758 230.803 173.758C232.463 173.758 233.986 173.963 235.373 174.373C236.779 174.764 238.029 175.398 239.123 176.277C240.217 177.137 241.144 178.289 241.906 179.734C242.687 181.16 243.283 182.908 243.693 184.979C244.103 187.049 244.309 189.48 244.309 192.273ZM238.859 199.656V191.365C238.859 189.451 238.742 187.771 238.508 186.326C238.293 184.861 237.971 183.611 237.541 182.576C237.111 181.541 236.564 180.701 235.9 180.057C235.256 179.412 234.504 178.943 233.644 178.65C232.805 178.338 231.857 178.182 230.803 178.182C229.514 178.182 228.371 178.426 227.375 178.914C226.379 179.383 225.539 180.135 224.855 181.17C224.191 182.205 223.684 183.562 223.332 185.242C222.98 186.922 222.805 188.963 222.805 191.365V199.656C222.805 201.57 222.912 203.26 223.127 204.725C223.361 206.189 223.703 207.459 224.152 208.533C224.602 209.588 225.148 210.457 225.793 211.141C226.437 211.824 227.18 212.332 228.019 212.664C228.879 212.977 229.826 213.133 230.861 213.133C232.189 213.133 233.352 212.879 234.348 212.371C235.344 211.863 236.174 211.072 236.838 209.998C237.521 208.904 238.029 207.508 238.361 205.809C238.693 204.09 238.859 202.039 238.859 199.656ZM251.633 214.129C251.633 213.211 251.916 212.439 252.482 211.814C253.068 211.17 253.908 210.848 255.002 210.848C256.096 210.848 256.926 211.17 257.492 211.814C258.078 212.439 258.371 213.211 258.371 214.129C258.371 215.027 258.078 215.789 257.492 216.414C256.926 217.039 256.096 217.352 255.002 217.352C253.908 217.352 253.068 217.039 252.482 216.414C251.916 215.789 251.633 215.027 251.633 214.129ZM251.662 188.26C251.662 187.342 251.945 186.57 252.512 185.945C253.098 185.301 253.937 184.979 255.031 184.979C256.125 184.979 256.955 185.301 257.521 185.945C258.107 186.57 258.4 187.342 258.4 188.26C258.4 189.158 258.107 189.92 257.521 190.545C256.955 191.17 256.125 191.482 255.031 191.482C253.937 191.482 253.098 191.17 252.512 190.545C251.945 189.92 251.662 189.158 251.662 188.26ZM273.723 193.006H277.59C279.484 193.006 281.047 192.693 282.277 192.068C283.527 191.424 284.455 190.555 285.06 189.461C285.685 188.348 285.998 187.098 285.998 185.711C285.998 184.07 285.725 182.693 285.178 181.58C284.631 180.467 283.81 179.627 282.717 179.061C281.623 178.494 280.236 178.211 278.557 178.211C277.033 178.211 275.685 178.514 274.514 179.119C273.361 179.705 272.453 180.545 271.789 181.639C271.144 182.732 270.822 184.021 270.822 185.506H265.402C265.402 183.338 265.949 181.365 267.043 179.588C268.137 177.811 269.67 176.395 271.643 175.34C273.635 174.285 275.939 173.758 278.557 173.758C281.135 173.758 283.391 174.217 285.324 175.135C287.258 176.033 288.762 177.381 289.836 179.178C290.91 180.955 291.447 183.172 291.447 185.828C291.447 186.902 291.193 188.055 290.685 189.285C290.197 190.496 289.426 191.629 288.371 192.684C287.336 193.738 285.988 194.607 284.328 195.291C282.668 195.955 280.676 196.287 278.352 196.287H273.723V193.006ZM273.723 197.459V194.207H278.352C281.066 194.207 283.312 194.529 285.09 195.174C286.867 195.818 288.264 196.678 289.279 197.752C290.314 198.826 291.037 200.008 291.447 201.297C291.877 202.566 292.092 203.836 292.092 205.105C292.092 207.098 291.75 208.865 291.066 210.408C290.402 211.951 289.455 213.26 288.225 214.334C287.014 215.408 285.588 216.219 283.947 216.766C282.307 217.312 280.519 217.586 278.586 217.586C276.73 217.586 274.982 217.322 273.342 216.795C271.721 216.268 270.285 215.506 269.035 214.51C267.785 213.494 266.809 212.254 266.105 210.789C265.402 209.305 265.051 207.615 265.051 205.721H270.471C270.471 207.205 270.793 208.504 271.437 209.617C272.102 210.73 273.039 211.6 274.25 212.225C275.48 212.83 276.926 213.133 278.586 213.133C280.246 213.133 281.672 212.85 282.863 212.283C284.074 211.697 285.002 210.818 285.646 209.646C286.31 208.475 286.643 207 286.643 205.223C286.643 203.445 286.271 201.99 285.529 200.857C284.787 199.705 283.732 198.855 282.365 198.309C281.018 197.742 279.426 197.459 277.59 197.459H273.723ZM328.391 202.645V207.098H297.57V203.904L316.672 174.344H321.096L316.35 182.898L303.723 202.645H328.391ZM322.443 174.344V217H317.023V174.344H322.443Z" fill="#C7C7C7"/>
<path d="M378.205 196C378.205 286.575 304.78 360 214.205 360C123.63 360 50.205 286.575 50.205 196C50.205 105.425 123.63 32 214.205 32C304.78 32 378.205 105.425 378.205 196ZM66.605 196C66.605 277.517 132.688 343.6 214.205 343.6C295.722 343.6 361.805 277.517 361.805 196C361.805 114.483 295.722 48.4 214.205 48.4C132.688 48.4 66.605 114.483 66.605 196Z" fill="#373737"/>
<path d="M214.205 40.2C214.205 35.6713 217.879 31.9786 222.402 32.2049C249.788 33.5752 276.441 41.7945 299.895 56.167C325.683 71.9701 346.599 94.5968 360.33 121.546C374.061 148.494 380.072 178.715 377.699 208.867C375.541 236.29 366.524 262.684 351.536 285.645C349.06 289.437 343.914 290.239 340.25 287.577C336.586 284.915 335.795 279.798 338.249 275.992C351.472 255.489 359.429 231.987 361.35 207.581C363.486 180.444 358.076 153.245 345.718 128.991C333.36 104.737 314.535 84.3731 291.326 70.1503C270.451 57.3583 246.761 49.9823 222.401 48.6277C217.879 48.3763 214.205 44.7287 214.205 40.2Z" fill="#45D865"/>
<path d="M191.471 127.602V139H189.221V130.195L186.518 131.055V129.281L191.228 127.602H191.471ZM200.978 127.508H201.307V129.305H201.174C200.58 129.305 200.051 129.393 199.588 129.57C199.124 129.747 198.731 130 198.408 130.328C198.09 130.651 197.846 131.042 197.674 131.5C197.507 131.958 197.424 132.471 197.424 133.039V134.93C197.424 135.336 197.463 135.695 197.541 136.008C197.624 136.315 197.741 136.573 197.893 136.781C198.049 136.984 198.231 137.138 198.439 137.242C198.648 137.341 198.882 137.391 199.143 137.391C199.387 137.391 199.609 137.339 199.807 137.234C200.01 137.13 200.182 136.984 200.322 136.797C200.468 136.604 200.577 136.38 200.65 136.125C200.728 135.865 200.768 135.581 200.768 135.273C200.768 134.966 200.728 134.682 200.65 134.422C200.577 134.161 200.468 133.938 200.322 133.75C200.176 133.557 199.999 133.409 199.791 133.305C199.583 133.201 199.348 133.148 199.088 133.148C198.734 133.148 198.421 133.232 198.15 133.398C197.885 133.56 197.676 133.768 197.525 134.023C197.374 134.279 197.294 134.547 197.283 134.828L196.603 134.391C196.619 133.99 196.702 133.609 196.853 133.25C197.01 132.891 197.223 132.573 197.494 132.297C197.77 132.016 198.101 131.797 198.486 131.641C198.872 131.479 199.307 131.398 199.791 131.398C200.322 131.398 200.788 131.5 201.189 131.703C201.596 131.906 201.934 132.185 202.205 132.539C202.476 132.893 202.679 133.302 202.814 133.766C202.95 134.229 203.018 134.724 203.018 135.25C203.018 135.802 202.926 136.315 202.744 136.789C202.567 137.263 202.309 137.677 201.971 138.031C201.637 138.385 201.236 138.661 200.768 138.859C200.299 139.057 199.773 139.156 199.189 139.156C198.585 139.156 198.036 139.047 197.541 138.828C197.051 138.604 196.629 138.292 196.275 137.891C195.921 137.49 195.648 137.013 195.455 136.461C195.268 135.909 195.174 135.305 195.174 134.648V133.773C195.174 132.857 195.307 132.018 195.572 131.258C195.843 130.492 196.231 129.831 196.736 129.273C197.241 128.711 197.851 128.276 198.564 127.969C199.278 127.661 200.083 127.508 200.978 127.508ZM209.314 127.625L205.143 139.977H203.471L207.643 127.625H209.314ZM217.963 135.883C217.963 136.596 217.796 137.198 217.463 137.688C217.129 138.172 216.671 138.539 216.088 138.789C215.51 139.034 214.853 139.156 214.119 139.156C213.385 139.156 212.726 139.034 212.143 138.789C211.559 138.539 211.098 138.172 210.76 137.688C210.421 137.198 210.252 136.596 210.252 135.883C210.252 135.404 210.348 134.971 210.541 134.586C210.734 134.195 211.002 133.862 211.346 133.586C211.695 133.305 212.103 133.091 212.572 132.945C213.041 132.794 213.551 132.719 214.103 132.719C214.843 132.719 215.504 132.849 216.088 133.109C216.671 133.37 217.129 133.737 217.463 134.211C217.796 134.685 217.963 135.242 217.963 135.883ZM215.697 135.734C215.697 135.385 215.629 135.086 215.494 134.836C215.364 134.581 215.179 134.385 214.939 134.25C214.7 134.115 214.421 134.047 214.103 134.047C213.786 134.047 213.507 134.115 213.268 134.25C213.028 134.385 212.84 134.581 212.705 134.836C212.575 135.086 212.51 135.385 212.51 135.734C212.51 136.078 212.575 136.375 212.705 136.625C212.84 136.875 213.028 137.068 213.268 137.203C213.512 137.333 213.796 137.398 214.119 137.398C214.442 137.398 214.721 137.333 214.955 137.203C215.195 137.068 215.377 136.875 215.502 136.625C215.632 136.375 215.697 136.078 215.697 135.734ZM217.721 130.641C217.721 131.219 217.567 131.732 217.26 132.18C216.952 132.622 216.525 132.969 215.978 133.219C215.437 133.469 214.817 133.594 214.119 133.594C213.416 133.594 212.791 133.469 212.244 133.219C211.697 132.969 211.27 132.622 210.963 132.18C210.656 131.732 210.502 131.219 210.502 130.641C210.502 129.953 210.656 129.375 210.963 128.906C211.275 128.432 211.702 128.073 212.244 127.828C212.791 127.583 213.411 127.461 214.103 127.461C214.807 127.461 215.429 127.583 215.971 127.828C216.518 128.073 216.945 128.432 217.252 128.906C217.564 129.375 217.721 129.953 217.721 130.641ZM215.471 130.742C215.471 130.435 215.416 130.169 215.307 129.945C215.197 129.716 215.041 129.539 214.838 129.414C214.64 129.289 214.395 129.227 214.103 129.227C213.822 129.227 213.58 129.286 213.377 129.406C213.179 129.526 213.025 129.701 212.916 129.93C212.812 130.154 212.76 130.424 212.76 130.742C212.76 131.049 212.812 131.32 212.916 131.555C213.025 131.784 213.182 131.964 213.385 132.094C213.588 132.224 213.833 132.289 214.119 132.289C214.406 132.289 214.648 132.224 214.846 132.094C215.049 131.964 215.202 131.784 215.307 131.555C215.416 131.32 215.471 131.049 215.471 130.742Z" fill="#909090"/>
<path d="M234.205 135.333C233.586 135.333 232.993 135.087 232.555 134.65C232.118 134.212 231.872 133.619 231.872 133C231.872 132.381 232.118 131.788 232.555 131.35C232.993 130.912 233.586 130.667 234.205 130.667C234.824 130.667 235.417 130.912 235.855 131.35C236.293 131.788 236.538 132.381 236.538 133C236.538 133.619 236.293 134.212 235.855 134.65C235.417 135.087 234.824 135.333 234.205 135.333ZM239.158 133.647C239.185 133.433 239.205 133.22 239.205 133C239.205 132.78 239.185 132.56 239.158 132.333L240.565 131.247C240.692 131.147 240.725 130.967 240.645 130.82L239.312 128.513C239.232 128.367 239.052 128.307 238.905 128.367L237.245 129.033C236.898 128.773 236.538 128.547 236.118 128.38L235.872 126.613C235.845 126.453 235.705 126.333 235.538 126.333H232.872C232.705 126.333 232.565 126.453 232.538 126.613L232.292 128.38C231.872 128.547 231.512 128.773 231.165 129.033L229.505 128.367C229.358 128.307 229.178 128.367 229.098 128.513L227.765 130.82C227.678 130.967 227.718 131.147 227.845 131.247L229.252 132.333C229.225 132.56 229.205 132.78 229.205 133C229.205 133.22 229.225 133.433 229.252 133.647L227.845 134.753C227.718 134.853 227.678 135.033 227.765 135.18L229.098 137.487C229.178 137.633 229.358 137.687 229.505 137.633L231.165 136.96C231.512 137.227 231.872 137.453 232.292 137.62L232.538 139.387C232.565 139.547 232.705 139.667 232.872 139.667H235.538C235.705 139.667 235.845 139.547 235.872 139.387L236.118 137.62C236.538 137.447 236.898 137.227 237.245 136.96L238.905 137.633C239.052 137.687 239.232 137.633 239.312 137.487L240.645 135.18C240.725 135.033 240.692 134.853 240.565 134.753L239.158 133.647Z" fill="#909090"/>
<path d="M122.275 438.396C122.275 438.218 122.248 438.058 122.193 437.917C122.143 437.771 122.047 437.639 121.906 437.521C121.765 437.397 121.567 437.277 121.311 437.158C121.056 437.04 120.726 436.917 120.32 436.789C119.869 436.643 119.441 436.479 119.035 436.297C118.634 436.115 118.279 435.903 117.969 435.661C117.663 435.415 117.422 435.13 117.244 434.807C117.071 434.483 116.984 434.107 116.984 433.679C116.984 433.264 117.075 432.888 117.258 432.551C117.44 432.209 117.695 431.917 118.023 431.676C118.352 431.43 118.739 431.241 119.185 431.108C119.637 430.976 120.131 430.91 120.669 430.91C121.403 430.91 122.043 431.042 122.59 431.307C123.137 431.571 123.56 431.933 123.861 432.394C124.167 432.854 124.319 433.38 124.319 433.973H122.282C122.282 433.681 122.221 433.426 122.098 433.207C121.979 432.984 121.797 432.808 121.551 432.681C121.309 432.553 121.004 432.489 120.635 432.489C120.279 432.489 119.983 432.544 119.746 432.653C119.509 432.758 119.331 432.902 119.213 433.084C119.094 433.262 119.035 433.462 119.035 433.686C119.035 433.854 119.076 434.007 119.158 434.144C119.245 434.28 119.372 434.408 119.541 434.526C119.71 434.645 119.917 434.757 120.163 434.861C120.409 434.966 120.694 435.069 121.018 435.169C121.56 435.333 122.036 435.518 122.446 435.723C122.861 435.928 123.207 436.158 123.485 436.413C123.763 436.668 123.973 436.958 124.114 437.281C124.255 437.605 124.326 437.972 124.326 438.382C124.326 438.815 124.242 439.202 124.073 439.544C123.905 439.886 123.661 440.175 123.342 440.412C123.023 440.649 122.642 440.829 122.2 440.952C121.758 441.075 121.264 441.137 120.717 441.137C120.225 441.137 119.739 441.073 119.261 440.945C118.782 440.813 118.347 440.615 117.955 440.351C117.568 440.086 117.258 439.749 117.025 439.339C116.793 438.929 116.677 438.443 116.677 437.883H118.734C118.734 438.193 118.782 438.455 118.878 438.669C118.974 438.883 119.108 439.056 119.281 439.188C119.459 439.321 119.669 439.416 119.91 439.476C120.156 439.535 120.425 439.564 120.717 439.564C121.072 439.564 121.364 439.514 121.592 439.414C121.824 439.314 121.995 439.175 122.104 438.997C122.218 438.819 122.275 438.619 122.275 438.396ZM130.171 431.047V441H128.127V431.047H130.171ZM133.233 431.047V432.653H125.112V431.047H133.233ZM137.711 432.749L135.004 441H132.823L136.521 431.047H137.909L137.711 432.749ZM139.96 441L137.246 432.749L137.027 431.047H138.429L142.147 441H139.96ZM139.837 437.295V438.901H134.58V437.295H139.837ZM143.07 431.047H146.782C147.543 431.047 148.197 431.161 148.744 431.389C149.296 431.617 149.719 431.954 150.016 432.4C150.312 432.847 150.46 433.396 150.46 434.048C150.46 434.581 150.369 435.039 150.186 435.422C150.009 435.8 149.756 436.117 149.428 436.372C149.104 436.623 148.724 436.823 148.286 436.974L147.637 437.315H144.41L144.396 435.716H146.796C147.156 435.716 147.454 435.652 147.691 435.524C147.928 435.397 148.106 435.219 148.225 434.991C148.348 434.763 148.409 434.499 148.409 434.198C148.409 433.879 148.35 433.604 148.231 433.371C148.113 433.139 147.933 432.961 147.691 432.838C147.45 432.715 147.147 432.653 146.782 432.653H145.121V441H143.07V431.047ZM148.635 441L146.365 436.563L148.532 436.55L150.829 440.904V441H148.635ZM156.079 431.047V441H154.035V431.047H156.079ZM159.142 431.047V432.653H151.02V431.047H159.142ZM166.989 439.4V441H161.691V439.4H166.989ZM162.361 431.047V441H160.31V431.047H162.361ZM166.299 435.101V436.659H161.691V435.101H166.299ZM166.982 431.047V432.653H161.691V431.047H166.982ZM171.241 441H169.074L169.088 439.4H171.241C171.779 439.4 172.232 439.28 172.602 439.038C172.971 438.792 173.249 438.434 173.435 437.965C173.627 437.495 173.723 436.928 173.723 436.263V435.777C173.723 435.267 173.668 434.818 173.559 434.431C173.454 434.043 173.296 433.717 173.087 433.453C172.877 433.189 172.62 432.991 172.314 432.858C172.009 432.722 171.658 432.653 171.262 432.653H169.033V431.047H171.262C171.927 431.047 172.535 431.161 173.087 431.389C173.643 431.612 174.124 431.933 174.529 432.353C174.935 432.772 175.247 433.273 175.466 433.856C175.689 434.435 175.801 435.08 175.801 435.791V436.263C175.801 436.969 175.689 437.614 175.466 438.197C175.247 438.781 174.935 439.282 174.529 439.701C174.128 440.116 173.647 440.437 173.087 440.665C172.531 440.888 171.916 441 171.241 441ZM170.236 431.047V441H168.185V431.047H170.236Z" fill="#808080"/>
<path d="M200.038 431.047V441H198.739V431.047H200.038ZM203.237 431.047V432.127H195.547V431.047H203.237ZM203.504 437.384V437.227C203.504 436.693 203.581 436.199 203.736 435.743C203.891 435.283 204.115 434.884 204.406 434.547C204.698 434.205 205.051 433.941 205.466 433.754C205.88 433.562 206.345 433.467 206.86 433.467C207.38 433.467 207.847 433.562 208.262 433.754C208.681 433.941 209.036 434.205 209.328 434.547C209.624 434.884 209.85 435.283 210.005 435.743C210.16 436.199 210.237 436.693 210.237 437.227V437.384C210.237 437.917 210.16 438.411 210.005 438.867C209.85 439.323 209.624 439.722 209.328 440.063C209.036 440.401 208.683 440.665 208.268 440.856C207.858 441.043 207.393 441.137 206.874 441.137C206.354 441.137 205.887 441.043 205.473 440.856C205.058 440.665 204.702 440.401 204.406 440.063C204.115 439.722 203.891 439.323 203.736 438.867C203.581 438.411 203.504 437.917 203.504 437.384ZM204.768 437.227V437.384C204.768 437.753 204.812 438.102 204.898 438.43C204.985 438.753 205.115 439.04 205.288 439.291C205.466 439.542 205.687 439.74 205.951 439.886C206.215 440.027 206.523 440.098 206.874 440.098C207.22 440.098 207.523 440.027 207.783 439.886C208.047 439.74 208.266 439.542 208.439 439.291C208.613 439.04 208.742 438.753 208.829 438.43C208.92 438.102 208.966 437.753 208.966 437.384V437.227C208.966 436.862 208.92 436.518 208.829 436.194C208.742 435.866 208.61 435.577 208.433 435.326C208.259 435.071 208.041 434.87 207.776 434.725C207.517 434.579 207.211 434.506 206.86 434.506C206.514 434.506 206.209 434.579 205.944 434.725C205.685 434.87 205.466 435.071 205.288 435.326C205.115 435.577 204.985 435.866 204.898 436.194C204.812 436.518 204.768 436.862 204.768 437.227ZM216.485 439.564V430.5H217.757V441H216.595L216.485 439.564ZM211.509 437.384V437.24C211.509 436.675 211.577 436.162 211.714 435.702C211.855 435.237 212.053 434.839 212.309 434.506C212.568 434.173 212.876 433.918 213.231 433.74C213.591 433.558 213.992 433.467 214.435 433.467C214.899 433.467 215.305 433.549 215.651 433.713C216.002 433.872 216.298 434.107 216.54 434.417C216.786 434.722 216.98 435.091 217.121 435.524C217.262 435.957 217.36 436.447 217.415 436.994V437.623C217.365 438.165 217.267 438.653 217.121 439.086C216.98 439.519 216.786 439.888 216.54 440.193C216.298 440.499 216.002 440.733 215.651 440.897C215.3 441.057 214.89 441.137 214.421 441.137C213.988 441.137 213.591 441.043 213.231 440.856C212.876 440.67 212.568 440.408 212.309 440.07C212.053 439.733 211.855 439.337 211.714 438.881C211.577 438.421 211.509 437.922 211.509 437.384ZM212.78 437.24V437.384C212.78 437.753 212.817 438.099 212.89 438.423C212.967 438.746 213.086 439.031 213.245 439.277C213.405 439.523 213.607 439.717 213.853 439.858C214.1 439.995 214.393 440.063 214.735 440.063C215.155 440.063 215.499 439.975 215.768 439.797C216.041 439.619 216.26 439.384 216.424 439.093C216.588 438.801 216.715 438.484 216.807 438.143V436.495C216.752 436.244 216.672 436.003 216.567 435.771C216.467 435.534 216.335 435.324 216.171 435.142C216.011 434.955 215.813 434.807 215.576 434.697C215.344 434.588 215.068 434.533 214.749 434.533C214.403 434.533 214.104 434.606 213.853 434.752C213.607 434.893 213.405 435.089 213.245 435.34C213.086 435.586 212.967 435.873 212.89 436.201C212.817 436.525 212.78 436.871 212.78 437.24ZM224.087 439.735V435.928C224.087 435.636 224.028 435.383 223.909 435.169C223.795 434.95 223.622 434.782 223.39 434.663C223.157 434.545 222.87 434.485 222.528 434.485C222.209 434.485 221.929 434.54 221.687 434.649C221.45 434.759 221.264 434.902 221.127 435.08C220.995 435.258 220.929 435.449 220.929 435.654H219.664C219.664 435.39 219.732 435.128 219.869 434.868C220.006 434.608 220.202 434.374 220.457 434.164C220.717 433.95 221.027 433.781 221.387 433.658C221.751 433.531 222.157 433.467 222.603 433.467C223.141 433.467 223.615 433.558 224.025 433.74C224.44 433.923 224.764 434.198 224.996 434.567C225.233 434.932 225.352 435.39 225.352 435.941V439.387C225.352 439.633 225.372 439.895 225.413 440.173C225.459 440.451 225.525 440.69 225.611 440.891V441H224.292C224.228 440.854 224.178 440.66 224.142 440.419C224.105 440.173 224.087 439.945 224.087 439.735ZM224.306 436.516L224.319 437.404H223.041C222.681 437.404 222.36 437.434 222.077 437.493C221.795 437.548 221.558 437.632 221.366 437.746C221.175 437.86 221.029 438.004 220.929 438.177C220.828 438.345 220.778 438.544 220.778 438.771C220.778 439.004 220.831 439.216 220.935 439.407C221.04 439.599 221.198 439.751 221.407 439.865C221.621 439.975 221.883 440.029 222.193 440.029C222.581 440.029 222.922 439.947 223.219 439.783C223.515 439.619 223.75 439.419 223.923 439.182C224.101 438.945 224.196 438.715 224.21 438.491L224.75 439.1C224.718 439.291 224.631 439.503 224.49 439.735C224.349 439.968 224.16 440.191 223.923 440.405C223.69 440.615 223.412 440.79 223.089 440.932C222.77 441.068 222.41 441.137 222.009 441.137C221.507 441.137 221.068 441.039 220.689 440.843C220.316 440.647 220.024 440.385 219.814 440.057C219.609 439.724 219.507 439.353 219.507 438.942C219.507 438.546 219.584 438.197 219.739 437.896C219.894 437.591 220.117 437.338 220.409 437.138C220.701 436.933 221.052 436.778 221.462 436.673C221.872 436.568 222.33 436.516 222.836 436.516H224.306ZM229.31 440.234L231.367 433.604H232.721L229.754 442.142C229.685 442.324 229.594 442.52 229.48 442.729C229.371 442.944 229.23 443.146 229.057 443.338C228.883 443.529 228.674 443.684 228.428 443.803C228.186 443.926 227.897 443.987 227.56 443.987C227.459 443.987 227.332 443.974 227.177 443.946C227.022 443.919 226.912 443.896 226.849 443.878L226.842 442.853C226.878 442.857 226.935 442.862 227.013 442.866C227.095 442.875 227.152 442.88 227.184 442.88C227.471 442.88 227.714 442.841 227.915 442.764C228.115 442.691 228.284 442.565 228.421 442.388C228.562 442.215 228.683 441.975 228.783 441.67L229.31 440.234ZM227.799 433.604L229.72 439.346L230.048 440.679L229.139 441.144L226.418 433.604H227.799ZM234.272 439.496V440.515C234.272 440.929 234.168 441.367 233.958 441.827C233.748 442.292 233.454 442.679 233.076 442.989L232.358 442.49C232.504 442.29 232.627 442.085 232.727 441.875C232.828 441.67 232.903 441.456 232.953 441.232C233.008 441.014 233.035 440.781 233.035 440.535V439.496H234.272ZM243.378 430.992V441H242.113V432.571L239.563 433.501V432.359L243.18 430.992H243.378ZM253.618 439.961V441H247.103V440.091L250.364 436.461C250.765 436.014 251.075 435.636 251.294 435.326C251.517 435.012 251.672 434.731 251.759 434.485C251.85 434.235 251.895 433.979 251.895 433.72C251.895 433.392 251.827 433.095 251.69 432.831C251.558 432.562 251.362 432.348 251.102 432.188C250.843 432.029 250.528 431.949 250.159 431.949C249.717 431.949 249.348 432.036 249.052 432.209C248.76 432.378 248.541 432.615 248.395 432.92C248.25 433.225 248.177 433.576 248.177 433.973H246.912C246.912 433.412 247.035 432.899 247.281 432.435C247.527 431.97 247.892 431.601 248.375 431.327C248.858 431.049 249.453 430.91 250.159 430.91C250.788 430.91 251.326 431.022 251.772 431.245C252.219 431.464 252.561 431.774 252.798 432.175C253.039 432.571 253.16 433.036 253.16 433.569C253.16 433.861 253.11 434.157 253.01 434.458C252.914 434.754 252.78 435.05 252.606 435.347C252.438 435.643 252.24 435.935 252.012 436.222C251.788 436.509 251.549 436.791 251.294 437.069L248.628 439.961H253.618ZM255.054 440.33C255.054 440.116 255.12 439.936 255.252 439.79C255.389 439.64 255.585 439.564 255.84 439.564C256.095 439.564 256.289 439.64 256.421 439.79C256.558 439.936 256.626 440.116 256.626 440.33C256.626 440.54 256.558 440.717 256.421 440.863C256.289 441.009 256.095 441.082 255.84 441.082C255.585 441.082 255.389 441.009 255.252 440.863C255.12 440.717 255.054 440.54 255.054 440.33ZM255.06 434.294C255.06 434.08 255.127 433.9 255.259 433.754C255.395 433.604 255.591 433.528 255.847 433.528C256.102 433.528 256.296 433.604 256.428 433.754C256.564 433.9 256.633 434.08 256.633 434.294C256.633 434.504 256.564 434.681 256.428 434.827C256.296 434.973 256.102 435.046 255.847 435.046C255.591 435.046 255.395 434.973 255.259 434.827C255.127 434.681 255.06 434.504 255.06 434.294ZM259.962 436.263L258.95 436.003L259.449 431.047H264.556V432.216H260.522L260.222 434.923C260.404 434.818 260.634 434.72 260.912 434.629C261.195 434.538 261.518 434.492 261.883 434.492C262.343 434.492 262.755 434.572 263.12 434.731C263.485 434.886 263.795 435.11 264.05 435.401C264.31 435.693 264.508 436.044 264.644 436.454C264.781 436.864 264.85 437.322 264.85 437.828C264.85 438.307 264.783 438.746 264.651 439.147C264.524 439.549 264.33 439.899 264.07 440.2C263.81 440.496 263.482 440.727 263.086 440.891C262.694 441.055 262.231 441.137 261.698 441.137C261.297 441.137 260.917 441.082 260.557 440.973C260.201 440.859 259.882 440.688 259.6 440.46C259.322 440.228 259.094 439.94 258.916 439.599C258.743 439.252 258.633 438.847 258.588 438.382H259.791C259.846 438.756 259.955 439.07 260.119 439.325C260.283 439.58 260.497 439.774 260.762 439.906C261.031 440.034 261.343 440.098 261.698 440.098C261.999 440.098 262.266 440.045 262.498 439.94C262.73 439.836 262.926 439.685 263.086 439.489C263.245 439.293 263.366 439.056 263.448 438.778C263.535 438.5 263.578 438.188 263.578 437.842C263.578 437.527 263.535 437.236 263.448 436.967C263.362 436.698 263.232 436.463 263.059 436.263C262.89 436.062 262.683 435.907 262.436 435.798C262.19 435.684 261.908 435.627 261.589 435.627C261.165 435.627 260.844 435.684 260.625 435.798C260.411 435.912 260.19 436.067 259.962 436.263ZM272.513 438.307C272.513 438.913 272.371 439.428 272.089 439.852C271.811 440.271 271.433 440.59 270.954 440.809C270.48 441.027 269.945 441.137 269.348 441.137C268.751 441.137 268.213 441.027 267.734 440.809C267.256 440.59 266.878 440.271 266.6 439.852C266.322 439.428 266.183 438.913 266.183 438.307C266.183 437.91 266.258 437.548 266.408 437.22C266.563 436.887 266.78 436.598 267.058 436.352C267.34 436.105 267.673 435.916 268.056 435.784C268.443 435.647 268.869 435.579 269.334 435.579C269.945 435.579 270.489 435.698 270.968 435.935C271.446 436.167 271.822 436.488 272.096 436.898C272.374 437.309 272.513 437.778 272.513 438.307ZM271.241 438.279C271.241 437.91 271.161 437.584 271.002 437.302C270.842 437.015 270.619 436.791 270.332 436.632C270.045 436.472 269.712 436.393 269.334 436.393C268.947 436.393 268.612 436.472 268.329 436.632C268.051 436.791 267.835 437.015 267.68 437.302C267.525 437.584 267.447 437.91 267.447 438.279C267.447 438.662 267.522 438.99 267.673 439.264C267.828 439.533 268.046 439.74 268.329 439.886C268.616 440.027 268.956 440.098 269.348 440.098C269.74 440.098 270.077 440.027 270.359 439.886C270.642 439.74 270.858 439.533 271.009 439.264C271.164 438.99 271.241 438.662 271.241 438.279ZM272.28 433.638C272.28 434.121 272.153 434.556 271.897 434.943C271.642 435.331 271.294 435.636 270.852 435.859C270.409 436.083 269.908 436.194 269.348 436.194C268.778 436.194 268.27 436.083 267.823 435.859C267.381 435.636 267.035 435.331 266.784 434.943C266.533 434.556 266.408 434.121 266.408 433.638C266.408 433.059 266.533 432.567 266.784 432.161C267.039 431.756 267.388 431.446 267.83 431.231C268.272 431.017 268.776 430.91 269.341 430.91C269.91 430.91 270.416 431.017 270.858 431.231C271.3 431.446 271.647 431.756 271.897 432.161C272.153 432.567 272.28 433.059 272.28 433.638ZM271.016 433.658C271.016 433.326 270.945 433.032 270.804 432.776C270.662 432.521 270.466 432.321 270.216 432.175C269.965 432.024 269.673 431.949 269.341 431.949C269.008 431.949 268.716 432.02 268.466 432.161C268.22 432.298 268.026 432.494 267.885 432.749C267.748 433.004 267.68 433.307 267.68 433.658C267.68 434 267.748 434.299 267.885 434.554C268.026 434.809 268.222 435.007 268.473 435.148C268.723 435.29 269.015 435.36 269.348 435.36C269.68 435.36 269.97 435.29 270.216 435.148C270.466 435.007 270.662 434.809 270.804 434.554C270.945 434.299 271.016 434 271.016 433.658ZM278.986 435.025V443.844H277.715V433.604H278.877L278.986 435.025ZM283.97 437.24V437.384C283.97 437.922 283.906 438.421 283.778 438.881C283.651 439.337 283.464 439.733 283.218 440.07C282.976 440.408 282.678 440.67 282.322 440.856C281.967 441.043 281.559 441.137 281.099 441.137C280.629 441.137 280.214 441.059 279.854 440.904C279.494 440.749 279.189 440.524 278.938 440.228C278.688 439.931 278.487 439.576 278.337 439.161C278.191 438.746 278.091 438.279 278.036 437.76V436.994C278.091 436.447 278.193 435.957 278.344 435.524C278.494 435.091 278.692 434.722 278.938 434.417C279.189 434.107 279.492 433.872 279.848 433.713C280.203 433.549 280.613 433.467 281.078 433.467C281.543 433.467 281.955 433.558 282.315 433.74C282.675 433.918 282.978 434.173 283.225 434.506C283.471 434.839 283.655 435.237 283.778 435.702C283.906 436.162 283.97 436.675 283.97 437.24ZM282.698 437.384V437.24C282.698 436.871 282.659 436.525 282.582 436.201C282.504 435.873 282.384 435.586 282.22 435.34C282.06 435.089 281.855 434.893 281.604 434.752C281.354 434.606 281.055 434.533 280.709 434.533C280.39 434.533 280.112 434.588 279.875 434.697C279.643 434.807 279.444 434.955 279.28 435.142C279.116 435.324 278.982 435.534 278.877 435.771C278.777 436.003 278.701 436.244 278.651 436.495V438.266C278.742 438.585 278.87 438.885 279.034 439.168C279.198 439.446 279.417 439.672 279.69 439.845C279.964 440.013 280.308 440.098 280.723 440.098C281.064 440.098 281.358 440.027 281.604 439.886C281.855 439.74 282.06 439.542 282.22 439.291C282.384 439.04 282.504 438.753 282.582 438.43C282.659 438.102 282.698 437.753 282.698 437.384ZM286.841 435.073V441H285.569V433.604H286.772L286.841 435.073ZM286.581 437.021L285.993 437.001C285.998 436.495 286.064 436.028 286.191 435.6C286.319 435.167 286.508 434.791 286.759 434.472C287.009 434.153 287.322 433.907 287.695 433.733C288.069 433.556 288.502 433.467 288.994 433.467C289.34 433.467 289.659 433.517 289.951 433.617C290.243 433.713 290.496 433.866 290.71 434.075C290.924 434.285 291.09 434.554 291.209 434.882C291.327 435.21 291.387 435.606 291.387 436.071V441H290.122V436.133C290.122 435.745 290.056 435.436 289.924 435.203C289.796 434.971 289.614 434.802 289.377 434.697C289.14 434.588 288.862 434.533 288.543 434.533C288.169 434.533 287.857 434.599 287.606 434.731C287.356 434.864 287.155 435.046 287.005 435.278C286.854 435.511 286.745 435.777 286.677 436.078C286.613 436.374 286.581 436.689 286.581 437.021ZM291.373 436.324L290.525 436.584C290.53 436.178 290.596 435.789 290.724 435.415C290.856 435.041 291.045 434.709 291.291 434.417C291.542 434.125 291.849 433.895 292.214 433.727C292.578 433.553 292.995 433.467 293.465 433.467C293.861 433.467 294.212 433.519 294.518 433.624C294.827 433.729 295.087 433.891 295.297 434.109C295.511 434.324 295.673 434.599 295.782 434.937C295.892 435.274 295.946 435.675 295.946 436.14V441H294.675V436.126C294.675 435.711 294.609 435.39 294.477 435.162C294.349 434.93 294.167 434.768 293.93 434.677C293.697 434.581 293.419 434.533 293.096 434.533C292.818 434.533 292.572 434.581 292.357 434.677C292.143 434.772 291.963 434.905 291.817 435.073C291.671 435.237 291.56 435.426 291.482 435.641C291.409 435.855 291.373 436.083 291.373 436.324Z" fill="#BFBFBF"/>
<path d="M200.038 463.047V473H198.739V463.047H200.038ZM203.237 463.047V464.127H195.547V463.047H203.237ZM203.504 469.384V469.227C203.504 468.693 203.581 468.199 203.736 467.743C203.891 467.283 204.115 466.884 204.406 466.547C204.698 466.205 205.051 465.941 205.466 465.754C205.88 465.562 206.345 465.467 206.86 465.467C207.38 465.467 207.847 465.562 208.262 465.754C208.681 465.941 209.036 466.205 209.328 466.547C209.624 466.884 209.85 467.283 210.005 467.743C210.16 468.199 210.237 468.693 210.237 469.227V469.384C210.237 469.917 210.16 470.411 210.005 470.867C209.85 471.323 209.624 471.722 209.328 472.063C209.036 472.401 208.683 472.665 208.268 472.856C207.858 473.043 207.393 473.137 206.874 473.137C206.354 473.137 205.887 473.043 205.473 472.856C205.058 472.665 204.702 472.401 204.406 472.063C204.115 471.722 203.891 471.323 203.736 470.867C203.581 470.411 203.504 469.917 203.504 469.384ZM204.768 469.227V469.384C204.768 469.753 204.812 470.102 204.898 470.43C204.985 470.753 205.115 471.04 205.288 471.291C205.466 471.542 205.687 471.74 205.951 471.886C206.215 472.027 206.523 472.098 206.874 472.098C207.22 472.098 207.523 472.027 207.783 471.886C208.047 471.74 208.266 471.542 208.439 471.291C208.613 471.04 208.742 470.753 208.829 470.43C208.92 470.102 208.966 469.753 208.966 469.384V469.227C208.966 468.862 208.92 468.518 208.829 468.194C208.742 467.866 208.61 467.577 208.433 467.326C208.259 467.071 208.041 466.87 207.776 466.725C207.517 466.579 207.211 466.506 206.86 466.506C206.514 466.506 206.209 466.579 205.944 466.725C205.685 466.87 205.466 467.071 205.288 467.326C205.115 467.577 204.985 467.866 204.898 468.194C204.812 468.518 204.768 468.862 204.768 469.227ZM213.081 467.073V473H211.81V465.604H213.013L213.081 467.073ZM212.821 469.021L212.233 469.001C212.238 468.495 212.304 468.028 212.432 467.6C212.559 467.167 212.748 466.791 212.999 466.472C213.25 466.153 213.562 465.907 213.935 465.733C214.309 465.556 214.742 465.467 215.234 465.467C215.581 465.467 215.9 465.517 216.191 465.617C216.483 465.713 216.736 465.866 216.95 466.075C217.164 466.285 217.331 466.554 217.449 466.882C217.568 467.21 217.627 467.606 217.627 468.071V473H216.362V468.133C216.362 467.745 216.296 467.436 216.164 467.203C216.036 466.971 215.854 466.802 215.617 466.697C215.38 466.588 215.102 466.533 214.783 466.533C214.409 466.533 214.097 466.599 213.847 466.731C213.596 466.864 213.395 467.046 213.245 467.278C213.095 467.511 212.985 467.777 212.917 468.078C212.853 468.374 212.821 468.689 212.821 469.021ZM217.613 468.324L216.766 468.584C216.77 468.178 216.836 467.789 216.964 467.415C217.096 467.041 217.285 466.709 217.531 466.417C217.782 466.125 218.089 465.895 218.454 465.727C218.819 465.553 219.236 465.467 219.705 465.467C220.102 465.467 220.452 465.519 220.758 465.624C221.068 465.729 221.327 465.891 221.537 466.109C221.751 466.324 221.913 466.599 222.022 466.937C222.132 467.274 222.186 467.675 222.186 468.14V473H220.915V468.126C220.915 467.711 220.849 467.39 220.717 467.162C220.589 466.93 220.407 466.768 220.17 466.677C219.937 466.581 219.659 466.533 219.336 466.533C219.058 466.533 218.812 466.581 218.598 466.677C218.383 466.772 218.203 466.905 218.058 467.073C217.912 467.237 217.8 467.426 217.723 467.641C217.65 467.855 217.613 468.083 217.613 468.324ZM223.766 469.384V469.227C223.766 468.693 223.843 468.199 223.998 467.743C224.153 467.283 224.376 466.884 224.668 466.547C224.96 466.205 225.313 465.941 225.727 465.754C226.142 465.562 226.607 465.467 227.122 465.467C227.642 465.467 228.109 465.562 228.523 465.754C228.943 465.941 229.298 466.205 229.59 466.547C229.886 466.884 230.112 467.283 230.267 467.743C230.421 468.199 230.499 468.693 230.499 469.227V469.384C230.499 469.917 230.421 470.411 230.267 470.867C230.112 471.323 229.886 471.722 229.59 472.063C229.298 472.401 228.945 472.665 228.53 472.856C228.12 473.043 227.655 473.137 227.136 473.137C226.616 473.137 226.149 473.043 225.734 472.856C225.32 472.665 224.964 472.401 224.668 472.063C224.376 471.722 224.153 471.323 223.998 470.867C223.843 470.411 223.766 469.917 223.766 469.384ZM225.03 469.227V469.384C225.03 469.753 225.074 470.102 225.16 470.43C225.247 470.753 225.377 471.04 225.55 471.291C225.727 471.542 225.949 471.74 226.213 471.886C226.477 472.027 226.785 472.098 227.136 472.098C227.482 472.098 227.785 472.027 228.045 471.886C228.309 471.74 228.528 471.542 228.701 471.291C228.874 471.04 229.004 470.753 229.091 470.43C229.182 470.102 229.227 469.753 229.227 469.384V469.227C229.227 468.862 229.182 468.518 229.091 468.194C229.004 467.866 228.872 467.577 228.694 467.326C228.521 467.071 228.302 466.87 228.038 466.725C227.778 466.579 227.473 466.506 227.122 466.506C226.776 466.506 226.47 466.579 226.206 466.725C225.946 466.87 225.727 467.071 225.55 467.326C225.377 467.577 225.247 467.866 225.16 468.194C225.074 468.518 225.03 468.862 225.03 469.227ZM233.35 466.766V473H232.085V465.604H233.315L233.35 466.766ZM235.66 465.562L235.653 466.738C235.548 466.715 235.448 466.702 235.352 466.697C235.261 466.688 235.157 466.684 235.038 466.684C234.746 466.684 234.489 466.729 234.266 466.82C234.042 466.911 233.853 467.039 233.698 467.203C233.543 467.367 233.42 467.563 233.329 467.791C233.242 468.014 233.185 468.26 233.158 468.529L232.803 468.734C232.803 468.288 232.846 467.868 232.933 467.477C233.024 467.085 233.163 466.738 233.35 466.438C233.536 466.132 233.773 465.895 234.06 465.727C234.352 465.553 234.699 465.467 235.1 465.467C235.191 465.467 235.296 465.478 235.414 465.501C235.532 465.519 235.615 465.54 235.66 465.562ZM238.094 466.766V473H236.829V465.604H238.06L238.094 466.766ZM240.404 465.562L240.397 466.738C240.293 466.715 240.192 466.702 240.097 466.697C240.005 466.688 239.901 466.684 239.782 466.684C239.49 466.684 239.233 466.729 239.01 466.82C238.786 466.911 238.597 467.039 238.442 467.203C238.287 467.367 238.164 467.563 238.073 467.791C237.987 468.014 237.93 468.26 237.902 468.529L237.547 468.734C237.547 468.288 237.59 467.868 237.677 467.477C237.768 467.085 237.907 466.738 238.094 466.438C238.281 466.132 238.518 465.895 238.805 465.727C239.096 465.553 239.443 465.467 239.844 465.467C239.935 465.467 240.04 465.478 240.158 465.501C240.277 465.519 240.359 465.54 240.404 465.562ZM241.102 469.384V469.227C241.102 468.693 241.179 468.199 241.334 467.743C241.489 467.283 241.712 466.884 242.004 466.547C242.296 466.205 242.649 465.941 243.063 465.754C243.478 465.562 243.943 465.467 244.458 465.467C244.977 465.467 245.445 465.562 245.859 465.754C246.279 465.941 246.634 466.205 246.926 466.547C247.222 466.884 247.448 467.283 247.602 467.743C247.757 468.199 247.835 468.693 247.835 469.227V469.384C247.835 469.917 247.757 470.411 247.602 470.867C247.448 471.323 247.222 471.722 246.926 472.063C246.634 472.401 246.281 472.665 245.866 472.856C245.456 473.043 244.991 473.137 244.472 473.137C243.952 473.137 243.485 473.043 243.07 472.856C242.656 472.665 242.3 472.401 242.004 472.063C241.712 471.722 241.489 471.323 241.334 470.867C241.179 470.411 241.102 469.917 241.102 469.384ZM242.366 469.227V469.384C242.366 469.753 242.409 470.102 242.496 470.43C242.583 470.753 242.713 471.04 242.886 471.291C243.063 471.542 243.284 471.74 243.549 471.886C243.813 472.027 244.121 472.098 244.472 472.098C244.818 472.098 245.121 472.027 245.381 471.886C245.645 471.74 245.864 471.542 246.037 471.291C246.21 471.04 246.34 470.753 246.427 470.43C246.518 470.102 246.563 469.753 246.563 469.384V469.227C246.563 468.862 246.518 468.518 246.427 468.194C246.34 467.866 246.208 467.577 246.03 467.326C245.857 467.071 245.638 466.87 245.374 466.725C245.114 466.579 244.809 466.506 244.458 466.506C244.112 466.506 243.806 466.579 243.542 466.725C243.282 466.87 243.063 467.071 242.886 467.326C242.713 467.577 242.583 467.866 242.496 468.194C242.409 468.518 242.366 468.862 242.366 469.227ZM251.294 471.688L253.194 465.604H254.028L253.864 466.813L251.93 473H251.116L251.294 471.688ZM250.016 465.604L251.636 471.756L251.752 473H250.897L248.751 465.604H250.016ZM255.847 471.708L257.392 465.604H258.649L256.503 473H255.655L255.847 471.708ZM254.213 465.604L256.072 471.585L256.284 473H255.477L253.488 466.8L253.324 465.604H254.213ZM260.249 471.496V472.515C260.249 472.929 260.144 473.367 259.935 473.827C259.725 474.292 259.431 474.679 259.053 474.989L258.335 474.49C258.481 474.29 258.604 474.085 258.704 473.875C258.804 473.67 258.879 473.456 258.93 473.232C258.984 473.014 259.012 472.781 259.012 472.535V471.496H260.249ZM271.446 467.23V468.748C271.446 469.564 271.373 470.252 271.227 470.812C271.082 471.373 270.872 471.824 270.599 472.166C270.325 472.508 269.995 472.756 269.607 472.911C269.225 473.062 268.792 473.137 268.309 473.137C267.926 473.137 267.573 473.089 267.249 472.993C266.925 472.897 266.634 472.745 266.374 472.535C266.119 472.321 265.9 472.043 265.718 471.701C265.535 471.359 265.396 470.945 265.301 470.457C265.205 469.969 265.157 469.4 265.157 468.748V467.23C265.157 466.415 265.23 465.731 265.376 465.18C265.526 464.628 265.738 464.186 266.012 463.854C266.285 463.516 266.613 463.275 266.996 463.129C267.383 462.983 267.816 462.91 268.295 462.91C268.682 462.91 269.038 462.958 269.361 463.054C269.689 463.145 269.981 463.293 270.236 463.498C270.491 463.699 270.708 463.967 270.886 464.305C271.068 464.637 271.207 465.045 271.303 465.528C271.398 466.011 271.446 466.579 271.446 467.23ZM270.175 468.953V467.019C270.175 466.572 270.147 466.18 270.093 465.843C270.043 465.501 269.967 465.209 269.867 464.968C269.767 464.726 269.639 464.53 269.484 464.38C269.334 464.229 269.158 464.12 268.958 464.052C268.762 463.979 268.541 463.942 268.295 463.942C267.994 463.942 267.727 463.999 267.495 464.113C267.263 464.223 267.067 464.398 266.907 464.64C266.752 464.881 266.634 465.198 266.552 465.59C266.47 465.982 266.429 466.458 266.429 467.019V468.953C266.429 469.4 266.454 469.794 266.504 470.136C266.559 470.478 266.638 470.774 266.743 471.024C266.848 471.271 266.976 471.473 267.126 471.633C267.276 471.792 267.449 471.911 267.645 471.988C267.846 472.061 268.067 472.098 268.309 472.098C268.618 472.098 268.89 472.038 269.122 471.92C269.354 471.801 269.548 471.617 269.703 471.366C269.863 471.111 269.981 470.785 270.059 470.389C270.136 469.988 270.175 469.509 270.175 468.953ZM279.8 469.65V470.689H272.608V469.944L277.065 463.047H278.098L276.99 465.043L274.044 469.65H279.8ZM278.412 463.047V473H277.147V463.047H278.412ZM281.03 472.33C281.03 472.116 281.096 471.936 281.228 471.79C281.365 471.64 281.561 471.564 281.816 471.564C282.072 471.564 282.265 471.64 282.397 471.79C282.534 471.936 282.602 472.116 282.602 472.33C282.602 472.54 282.534 472.717 282.397 472.863C282.265 473.009 282.072 473.082 281.816 473.082C281.561 473.082 281.365 473.009 281.228 472.863C281.096 472.717 281.03 472.54 281.03 472.33ZM281.037 466.294C281.037 466.08 281.103 465.9 281.235 465.754C281.372 465.604 281.568 465.528 281.823 465.528C282.078 465.528 282.272 465.604 282.404 465.754C282.541 465.9 282.609 466.08 282.609 466.294C282.609 466.504 282.541 466.681 282.404 466.827C282.272 466.973 282.078 467.046 281.823 467.046C281.568 467.046 281.372 466.973 281.235 466.827C281.103 466.681 281.037 466.504 281.037 466.294ZM285.938 468.263L284.927 468.003L285.426 463.047H290.532V464.216H286.499L286.198 466.923C286.38 466.818 286.611 466.72 286.889 466.629C287.171 466.538 287.495 466.492 287.859 466.492C288.32 466.492 288.732 466.572 289.097 466.731C289.461 466.886 289.771 467.11 290.026 467.401C290.286 467.693 290.484 468.044 290.621 468.454C290.758 468.864 290.826 469.322 290.826 469.828C290.826 470.307 290.76 470.746 290.628 471.147C290.5 471.549 290.307 471.899 290.047 472.2C289.787 472.496 289.459 472.727 289.062 472.891C288.671 473.055 288.208 473.137 287.675 473.137C287.274 473.137 286.893 473.082 286.533 472.973C286.178 472.859 285.859 472.688 285.576 472.46C285.298 472.228 285.07 471.94 284.893 471.599C284.719 471.252 284.61 470.847 284.564 470.382H285.768C285.822 470.756 285.932 471.07 286.096 471.325C286.26 471.58 286.474 471.774 286.738 471.906C287.007 472.034 287.319 472.098 287.675 472.098C287.976 472.098 288.242 472.045 288.475 471.94C288.707 471.836 288.903 471.685 289.062 471.489C289.222 471.293 289.343 471.056 289.425 470.778C289.511 470.5 289.555 470.188 289.555 469.842C289.555 469.527 289.511 469.236 289.425 468.967C289.338 468.698 289.208 468.463 289.035 468.263C288.866 468.062 288.659 467.907 288.413 467.798C288.167 467.684 287.884 467.627 287.565 467.627C287.142 467.627 286.82 467.684 286.602 467.798C286.387 467.912 286.166 468.067 285.938 468.263ZM298.489 470.307C298.489 470.913 298.348 471.428 298.065 471.852C297.787 472.271 297.409 472.59 296.931 472.809C296.457 473.027 295.921 473.137 295.324 473.137C294.727 473.137 294.189 473.027 293.711 472.809C293.232 472.59 292.854 472.271 292.576 471.852C292.298 471.428 292.159 470.913 292.159 470.307C292.159 469.91 292.234 469.548 292.385 469.22C292.54 468.887 292.756 468.598 293.034 468.352C293.317 468.105 293.649 467.916 294.032 467.784C294.42 467.647 294.846 467.579 295.31 467.579C295.921 467.579 296.466 467.698 296.944 467.935C297.423 468.167 297.799 468.488 298.072 468.898C298.35 469.309 298.489 469.778 298.489 470.307ZM297.218 470.279C297.218 469.91 297.138 469.584 296.978 469.302C296.819 469.015 296.596 468.791 296.309 468.632C296.021 468.472 295.689 468.393 295.31 468.393C294.923 468.393 294.588 468.472 294.306 468.632C294.028 468.791 293.811 469.015 293.656 469.302C293.501 469.584 293.424 469.91 293.424 470.279C293.424 470.662 293.499 470.99 293.649 471.264C293.804 471.533 294.023 471.74 294.306 471.886C294.593 472.027 294.932 472.098 295.324 472.098C295.716 472.098 296.053 472.027 296.336 471.886C296.618 471.74 296.835 471.533 296.985 471.264C297.14 470.99 297.218 470.662 297.218 470.279ZM298.257 465.638C298.257 466.121 298.129 466.556 297.874 466.943C297.619 467.331 297.27 467.636 296.828 467.859C296.386 468.083 295.885 468.194 295.324 468.194C294.754 468.194 294.246 468.083 293.8 467.859C293.358 467.636 293.011 467.331 292.761 466.943C292.51 466.556 292.385 466.121 292.385 465.638C292.385 465.059 292.51 464.567 292.761 464.161C293.016 463.756 293.365 463.446 293.807 463.231C294.249 463.017 294.752 462.91 295.317 462.91C295.887 462.91 296.393 463.017 296.835 463.231C297.277 463.446 297.623 463.756 297.874 464.161C298.129 464.567 298.257 465.059 298.257 465.638ZM296.992 465.658C296.992 465.326 296.921 465.032 296.78 464.776C296.639 464.521 296.443 464.321 296.192 464.175C295.942 464.024 295.65 463.949 295.317 463.949C294.985 463.949 294.693 464.02 294.442 464.161C294.196 464.298 294.003 464.494 293.861 464.749C293.725 465.004 293.656 465.307 293.656 465.658C293.656 466 293.725 466.299 293.861 466.554C294.003 466.809 294.199 467.007 294.449 467.148C294.7 467.29 294.991 467.36 295.324 467.36C295.657 467.36 295.946 467.29 296.192 467.148C296.443 467.007 296.639 466.809 296.78 466.554C296.921 466.299 296.992 466 296.992 465.658ZM308.06 471.735V467.928C308.06 467.636 308 467.383 307.882 467.169C307.768 466.95 307.595 466.782 307.362 466.663C307.13 466.545 306.843 466.485 306.501 466.485C306.182 466.485 305.902 466.54 305.66 466.649C305.423 466.759 305.236 466.902 305.1 467.08C304.967 467.258 304.901 467.449 304.901 467.654H303.637C303.637 467.39 303.705 467.128 303.842 466.868C303.978 466.608 304.174 466.374 304.43 466.164C304.689 465.95 304.999 465.781 305.359 465.658C305.724 465.531 306.129 465.467 306.576 465.467C307.114 465.467 307.588 465.558 307.998 465.74C308.413 465.923 308.736 466.198 308.969 466.567C309.206 466.932 309.324 467.39 309.324 467.941V471.387C309.324 471.633 309.345 471.895 309.386 472.173C309.431 472.451 309.497 472.69 309.584 472.891V473H308.265C308.201 472.854 308.151 472.66 308.114 472.419C308.078 472.173 308.06 471.945 308.06 471.735ZM308.278 468.516L308.292 469.404H307.014C306.654 469.404 306.332 469.434 306.05 469.493C305.767 469.548 305.53 469.632 305.339 469.746C305.147 469.86 305.002 470.004 304.901 470.177C304.801 470.345 304.751 470.544 304.751 470.771C304.751 471.004 304.803 471.216 304.908 471.407C305.013 471.599 305.17 471.751 305.38 471.865C305.594 471.975 305.856 472.029 306.166 472.029C306.553 472.029 306.895 471.947 307.191 471.783C307.488 471.619 307.722 471.419 307.895 471.182C308.073 470.945 308.169 470.715 308.183 470.491L308.723 471.1C308.691 471.291 308.604 471.503 308.463 471.735C308.322 471.968 308.132 472.191 307.895 472.405C307.663 472.615 307.385 472.79 307.061 472.932C306.742 473.068 306.382 473.137 305.981 473.137C305.48 473.137 305.04 473.039 304.662 472.843C304.288 472.647 303.997 472.385 303.787 472.057C303.582 471.724 303.479 471.353 303.479 470.942C303.479 470.546 303.557 470.197 303.712 469.896C303.867 469.591 304.09 469.338 304.382 469.138C304.673 468.933 305.024 468.778 305.435 468.673C305.845 468.568 306.303 468.516 306.809 468.516H308.278ZM312.571 467.073V473H311.3V465.604H312.503L312.571 467.073ZM312.311 469.021L311.724 469.001C311.728 468.495 311.794 468.028 311.922 467.6C312.049 467.167 312.239 466.791 312.489 466.472C312.74 466.153 313.052 465.907 313.426 465.733C313.799 465.556 314.232 465.467 314.725 465.467C315.071 465.467 315.39 465.517 315.682 465.617C315.973 465.713 316.226 465.866 316.44 466.075C316.655 466.285 316.821 466.554 316.939 466.882C317.058 467.21 317.117 467.606 317.117 468.071V473H315.852V468.133C315.852 467.745 315.786 467.436 315.654 467.203C315.527 466.971 315.344 466.802 315.107 466.697C314.87 466.588 314.592 466.533 314.273 466.533C313.9 466.533 313.588 466.599 313.337 466.731C313.086 466.864 312.886 467.046 312.735 467.278C312.585 467.511 312.476 467.777 312.407 468.078C312.343 468.374 312.311 468.689 312.311 469.021ZM317.103 468.324L316.256 468.584C316.26 468.178 316.326 467.789 316.454 467.415C316.586 467.041 316.775 466.709 317.021 466.417C317.272 466.125 317.58 465.895 317.944 465.727C318.309 465.553 318.726 465.467 319.195 465.467C319.592 465.467 319.943 465.519 320.248 465.624C320.558 465.729 320.818 465.891 321.027 466.109C321.241 466.324 321.403 466.599 321.513 466.937C321.622 467.274 321.677 467.675 321.677 468.14V473H320.405V468.126C320.405 467.711 320.339 467.39 320.207 467.162C320.079 466.93 319.897 466.768 319.66 466.677C319.428 466.581 319.15 466.533 318.826 466.533C318.548 466.533 318.302 466.581 318.088 466.677C317.874 466.772 317.694 466.905 317.548 467.073C317.402 467.237 317.29 467.426 317.213 467.641C317.14 467.855 317.103 468.083 317.103 468.324Z" fill="#808080"/>
<path d="M121.544 463.047V473H119.5V463.047H121.544ZM124.606 463.047V464.653H116.485V463.047H124.606ZM129.084 464.749L126.377 473H124.196L127.894 463.047H129.282L129.084 464.749ZM131.333 473L128.619 464.749L128.4 463.047H129.802L133.52 473H131.333ZM131.21 469.295V470.901H125.953V469.295H131.21ZM134.443 463.047H138.155C138.916 463.047 139.57 463.161 140.117 463.389C140.669 463.617 141.092 463.954 141.389 464.4C141.685 464.847 141.833 465.396 141.833 466.048C141.833 466.581 141.742 467.039 141.56 467.422C141.382 467.8 141.129 468.117 140.801 468.372C140.477 468.623 140.097 468.823 139.659 468.974L139.01 469.315H135.783L135.769 467.716H138.169C138.529 467.716 138.827 467.652 139.064 467.524C139.301 467.397 139.479 467.219 139.598 466.991C139.721 466.763 139.782 466.499 139.782 466.198C139.782 465.879 139.723 465.604 139.604 465.371C139.486 465.139 139.306 464.961 139.064 464.838C138.823 464.715 138.52 464.653 138.155 464.653H136.494V473H134.443V463.047ZM140.008 473L137.738 468.563L139.905 468.55L142.202 472.904V473H140.008ZM151.301 467.798V471.742C151.146 471.929 150.907 472.132 150.583 472.351C150.259 472.565 149.842 472.749 149.332 472.904C148.822 473.059 148.204 473.137 147.479 473.137C146.837 473.137 146.251 473.032 145.723 472.822C145.194 472.608 144.738 472.296 144.355 471.886C143.977 471.476 143.685 470.974 143.48 470.382C143.275 469.785 143.173 469.104 143.173 468.338V467.716C143.173 466.95 143.271 466.269 143.467 465.672C143.667 465.075 143.952 464.571 144.321 464.161C144.69 463.751 145.13 463.439 145.641 463.225C146.151 463.01 146.718 462.903 147.343 462.903C148.209 462.903 148.92 463.045 149.476 463.327C150.032 463.605 150.455 463.993 150.747 464.489C151.043 464.981 151.226 465.547 151.294 466.185H149.305C149.254 465.847 149.159 465.553 149.018 465.303C148.876 465.052 148.673 464.856 148.409 464.715C148.149 464.574 147.812 464.503 147.397 464.503C147.056 464.503 146.75 464.574 146.481 464.715C146.217 464.852 145.994 465.054 145.811 465.323C145.629 465.592 145.49 465.925 145.394 466.321C145.299 466.718 145.251 467.178 145.251 467.702V468.338C145.251 468.857 145.301 469.318 145.401 469.719C145.502 470.115 145.65 470.45 145.846 470.724C146.046 470.993 146.292 471.195 146.584 471.332C146.876 471.469 147.215 471.537 147.602 471.537C147.926 471.537 148.195 471.51 148.409 471.455C148.628 471.4 148.803 471.334 148.935 471.257C149.072 471.175 149.177 471.097 149.25 471.024V469.261H147.377V467.798H151.301ZM159.634 471.4V473H154.336V471.4H159.634ZM155.006 463.047V473H152.955V463.047H155.006ZM158.943 467.101V468.659H154.336V467.101H158.943ZM159.627 463.047V464.653H154.336V463.047H159.627ZM165.417 463.047V473H163.373V463.047H165.417ZM168.479 463.047V464.653H160.358V463.047H168.479Z" fill="#808080"/>
<path d="M108.205 436C108.205 438.209 106.414 440 104.205 440C101.996 440 100.205 438.209 100.205 436C100.205 433.791 101.996 432 104.205 432C106.414 432 108.205 433.791 108.205 436ZM101.005 436C101.005 437.767 102.438 439.2 104.205 439.2C105.972 439.2 107.405 437.767 107.405 436C107.405 434.233 105.972 432.8 104.205 432.8C102.438 432.8 101.005 434.233 101.005 436Z" fill="#7F7F7F"/>
<path d="M108.205 468C108.205 470.209 106.414 472 104.205 472C101.996 472 100.205 470.209 100.205 468C100.205 465.791 101.996 464 104.205 464C106.414 464 108.205 465.791 108.205 468ZM101.005 468C101.005 469.767 102.438 471.2 104.205 471.2C105.972 471.2 107.405 469.767 107.405 468C107.405 466.233 105.972 464.8 104.205 464.8C102.438 464.8 101.005 466.233 101.005 468Z" fill="#58DC75"/>
<line x1="104.205" y1="440" x2="104.205" y2="464" stroke="#595959" stroke-width="2" stroke-dasharray="4 4"/>
<path d="M316.205 426C314.892 426 313.591 426.259 312.378 426.761C311.165 427.264 310.063 428 309.134 428.929C307.259 430.804 306.205 433.348 306.205 436C306.205 438.652 307.259 441.196 309.134 443.071C310.063 444 311.165 444.736 312.378 445.239C313.591 445.741 314.892 446 316.205 446C318.857 446 321.401 444.946 323.276 443.071C325.151 441.196 326.205 438.652 326.205 436H324.205C324.205 438.122 323.362 440.157 321.862 441.657C320.362 443.157 318.327 444 316.205 444C314.083 444 312.048 443.157 310.548 441.657C309.048 440.157 308.205 438.122 308.205 436C308.205 433.878 309.048 431.843 310.548 430.343C312.048 428.843 314.083 428 316.205 428V426ZM322.985 427C322.815 427 322.635 427.07 322.505 427.2L321.285 428.41L323.785 430.91L325.005 429.7C325.265 429.44 325.265 429 325.005 428.75L323.455 427.2C323.325 427.07 323.155 427 322.985 427ZM320.575 429.12L313.205 436.5V439H315.705L323.075 431.62L320.575 429.12Z" fill="#808080"/>
<rect x="112.705" y="541" width="203" height="45" rx="22.5" stroke="#58DC75" stroke-width="2"/>
<path d="M187.272 566.4V568H181.975V566.4H187.272ZM182.644 558.047V568H180.594V558.047H182.644ZM186.582 562.101V563.659H181.975V562.101H186.582ZM187.266 558.047V559.653H181.975V558.047H187.266ZM197.269 558.047V568H195.218L191.219 561.328V568H189.169V558.047H191.219L195.225 564.726V558.047H197.269ZM202.809 568H200.642L200.656 566.4H202.809C203.347 566.4 203.8 566.28 204.169 566.038C204.539 565.792 204.817 565.434 205.003 564.965C205.195 564.495 205.291 563.928 205.291 563.263V562.777C205.291 562.267 205.236 561.818 205.127 561.431C205.022 561.043 204.864 560.717 204.655 560.453C204.445 560.189 204.188 559.991 203.882 559.858C203.577 559.722 203.226 559.653 202.83 559.653H200.601V558.047H202.83C203.495 558.047 204.103 558.161 204.655 558.389C205.211 558.612 205.692 558.933 206.097 559.353C206.503 559.772 206.815 560.273 207.034 560.856C207.257 561.435 207.369 562.08 207.369 562.791V563.263C207.369 563.969 207.257 564.614 207.034 565.197C206.815 565.781 206.503 566.282 206.097 566.701C205.696 567.116 205.215 567.437 204.655 567.665C204.099 567.888 203.484 568 202.809 568ZM201.804 558.047V568H199.753V558.047H201.804ZM215.796 558.047V568H213.745V558.047H215.796ZM219.761 562.299V563.898H215.235V562.299H219.761ZM220.239 558.047V559.653H215.235V558.047H220.239ZM224.918 559.749L222.211 568H220.03L223.728 558.047H225.116L224.918 559.749ZM227.167 568L224.453 559.749L224.234 558.047H225.636L229.354 568H227.167ZM227.044 564.295V565.901H221.787V564.295H227.044ZM236.159 565.396C236.159 565.218 236.132 565.058 236.077 564.917C236.027 564.771 235.931 564.639 235.79 564.521C235.649 564.397 235.45 564.277 235.195 564.158C234.94 564.04 234.609 563.917 234.204 563.789C233.753 563.643 233.324 563.479 232.919 563.297C232.518 563.115 232.162 562.903 231.852 562.661C231.547 562.415 231.305 562.13 231.128 561.807C230.954 561.483 230.868 561.107 230.868 560.679C230.868 560.264 230.959 559.888 231.141 559.551C231.324 559.209 231.579 558.917 231.907 558.676C232.235 558.43 232.622 558.241 233.069 558.108C233.52 557.976 234.015 557.91 234.552 557.91C235.286 557.91 235.927 558.042 236.473 558.307C237.02 558.571 237.444 558.933 237.745 559.394C238.05 559.854 238.203 560.38 238.203 560.973H236.166C236.166 560.681 236.104 560.426 235.981 560.207C235.863 559.984 235.68 559.808 235.434 559.681C235.193 559.553 234.887 559.489 234.518 559.489C234.163 559.489 233.867 559.544 233.63 559.653C233.393 559.758 233.215 559.902 233.096 560.084C232.978 560.262 232.919 560.462 232.919 560.686C232.919 560.854 232.96 561.007 233.042 561.144C233.128 561.28 233.256 561.408 233.425 561.526C233.593 561.645 233.801 561.757 234.047 561.861C234.293 561.966 234.578 562.069 234.901 562.169C235.443 562.333 235.92 562.518 236.33 562.723C236.745 562.928 237.091 563.158 237.369 563.413C237.647 563.668 237.857 563.958 237.998 564.281C238.139 564.605 238.21 564.972 238.21 565.382C238.21 565.815 238.125 566.202 237.957 566.544C237.788 566.886 237.544 567.175 237.225 567.412C236.906 567.649 236.526 567.829 236.084 567.952C235.642 568.075 235.147 568.137 234.6 568.137C234.108 568.137 233.623 568.073 233.144 567.945C232.666 567.813 232.231 567.615 231.839 567.351C231.451 567.086 231.141 566.749 230.909 566.339C230.677 565.929 230.56 565.443 230.56 564.883H232.618C232.618 565.193 232.666 565.455 232.761 565.669C232.857 565.883 232.992 566.056 233.165 566.188C233.343 566.321 233.552 566.416 233.794 566.476C234.04 566.535 234.309 566.564 234.6 566.564C234.956 566.564 235.247 566.514 235.475 566.414C235.708 566.314 235.879 566.175 235.988 565.997C236.102 565.819 236.159 565.619 236.159 565.396ZM244.754 558.047V568H242.71V558.047H244.754ZM247.817 558.047V559.653H239.696V558.047H247.817Z" fill="#58DC75"/>
<rect x="66" y="734" width="20" height="143" rx="10" fill="#373737"/>
<rect x="112" y="734" width="20" height="143" rx="10" fill="#373737"/>
<rect x="158" y="734" width="20" height="143" rx="10" fill="#373737"/>
<rect x="204" y="734" width="20" height="143" rx="10" fill="#373737"/>
<rect x="250" y="734" width="20" height="143" rx="10" fill="#373737"/>
<rect x="296" y="734" width="20" height="143" rx="10" fill="#373737"/>
<rect x="342" y="734" width="20" height="143" rx="10" fill="#373737"/>
<rect x="112" y="778" width="20" height="99" rx="10" fill="#45D865"/>
<rect x="204" y="805" width="20" height="72" rx="10" fill="#45D865"/>
<rect x="158" y="768" width="20" height="109" rx="10" fill="#45D865"/>
<path d="M70.9834 706.492V716.5H69.7188V708.071L67.1689 709.001V707.859L70.7852 706.492H70.9834ZM77.7018 711.763L76.69 711.503L77.1891 706.547H82.2955V707.716H78.2623L77.9615 710.423C78.1438 710.318 78.374 710.22 78.652 710.129C78.9345 710.038 79.2581 709.992 79.6227 709.992C80.0829 709.992 80.4954 710.072 80.86 710.231C81.2245 710.386 81.5344 710.61 81.7896 710.901C82.0494 711.193 82.2477 711.544 82.3844 711.954C82.5211 712.364 82.5895 712.822 82.5895 713.328C82.5895 713.807 82.5234 714.246 82.3912 714.647C82.2636 715.049 82.0699 715.399 81.8102 715.7C81.5504 715.996 81.2223 716.227 80.8258 716.391C80.4339 716.555 79.9713 716.637 79.4381 716.637C79.037 716.637 78.6565 716.582 78.2965 716.473C77.941 716.359 77.622 716.188 77.3395 715.96C77.0615 715.728 76.8336 715.44 76.6559 715.099C76.4827 714.752 76.3733 714.347 76.3277 713.882H77.5309C77.5855 714.256 77.6949 714.57 77.859 714.825C78.023 715.08 78.2372 715.274 78.5016 715.406C78.7704 715.534 79.0826 715.598 79.4381 715.598C79.7389 715.598 80.0055 715.545 80.2379 715.44C80.4703 715.336 80.6663 715.185 80.8258 714.989C80.9853 714.793 81.1061 714.556 81.1881 714.278C81.2747 714 81.318 713.688 81.318 713.342C81.318 713.027 81.2747 712.736 81.1881 712.467C81.1015 712.198 80.9716 711.963 80.7984 711.763C80.6298 711.562 80.4225 711.407 80.1764 711.298C79.9303 711.184 79.6477 711.127 79.3287 711.127C78.9049 711.127 78.5836 711.184 78.3648 711.298C78.1507 711.412 77.9296 711.567 77.7018 711.763Z" fill="#909090"/>
<path d="M116.106 706.492V716.5H114.841V708.071L112.291 709.001V707.859L115.908 706.492H116.106ZM126.078 706.533H126.187V707.606H126.078C125.408 707.606 124.848 707.716 124.396 707.935C123.945 708.149 123.588 708.438 123.323 708.803C123.059 709.163 122.867 709.568 122.749 710.02C122.635 710.471 122.578 710.929 122.578 711.394V712.856C122.578 713.299 122.631 713.69 122.735 714.032C122.84 714.369 122.984 714.654 123.166 714.887C123.348 715.119 123.553 715.295 123.781 715.413C124.014 715.532 124.255 715.591 124.506 715.591C124.798 715.591 125.057 715.536 125.285 715.427C125.513 715.313 125.704 715.156 125.859 714.955C126.019 714.75 126.14 714.508 126.222 714.23C126.304 713.952 126.345 713.647 126.345 713.314C126.345 713.018 126.308 712.733 126.235 712.46C126.162 712.182 126.051 711.936 125.9 711.722C125.75 711.503 125.561 711.332 125.333 711.209C125.11 711.081 124.843 711.018 124.533 711.018C124.182 711.018 123.854 711.104 123.549 711.277C123.248 711.446 123 711.669 122.804 711.947C122.612 712.221 122.503 712.519 122.476 712.843L121.806 712.836C121.869 712.326 121.988 711.89 122.161 711.53C122.339 711.166 122.558 710.869 122.817 710.642C123.082 710.409 123.376 710.241 123.699 710.136C124.027 710.026 124.374 709.972 124.738 709.972C125.235 709.972 125.663 710.065 126.023 710.252C126.383 710.439 126.68 710.689 126.912 711.004C127.145 711.314 127.315 711.665 127.425 712.057C127.539 712.444 127.596 712.843 127.596 713.253C127.596 713.722 127.53 714.162 127.397 714.572C127.265 714.982 127.067 715.342 126.803 715.652C126.543 715.962 126.222 716.204 125.839 716.377C125.456 716.55 125.012 716.637 124.506 716.637C123.968 716.637 123.499 716.527 123.098 716.309C122.697 716.085 122.364 715.789 122.1 715.42C121.835 715.051 121.637 714.641 121.505 714.189C121.373 713.738 121.307 713.28 121.307 712.815V712.221C121.307 711.519 121.377 710.831 121.519 710.156C121.66 709.482 121.904 708.871 122.25 708.324C122.601 707.777 123.086 707.342 123.706 707.019C124.326 706.695 125.117 706.533 126.078 706.533Z" fill="#909090"/>
<path d="M161.228 706.492V716.5H159.964V708.071L157.414 709.001V707.859L161.03 706.492H161.228ZM172.78 706.547V707.258L168.658 716.5H167.325L171.44 707.586H166.053V706.547H172.78Z" fill="#909090"/>
<path d="M208.416 705.177V718H205.885V708.095L202.844 709.062V707.066L208.144 705.177H208.416ZM223.004 714.493C223.004 715.296 222.817 715.973 222.442 716.523C222.067 717.068 221.551 717.481 220.895 717.763C220.245 718.038 219.506 718.176 218.68 718.176C217.854 718.176 217.113 718.038 216.456 717.763C215.8 717.481 215.282 717.068 214.901 716.523C214.52 715.973 214.329 715.296 214.329 714.493C214.329 713.954 214.438 713.468 214.655 713.034C214.871 712.595 215.173 712.22 215.56 711.909C215.953 711.593 216.412 711.353 216.94 711.188C217.467 711.019 218.041 710.934 218.662 710.934C219.495 710.934 220.239 711.08 220.895 711.373C221.551 711.666 222.067 712.079 222.442 712.612C222.817 713.146 223.004 713.772 223.004 714.493ZM220.455 714.326C220.455 713.934 220.379 713.597 220.227 713.315C220.08 713.028 219.872 712.809 219.603 712.656C219.333 712.504 219.02 712.428 218.662 712.428C218.305 712.428 217.992 712.504 217.722 712.656C217.453 712.809 217.242 713.028 217.089 713.315C216.943 713.597 216.87 713.934 216.87 714.326C216.87 714.713 216.943 715.047 217.089 715.328C217.242 715.609 217.453 715.826 217.722 715.979C217.997 716.125 218.317 716.198 218.68 716.198C219.043 716.198 219.357 716.125 219.62 715.979C219.89 715.826 220.095 715.609 220.236 715.328C220.382 715.047 220.455 714.713 220.455 714.326ZM222.732 708.596C222.732 709.246 222.559 709.823 222.213 710.327C221.868 710.825 221.387 711.215 220.772 711.496C220.162 711.777 219.465 711.918 218.68 711.918C217.889 711.918 217.186 711.777 216.571 711.496C215.955 711.215 215.475 710.825 215.129 710.327C214.784 709.823 214.611 709.246 214.611 708.596C214.611 707.822 214.784 707.172 215.129 706.645C215.481 706.111 215.961 705.707 216.571 705.432C217.186 705.156 217.883 705.019 218.662 705.019C219.454 705.019 220.154 705.156 220.763 705.432C221.378 705.707 221.859 706.111 222.204 706.645C222.556 707.172 222.732 707.822 222.732 708.596ZM220.201 708.71C220.201 708.364 220.139 708.065 220.016 707.813C219.893 707.556 219.717 707.356 219.489 707.216C219.266 707.075 218.991 707.005 218.662 707.005C218.346 707.005 218.074 707.072 217.845 707.207C217.622 707.342 217.45 707.538 217.327 707.796C217.209 708.048 217.151 708.353 217.151 708.71C217.151 709.056 217.209 709.36 217.327 709.624C217.45 709.882 217.625 710.084 217.854 710.23C218.082 710.377 218.358 710.45 218.68 710.45C219.002 710.45 219.275 710.377 219.497 710.23C219.726 710.084 219.899 709.882 220.016 709.624C220.139 709.36 220.201 709.056 220.201 708.71Z" fill="#909090"/>
<path d="M257.351 706.492V716.5H256.086V708.071L253.536 709.001V707.859L257.153 706.492H257.351ZM263.727 715.44H263.857C264.586 715.44 265.179 715.338 265.635 715.133C266.09 714.928 266.441 714.652 266.687 714.306C266.933 713.959 267.102 713.57 267.193 713.137C267.284 712.699 267.33 712.25 267.33 711.79V710.266C267.33 709.814 267.277 709.413 267.173 709.062C267.072 708.712 266.931 708.418 266.749 708.181C266.571 707.944 266.368 707.764 266.14 707.641C265.913 707.518 265.671 707.456 265.416 707.456C265.124 707.456 264.862 707.515 264.63 707.634C264.402 707.748 264.208 707.91 264.049 708.119C263.894 708.329 263.775 708.575 263.693 708.857C263.611 709.14 263.57 709.448 263.57 709.78C263.57 710.076 263.607 710.364 263.679 710.642C263.752 710.92 263.864 711.17 264.014 711.394C264.165 711.617 264.352 711.795 264.575 711.927C264.803 712.054 265.069 712.118 265.375 712.118C265.657 712.118 265.922 712.063 266.168 711.954C266.418 711.84 266.639 711.688 266.831 711.496C267.027 711.3 267.182 711.079 267.296 710.833C267.414 710.587 267.483 710.329 267.501 710.061H268.102C268.102 710.439 268.027 710.812 267.877 711.182C267.731 711.546 267.526 711.879 267.262 712.18C266.997 712.48 266.687 712.722 266.332 712.904C265.976 713.082 265.589 713.171 265.17 713.171C264.678 713.171 264.251 713.075 263.891 712.884C263.531 712.692 263.235 712.437 263.003 712.118C262.775 711.799 262.604 711.444 262.49 711.052C262.381 710.655 262.326 710.254 262.326 709.849C262.326 709.375 262.392 708.93 262.524 708.516C262.656 708.101 262.852 707.736 263.112 707.422C263.372 707.103 263.693 706.854 264.076 706.677C264.463 706.499 264.91 706.41 265.416 706.41C265.985 706.41 266.471 706.524 266.872 706.752C267.273 706.98 267.599 707.285 267.849 707.668C268.105 708.051 268.291 708.481 268.41 708.96C268.528 709.438 268.588 709.931 268.588 710.437V710.895C268.588 711.41 268.554 711.934 268.485 712.467C268.421 712.995 268.296 713.501 268.109 713.984C267.927 714.467 267.66 714.9 267.309 715.283C266.958 715.661 266.5 715.962 265.935 716.186C265.375 716.404 264.682 716.514 263.857 716.514H263.727V715.44Z" fill="#909090"/>
<path d="M304.838 715.461V716.5H298.324V715.591L301.585 711.961C301.986 711.514 302.295 711.136 302.514 710.826C302.738 710.512 302.892 710.231 302.979 709.985C303.07 709.735 303.116 709.479 303.116 709.22C303.116 708.892 303.047 708.595 302.911 708.331C302.779 708.062 302.583 707.848 302.323 707.688C302.063 707.529 301.749 707.449 301.379 707.449C300.937 707.449 300.568 707.536 300.272 707.709C299.98 707.878 299.762 708.115 299.616 708.42C299.47 708.725 299.397 709.076 299.397 709.473H298.132C298.132 708.912 298.255 708.399 298.502 707.935C298.748 707.47 299.112 707.101 299.595 706.827C300.078 706.549 300.673 706.41 301.379 706.41C302.008 706.41 302.546 706.522 302.993 706.745C303.439 706.964 303.781 707.274 304.018 707.675C304.26 708.071 304.38 708.536 304.38 709.069C304.38 709.361 304.33 709.657 304.23 709.958C304.134 710.254 304 710.55 303.827 710.847C303.658 711.143 303.46 711.435 303.232 711.722C303.009 712.009 302.769 712.291 302.514 712.569L299.848 715.461H304.838ZM313.84 710.73V712.248C313.84 713.064 313.767 713.752 313.621 714.312C313.475 714.873 313.266 715.324 312.992 715.666C312.719 716.008 312.389 716.256 312.001 716.411C311.618 716.562 311.185 716.637 310.702 716.637C310.319 716.637 309.966 716.589 309.643 716.493C309.319 716.397 309.028 716.245 308.768 716.035C308.513 715.821 308.294 715.543 308.111 715.201C307.929 714.859 307.79 714.445 307.694 713.957C307.599 713.469 307.551 712.9 307.551 712.248V710.73C307.551 709.915 307.624 709.231 307.77 708.68C307.92 708.128 308.132 707.686 308.405 707.354C308.679 707.016 309.007 706.775 309.39 706.629C309.777 706.483 310.21 706.41 310.689 706.41C311.076 706.41 311.431 706.458 311.755 706.554C312.083 706.645 312.375 706.793 312.63 706.998C312.885 707.199 313.102 707.467 313.279 707.805C313.462 708.137 313.601 708.545 313.696 709.028C313.792 709.511 313.84 710.079 313.84 710.73ZM312.569 712.453V710.519C312.569 710.072 312.541 709.68 312.486 709.343C312.436 709.001 312.361 708.709 312.261 708.468C312.161 708.226 312.033 708.03 311.878 707.88C311.728 707.729 311.552 707.62 311.352 707.552C311.156 707.479 310.935 707.442 310.689 707.442C310.388 707.442 310.121 707.499 309.889 707.613C309.656 707.723 309.46 707.898 309.301 708.14C309.146 708.381 309.028 708.698 308.945 709.09C308.863 709.482 308.822 709.958 308.822 710.519V712.453C308.822 712.9 308.847 713.294 308.898 713.636C308.952 713.978 309.032 714.274 309.137 714.524C309.242 714.771 309.369 714.973 309.52 715.133C309.67 715.292 309.843 715.411 310.039 715.488C310.24 715.561 310.461 715.598 310.702 715.598C311.012 715.598 311.283 715.538 311.516 715.42C311.748 715.301 311.942 715.117 312.097 714.866C312.256 714.611 312.375 714.285 312.452 713.889C312.53 713.488 312.569 713.009 312.569 712.453Z" fill="#909090"/>
<path d="M349.961 715.461V716.5H343.446V715.591L346.707 711.961C347.108 711.514 347.418 711.136 347.637 710.826C347.86 710.512 348.015 710.231 348.102 709.985C348.193 709.735 348.238 709.479 348.238 709.22C348.238 708.892 348.17 708.595 348.033 708.331C347.901 708.062 347.705 707.848 347.445 707.688C347.185 707.529 346.871 707.449 346.502 707.449C346.06 707.449 345.691 707.536 345.394 707.709C345.103 707.878 344.884 708.115 344.738 708.42C344.592 708.725 344.519 709.076 344.519 709.473H343.255C343.255 708.912 343.378 708.399 343.624 707.935C343.87 707.47 344.235 707.101 344.718 706.827C345.201 706.549 345.796 706.41 346.502 706.41C347.131 706.41 347.669 706.522 348.115 706.745C348.562 706.964 348.904 707.274 349.141 707.675C349.382 708.071 349.503 708.536 349.503 709.069C349.503 709.361 349.453 709.657 349.352 709.958C349.257 710.254 349.122 710.55 348.949 710.847C348.781 711.143 348.582 711.435 348.354 711.722C348.131 712.009 347.892 712.291 347.637 712.569L344.971 715.461H349.961ZM356.871 706.492V716.5H355.606V708.071L353.056 709.001V707.859L356.672 706.492H356.871Z" fill="#909090"/>
<path d="M137.141 673.02V660.938H139.391V673.02C139.391 674.145 139.16 675.094 138.699 675.867C138.238 676.641 137.602 677.23 136.789 677.637C135.984 678.035 135.059 678.234 134.012 678.234C132.965 678.234 132.035 678.055 131.223 677.695C130.41 677.336 129.773 676.789 129.312 676.055C128.852 675.32 128.621 674.395 128.621 673.277H130.883C130.883 673.996 131.016 674.586 131.281 675.047C131.547 675.508 131.914 675.848 132.383 676.066C132.859 676.285 133.402 676.395 134.012 676.395C134.605 676.395 135.137 676.27 135.605 676.02C136.082 675.762 136.457 675.383 136.73 674.883C137.004 674.375 137.141 673.754 137.141 673.02ZM152.771 675.832V669.305C152.771 668.805 152.67 668.371 152.466 668.004C152.271 667.629 151.974 667.34 151.576 667.137C151.177 666.934 150.685 666.832 150.099 666.832C149.552 666.832 149.072 666.926 148.658 667.113C148.252 667.301 147.931 667.547 147.697 667.852C147.47 668.156 147.357 668.484 147.357 668.836H145.189C145.189 668.383 145.306 667.934 145.541 667.488C145.775 667.043 146.111 666.641 146.548 666.281C146.994 665.914 147.525 665.625 148.142 665.414C148.767 665.195 149.462 665.086 150.228 665.086C151.15 665.086 151.962 665.242 152.666 665.555C153.377 665.867 153.931 666.34 154.33 666.973C154.736 667.598 154.939 668.383 154.939 669.328V675.234C154.939 675.656 154.974 676.105 155.045 676.582C155.123 677.059 155.236 677.469 155.384 677.812V678H153.123C153.013 677.75 152.927 677.418 152.865 677.004C152.802 676.582 152.771 676.191 152.771 675.832ZM153.146 670.312L153.17 671.836H150.978C150.361 671.836 149.81 671.887 149.326 671.988C148.841 672.082 148.435 672.227 148.107 672.422C147.779 672.617 147.529 672.863 147.357 673.16C147.185 673.449 147.099 673.789 147.099 674.18C147.099 674.578 147.189 674.941 147.369 675.27C147.548 675.598 147.818 675.859 148.177 676.055C148.545 676.242 148.994 676.336 149.525 676.336C150.189 676.336 150.775 676.195 151.283 675.914C151.791 675.633 152.193 675.289 152.49 674.883C152.795 674.477 152.959 674.082 152.982 673.699L153.908 674.742C153.853 675.07 153.705 675.434 153.462 675.832C153.22 676.23 152.896 676.613 152.49 676.98C152.091 677.34 151.615 677.641 151.06 677.883C150.513 678.117 149.896 678.234 149.209 678.234C148.349 678.234 147.595 678.066 146.947 677.73C146.306 677.395 145.806 676.945 145.447 676.383C145.095 675.812 144.92 675.176 144.92 674.473C144.92 673.793 145.052 673.195 145.318 672.68C145.584 672.156 145.966 671.723 146.466 671.379C146.966 671.027 147.568 670.762 148.271 670.582C148.974 670.402 149.759 670.312 150.627 670.312H153.146ZM162.917 668.027V678H160.749V665.32H162.8L162.917 668.027ZM162.402 671.18L161.499 671.145C161.507 670.277 161.636 669.477 161.886 668.742C162.136 668 162.487 667.355 162.941 666.809C163.394 666.262 163.933 665.84 164.558 665.543C165.191 665.238 165.89 665.086 166.655 665.086C167.28 665.086 167.843 665.172 168.343 665.344C168.843 665.508 169.269 665.773 169.62 666.141C169.98 666.508 170.253 666.984 170.441 667.57C170.628 668.148 170.722 668.855 170.722 669.691V678H168.542V669.668C168.542 669.004 168.445 668.473 168.249 668.074C168.054 667.668 167.769 667.375 167.394 667.195C167.019 667.008 166.558 666.914 166.011 666.914C165.472 666.914 164.98 667.027 164.534 667.254C164.097 667.48 163.718 667.793 163.398 668.191C163.085 668.59 162.839 669.047 162.659 669.562C162.487 670.07 162.402 670.609 162.402 671.18ZM184.173 675.07V665.32H186.352V678H184.278L184.173 675.07ZM184.583 672.398L185.485 672.375C185.485 673.219 185.395 674 185.216 674.719C185.044 675.43 184.763 676.047 184.372 676.57C183.981 677.094 183.47 677.504 182.837 677.801C182.204 678.09 181.434 678.234 180.528 678.234C179.911 678.234 179.345 678.145 178.829 677.965C178.321 677.785 177.884 677.508 177.516 677.133C177.149 676.758 176.864 676.27 176.661 675.668C176.466 675.066 176.368 674.344 176.368 673.5V665.32H178.536V673.523C178.536 674.094 178.598 674.566 178.723 674.941C178.856 675.309 179.032 675.602 179.251 675.82C179.477 676.031 179.727 676.18 180.001 676.266C180.282 676.352 180.571 676.395 180.868 676.395C181.79 676.395 182.52 676.219 183.059 675.867C183.598 675.508 183.985 675.027 184.22 674.426C184.462 673.816 184.583 673.141 184.583 672.398ZM199.534 675.832V669.305C199.534 668.805 199.432 668.371 199.229 668.004C199.034 667.629 198.737 667.34 198.338 667.137C197.94 666.934 197.448 666.832 196.862 666.832C196.315 666.832 195.834 666.926 195.42 667.113C195.014 667.301 194.694 667.547 194.459 667.852C194.233 668.156 194.12 668.484 194.12 668.836H191.952C191.952 668.383 192.069 667.934 192.303 667.488C192.537 667.043 192.873 666.641 193.311 666.281C193.756 665.914 194.287 665.625 194.905 665.414C195.53 665.195 196.225 665.086 196.991 665.086C197.912 665.086 198.725 665.242 199.428 665.555C200.139 665.867 200.694 666.34 201.092 666.973C201.498 667.598 201.702 668.383 201.702 669.328V675.234C201.702 675.656 201.737 676.105 201.807 676.582C201.885 677.059 201.998 677.469 202.147 677.812V678H199.885C199.776 677.75 199.69 677.418 199.627 677.004C199.565 676.582 199.534 676.191 199.534 675.832ZM199.909 670.312L199.932 671.836H197.741C197.123 671.836 196.573 671.887 196.088 671.988C195.604 672.082 195.198 672.227 194.87 672.422C194.541 672.617 194.291 672.863 194.12 673.16C193.948 673.449 193.862 673.789 193.862 674.18C193.862 674.578 193.952 674.941 194.131 675.27C194.311 675.598 194.58 675.859 194.94 676.055C195.307 676.242 195.756 676.336 196.287 676.336C196.952 676.336 197.537 676.195 198.045 675.914C198.553 675.633 198.955 675.289 199.252 674.883C199.557 674.477 199.721 674.082 199.745 673.699L200.67 674.742C200.616 675.07 200.467 675.434 200.225 675.832C199.983 676.23 199.659 676.613 199.252 676.98C198.854 677.34 198.377 677.641 197.823 677.883C197.276 678.117 196.659 678.234 195.971 678.234C195.112 678.234 194.358 678.066 193.709 677.73C193.069 677.395 192.569 676.945 192.209 676.383C191.858 675.812 191.682 675.176 191.682 674.473C191.682 673.793 191.815 673.195 192.08 672.68C192.346 672.156 192.729 671.723 193.229 671.379C193.729 671.027 194.33 670.762 195.034 670.582C195.737 670.402 196.522 670.312 197.389 670.312H199.909ZM209.68 667.312V678H207.512V665.32H209.621L209.68 667.312ZM213.641 665.25L213.629 667.266C213.449 667.227 213.277 667.203 213.113 667.195C212.957 667.18 212.777 667.172 212.574 667.172C212.074 667.172 211.633 667.25 211.25 667.406C210.867 667.562 210.543 667.781 210.277 668.062C210.012 668.344 209.801 668.68 209.645 669.07C209.496 669.453 209.398 669.875 209.352 670.336L208.742 670.688C208.742 669.922 208.816 669.203 208.965 668.531C209.121 667.859 209.359 667.266 209.68 666.75C210 666.227 210.406 665.82 210.898 665.531C211.398 665.234 211.992 665.086 212.68 665.086C212.836 665.086 213.016 665.105 213.219 665.145C213.422 665.176 213.562 665.211 213.641 665.25ZM221.818 676.688L225.345 665.32H227.666L222.58 679.957C222.463 680.27 222.306 680.605 222.111 680.965C221.923 681.332 221.681 681.68 221.384 682.008C221.088 682.336 220.728 682.602 220.306 682.805C219.892 683.016 219.396 683.121 218.818 683.121C218.646 683.121 218.427 683.098 218.162 683.051C217.896 683.004 217.709 682.965 217.599 682.934L217.588 681.176C217.65 681.184 217.748 681.191 217.88 681.199C218.021 681.215 218.119 681.223 218.173 681.223C218.666 681.223 219.084 681.156 219.427 681.023C219.771 680.898 220.06 680.684 220.295 680.379C220.537 680.082 220.744 679.672 220.916 679.148L221.818 676.688ZM219.228 665.32L222.521 675.164L223.084 677.449L221.525 678.246L216.861 665.32H219.228ZM251.321 676.219V678H240.153V676.441L245.743 670.219C246.43 669.453 246.962 668.805 247.337 668.273C247.72 667.734 247.985 667.254 248.134 666.832C248.29 666.402 248.368 665.965 248.368 665.52C248.368 664.957 248.251 664.449 248.016 663.996C247.79 663.535 247.454 663.168 247.009 662.895C246.563 662.621 246.024 662.484 245.391 662.484C244.634 662.484 244.001 662.633 243.493 662.93C242.993 663.219 242.618 663.625 242.368 664.148C242.118 664.672 241.993 665.273 241.993 665.953H239.825C239.825 664.992 240.036 664.113 240.458 663.316C240.88 662.52 241.505 661.887 242.333 661.418C243.161 660.941 244.18 660.703 245.391 660.703C246.47 660.703 247.391 660.895 248.157 661.277C248.923 661.652 249.509 662.184 249.915 662.871C250.329 663.551 250.536 664.348 250.536 665.262C250.536 665.762 250.45 666.27 250.278 666.785C250.114 667.293 249.884 667.801 249.587 668.309C249.298 668.816 248.958 669.316 248.567 669.809C248.184 670.301 247.774 670.785 247.337 671.262L242.766 676.219H251.321ZM266.752 668.109V670.711C266.752 672.109 266.627 673.289 266.377 674.25C266.127 675.211 265.768 675.984 265.299 676.57C264.83 677.156 264.264 677.582 263.6 677.848C262.944 678.105 262.202 678.234 261.373 678.234C260.717 678.234 260.112 678.152 259.557 677.988C259.002 677.824 258.502 677.562 258.057 677.203C257.62 676.836 257.245 676.359 256.932 675.773C256.62 675.188 256.381 674.477 256.217 673.641C256.053 672.805 255.971 671.828 255.971 670.711V668.109C255.971 666.711 256.096 665.539 256.346 664.594C256.604 663.648 256.967 662.891 257.436 662.32C257.905 661.742 258.467 661.328 259.123 661.078C259.787 660.828 260.53 660.703 261.35 660.703C262.014 660.703 262.623 660.785 263.178 660.949C263.741 661.105 264.241 661.359 264.678 661.711C265.116 662.055 265.487 662.516 265.791 663.094C266.104 663.664 266.342 664.363 266.506 665.191C266.67 666.02 266.752 666.992 266.752 668.109ZM264.573 671.062V667.746C264.573 666.98 264.526 666.309 264.432 665.73C264.346 665.145 264.217 664.645 264.045 664.23C263.873 663.816 263.655 663.48 263.389 663.223C263.131 662.965 262.83 662.777 262.487 662.66C262.151 662.535 261.772 662.473 261.35 662.473C260.834 662.473 260.377 662.57 259.979 662.766C259.58 662.953 259.245 663.254 258.971 663.668C258.705 664.082 258.502 664.625 258.362 665.297C258.221 665.969 258.151 666.785 258.151 667.746V671.062C258.151 671.828 258.194 672.504 258.28 673.09C258.373 673.676 258.51 674.184 258.69 674.613C258.87 675.035 259.088 675.383 259.346 675.656C259.604 675.93 259.901 676.133 260.237 676.266C260.58 676.391 260.959 676.453 261.373 676.453C261.905 676.453 262.37 676.352 262.768 676.148C263.166 675.945 263.498 675.629 263.764 675.199C264.037 674.762 264.241 674.203 264.373 673.523C264.506 672.836 264.573 672.016 264.573 671.062ZM283.121 676.219V678H271.953V676.441L277.543 670.219C278.23 669.453 278.762 668.805 279.137 668.273C279.52 667.734 279.785 667.254 279.934 666.832C280.09 666.402 280.168 665.965 280.168 665.52C280.168 664.957 280.051 664.449 279.816 663.996C279.59 663.535 279.254 663.168 278.809 662.895C278.363 662.621 277.824 662.484 277.191 662.484C276.434 662.484 275.801 662.633 275.293 662.93C274.793 663.219 274.418 663.625 274.168 664.148C273.918 664.672 273.793 665.273 273.793 665.953H271.625C271.625 664.992 271.836 664.113 272.258 663.316C272.68 662.52 273.305 661.887 274.133 661.418C274.961 660.941 275.98 660.703 277.191 660.703C278.27 660.703 279.191 660.895 279.957 661.277C280.723 661.652 281.309 662.184 281.715 662.871C282.129 663.551 282.336 664.348 282.336 665.262C282.336 665.762 282.25 666.27 282.078 666.785C281.914 667.293 281.684 667.801 281.387 668.309C281.098 668.816 280.758 669.316 280.367 669.809C279.984 670.301 279.574 670.785 279.137 671.262L274.566 676.219H283.121ZM299.021 676.219V678H287.853V676.441L293.443 670.219C294.13 669.453 294.662 668.805 295.037 668.273C295.42 667.734 295.685 667.254 295.834 666.832C295.99 666.402 296.068 665.965 296.068 665.52C296.068 664.957 295.951 664.449 295.716 663.996C295.49 663.535 295.154 663.168 294.709 662.895C294.263 662.621 293.724 662.484 293.091 662.484C292.334 662.484 291.701 662.633 291.193 662.93C290.693 663.219 290.318 663.625 290.068 664.148C289.818 664.672 289.693 665.273 289.693 665.953H287.525C287.525 664.992 287.736 664.113 288.158 663.316C288.58 662.52 289.205 661.887 290.033 661.418C290.861 660.941 291.88 660.703 293.091 660.703C294.17 660.703 295.091 660.895 295.857 661.277C296.623 661.652 297.209 662.184 297.615 662.871C298.029 663.551 298.236 664.348 298.236 665.262C298.236 665.762 298.15 666.27 297.978 666.785C297.814 667.293 297.584 667.801 297.287 668.309C296.998 668.816 296.658 669.316 296.267 669.809C295.884 670.301 295.474 670.785 295.037 671.262L290.466 676.219H299.021Z" fill="#909090"/>
<path d="M41.41 809.58L36.83 805L41.41 800.41L40 799L34 805L40 811L41.41 809.58Z" fill="#7F7F7F"/>
<path d="M387 809.58L391.58 805L387 800.41L388.41 799L394.41 805L388.41 811L387 809.58Z" fill="#7F7F7F"/>
</svg>
