<svg width="428" height="926" viewBox="0 0 428 926" fill="none" xmlns="http://www.w3.org/2000/svg">
<rect width="428" height="926" fill="#202020"/>
<rect x="66" y="751" width="20" height="143" rx="10" fill="#373737"/>
<rect x="112" y="751" width="20" height="143" rx="10" fill="#373737"/>
<rect x="158" y="751" width="20" height="143" rx="10" fill="#373737"/>
<rect x="204" y="751" width="20" height="143" rx="10" fill="#373737"/>
<rect x="250" y="751" width="20" height="143" rx="10" fill="#373737"/>
<rect x="296" y="751" width="20" height="143" rx="10" fill="#373737"/>
<rect x="342" y="751" width="20" height="143" rx="10" fill="#373737"/>
<rect x="112" y="795" width="20" height="99" rx="10" fill="#45D865"/>
<rect x="204" y="822" width="20" height="72" rx="10" fill="#45D865"/>
<rect x="296" y="785" width="20" height="109" rx="10" fill="#45D865"/>
<path d="M128.322 209.273V215.777C128.322 219.273 128.01 222.223 127.385 224.625C126.76 227.027 125.861 228.961 124.689 230.426C123.518 231.891 122.102 232.955 120.441 233.619C118.801 234.264 116.945 234.586 114.875 234.586C113.234 234.586 111.721 234.381 110.334 233.971C108.947 233.561 107.697 232.906 106.584 232.008C105.49 231.09 104.553 229.898 103.771 228.434C102.99 226.969 102.395 225.191 101.984 223.102C101.574 221.012 101.369 218.57 101.369 215.777V209.273C101.369 205.777 101.682 202.848 102.307 200.484C102.951 198.121 103.859 196.227 105.031 194.801C106.203 193.355 107.609 192.32 109.25 191.695C110.91 191.07 112.766 190.758 114.816 190.758C116.477 190.758 118 190.963 119.387 191.373C120.793 191.764 122.043 192.398 123.137 193.277C124.23 194.137 125.158 195.289 125.92 196.734C126.701 198.16 127.297 199.908 127.707 201.979C128.117 204.049 128.322 206.48 128.322 209.273ZM122.873 216.656V208.365C122.873 206.451 122.756 204.771 122.521 203.326C122.307 201.861 121.984 200.611 121.555 199.576C121.125 198.541 120.578 197.701 119.914 197.057C119.27 196.412 118.518 195.943 117.658 195.65C116.818 195.338 115.871 195.182 114.816 195.182C113.527 195.182 112.385 195.426 111.389 195.914C110.393 196.383 109.553 197.135 108.869 198.17C108.205 199.205 107.697 200.562 107.346 202.242C106.994 203.922 106.818 205.963 106.818 208.365V216.656C106.818 218.57 106.926 220.26 107.141 221.725C107.375 223.189 107.717 224.459 108.166 225.533C108.615 226.588 109.162 227.457 109.807 228.141C110.451 228.824 111.193 229.332 112.033 229.664C112.893 229.977 113.84 230.133 114.875 230.133C116.203 230.133 117.365 229.879 118.361 229.371C119.357 228.863 120.188 228.072 120.852 226.998C121.535 225.904 122.043 224.508 122.375 222.809C122.707 221.09 122.873 219.039 122.873 216.656ZM163.244 229.547V234H135.324V230.104L149.299 214.547C151.018 212.633 152.346 211.012 153.283 209.684C154.24 208.336 154.904 207.135 155.275 206.08C155.666 205.006 155.861 203.912 155.861 202.799C155.861 201.393 155.568 200.123 154.982 198.99C154.416 197.838 153.576 196.92 152.463 196.236C151.35 195.553 150.002 195.211 148.42 195.211C146.525 195.211 144.943 195.582 143.674 196.324C142.424 197.047 141.486 198.062 140.861 199.371C140.236 200.68 139.924 202.184 139.924 203.883H134.504C134.504 201.48 135.031 199.283 136.086 197.291C137.141 195.299 138.703 193.717 140.773 192.545C142.844 191.354 145.393 190.758 148.42 190.758C151.115 190.758 153.42 191.236 155.334 192.193C157.248 193.131 158.713 194.459 159.729 196.178C160.764 197.877 161.281 199.869 161.281 202.154C161.281 203.404 161.066 204.674 160.637 205.963C160.227 207.232 159.65 208.502 158.908 209.771C158.186 211.041 157.336 212.291 156.359 213.521C155.402 214.752 154.377 215.963 153.283 217.154L141.857 229.547H163.244ZM169.396 231.129C169.396 230.211 169.68 229.439 170.246 228.814C170.832 228.17 171.672 227.848 172.766 227.848C173.859 227.848 174.689 228.17 175.256 228.814C175.842 229.439 176.135 230.211 176.135 231.129C176.135 232.027 175.842 232.789 175.256 233.414C174.689 234.039 173.859 234.352 172.766 234.352C171.672 234.352 170.832 234.039 170.246 233.414C169.68 232.789 169.396 232.027 169.396 231.129ZM169.426 205.26C169.426 204.342 169.709 203.57 170.275 202.945C170.861 202.301 171.701 201.979 172.795 201.979C173.889 201.979 174.719 202.301 175.285 202.945C175.871 203.57 176.164 204.342 176.164 205.26C176.164 206.158 175.871 206.92 175.285 207.545C174.719 208.17 173.889 208.482 172.795 208.482C171.701 208.482 170.861 208.17 170.275 207.545C169.709 206.92 169.426 206.158 169.426 205.26ZM190.432 213.697L186.096 212.584L188.234 191.344H210.119V196.354H192.834L191.545 207.955C192.326 207.506 193.312 207.086 194.504 206.695C195.715 206.305 197.102 206.109 198.664 206.109C200.637 206.109 202.404 206.451 203.967 207.135C205.529 207.799 206.857 208.756 207.951 210.006C209.064 211.256 209.914 212.76 210.5 214.518C211.086 216.275 211.379 218.238 211.379 220.406C211.379 222.457 211.096 224.342 210.529 226.061C209.982 227.779 209.152 229.283 208.039 230.572C206.926 231.842 205.52 232.828 203.82 233.531C202.141 234.234 200.158 234.586 197.873 234.586C196.154 234.586 194.523 234.352 192.98 233.883C191.457 233.395 190.09 232.662 188.879 231.686C187.688 230.689 186.711 229.459 185.949 227.994C185.207 226.51 184.738 224.771 184.543 222.779H189.699C189.934 224.381 190.402 225.729 191.105 226.822C191.809 227.916 192.727 228.746 193.859 229.312C195.012 229.859 196.35 230.133 197.873 230.133C199.162 230.133 200.305 229.908 201.301 229.459C202.297 229.01 203.137 228.365 203.82 227.525C204.504 226.686 205.021 225.67 205.373 224.479C205.744 223.287 205.93 221.949 205.93 220.465C205.93 219.117 205.744 217.867 205.373 216.715C205.002 215.562 204.445 214.557 203.703 213.697C202.98 212.838 202.092 212.174 201.037 211.705C199.982 211.217 198.771 210.973 197.404 210.973C195.588 210.973 194.211 211.217 193.273 211.705C192.355 212.193 191.408 212.857 190.432 213.697ZM244.104 209.273V215.777C244.104 219.273 243.791 222.223 243.166 224.625C242.541 227.027 241.643 228.961 240.471 230.426C239.299 231.891 237.883 232.955 236.223 233.619C234.582 234.264 232.727 234.586 230.656 234.586C229.016 234.586 227.502 234.381 226.115 233.971C224.729 233.561 223.479 232.906 222.365 232.008C221.271 231.09 220.334 229.898 219.553 228.434C218.771 226.969 218.176 225.191 217.766 223.102C217.355 221.012 217.15 218.57 217.15 215.777V209.273C217.15 205.777 217.463 202.848 218.088 200.484C218.732 198.121 219.641 196.227 220.812 194.801C221.984 193.355 223.391 192.32 225.031 191.695C226.691 191.07 228.547 190.758 230.598 190.758C232.258 190.758 233.781 190.963 235.168 191.373C236.574 191.764 237.824 192.398 238.918 193.277C240.012 194.137 240.939 195.289 241.701 196.734C242.482 198.16 243.078 199.908 243.488 201.979C243.898 204.049 244.104 206.48 244.104 209.273ZM238.654 216.656V208.365C238.654 206.451 238.537 204.771 238.303 203.326C238.088 201.861 237.766 200.611 237.336 199.576C236.906 198.541 236.359 197.701 235.695 197.057C235.051 196.412 234.299 195.943 233.439 195.65C232.6 195.338 231.652 195.182 230.598 195.182C229.309 195.182 228.166 195.426 227.17 195.914C226.174 196.383 225.334 197.135 224.65 198.17C223.986 199.205 223.479 200.562 223.127 202.242C222.775 203.922 222.6 205.963 222.6 208.365V216.656C222.6 218.57 222.707 220.26 222.922 221.725C223.156 223.189 223.498 224.459 223.947 225.533C224.396 226.588 224.943 227.457 225.588 228.141C226.232 228.824 226.975 229.332 227.814 229.664C228.674 229.977 229.621 230.133 230.656 230.133C231.984 230.133 233.146 229.879 234.143 229.371C235.139 228.863 235.969 228.072 236.633 226.998C237.316 225.904 237.824 224.508 238.156 222.809C238.488 221.09 238.654 219.039 238.654 216.656ZM251.428 231.129C251.428 230.211 251.711 229.439 252.277 228.814C252.863 228.17 253.703 227.848 254.797 227.848C255.891 227.848 256.721 228.17 257.287 228.814C257.873 229.439 258.166 230.211 258.166 231.129C258.166 232.027 257.873 232.789 257.287 233.414C256.721 234.039 255.891 234.352 254.797 234.352C253.703 234.352 252.863 234.039 252.277 233.414C251.711 232.789 251.428 232.027 251.428 231.129ZM251.457 205.26C251.457 204.342 251.74 203.57 252.307 202.945C252.893 202.301 253.732 201.979 254.826 201.979C255.92 201.979 256.75 202.301 257.316 202.945C257.902 203.57 258.195 204.342 258.195 205.26C258.195 206.158 257.902 206.92 257.316 207.545C256.75 208.17 255.92 208.482 254.826 208.482C253.732 208.482 252.893 208.17 252.307 207.545C251.74 206.92 251.457 206.158 251.457 205.26ZM273.518 210.006H277.385C279.279 210.006 280.842 209.693 282.072 209.068C283.322 208.424 284.25 207.555 284.855 206.461C285.48 205.348 285.793 204.098 285.793 202.711C285.793 201.07 285.52 199.693 284.973 198.58C284.426 197.467 283.605 196.627 282.512 196.061C281.418 195.494 280.031 195.211 278.352 195.211C276.828 195.211 275.48 195.514 274.309 196.119C273.156 196.705 272.248 197.545 271.584 198.639C270.939 199.732 270.617 201.021 270.617 202.506H265.197C265.197 200.338 265.744 198.365 266.838 196.588C267.932 194.811 269.465 193.395 271.438 192.34C273.43 191.285 275.734 190.758 278.352 190.758C280.93 190.758 283.186 191.217 285.119 192.135C287.053 193.033 288.557 194.381 289.631 196.178C290.705 197.955 291.242 200.172 291.242 202.828C291.242 203.902 290.988 205.055 290.48 206.285C289.992 207.496 289.221 208.629 288.166 209.684C287.131 210.738 285.783 211.607 284.123 212.291C282.463 212.955 280.471 213.287 278.146 213.287H273.518V210.006ZM273.518 214.459V211.207H278.146C280.861 211.207 283.107 211.529 284.885 212.174C286.662 212.818 288.059 213.678 289.074 214.752C290.109 215.826 290.832 217.008 291.242 218.297C291.672 219.566 291.887 220.836 291.887 222.105C291.887 224.098 291.545 225.865 290.861 227.408C290.197 228.951 289.25 230.26 288.02 231.334C286.809 232.408 285.383 233.219 283.742 233.766C282.102 234.312 280.314 234.586 278.381 234.586C276.525 234.586 274.777 234.322 273.137 233.795C271.516 233.268 270.08 232.506 268.83 231.51C267.58 230.494 266.604 229.254 265.9 227.789C265.197 226.305 264.846 224.615 264.846 222.721H270.266C270.266 224.205 270.588 225.504 271.232 226.617C271.896 227.73 272.834 228.6 274.045 229.225C275.275 229.83 276.721 230.133 278.381 230.133C280.041 230.133 281.467 229.85 282.658 229.283C283.869 228.697 284.797 227.818 285.441 226.646C286.105 225.475 286.438 224 286.438 222.223C286.438 220.445 286.066 218.99 285.324 217.857C284.582 216.705 283.527 215.855 282.16 215.309C280.812 214.742 279.221 214.459 277.385 214.459H273.518ZM328.186 219.645V224.098H297.365V220.904L316.467 191.344H320.891L316.145 199.898L303.518 219.645H328.186ZM322.238 191.344V234H316.818V191.344H322.238Z" fill="#C7C7C7"/>
<path d="M70.9834 724.992V735H69.7188V726.571L67.1689 727.501V726.359L70.7852 724.992H70.9834ZM77.7018 730.263L76.69 730.003L77.1891 725.047H82.2955V726.216H78.2623L77.9615 728.923C78.1438 728.818 78.374 728.72 78.652 728.629C78.9345 728.538 79.2581 728.492 79.6227 728.492C80.0829 728.492 80.4954 728.572 80.86 728.731C81.2245 728.886 81.5344 729.11 81.7896 729.401C82.0494 729.693 82.2477 730.044 82.3844 730.454C82.5211 730.864 82.5895 731.322 82.5895 731.828C82.5895 732.307 82.5234 732.746 82.3912 733.147C82.2636 733.549 82.0699 733.899 81.8102 734.2C81.5504 734.496 81.2223 734.727 80.8258 734.891C80.4339 735.055 79.9713 735.137 79.4381 735.137C79.037 735.137 78.6565 735.082 78.2965 734.973C77.941 734.859 77.622 734.688 77.3395 734.46C77.0615 734.228 76.8336 733.94 76.6559 733.599C76.4827 733.252 76.3733 732.847 76.3277 732.382H77.5309C77.5855 732.756 77.6949 733.07 77.859 733.325C78.023 733.58 78.2372 733.774 78.5016 733.906C78.7704 734.034 79.0826 734.098 79.4381 734.098C79.7389 734.098 80.0055 734.045 80.2379 733.94C80.4703 733.836 80.6663 733.685 80.8258 733.489C80.9853 733.293 81.1061 733.056 81.1881 732.778C81.2747 732.5 81.318 732.188 81.318 731.842C81.318 731.527 81.2747 731.236 81.1881 730.967C81.1015 730.698 80.9716 730.463 80.7984 730.263C80.6298 730.062 80.4225 729.907 80.1764 729.798C79.9303 729.684 79.6477 729.627 79.3287 729.627C78.9049 729.627 78.5836 729.684 78.3648 729.798C78.1507 729.912 77.9296 730.067 77.7018 730.263Z" fill="#909090"/>
<path d="M117.106 724.992V735H115.841V726.571L113.291 727.501V726.359L116.908 724.992H117.106ZM127.078 725.033H127.187V726.106H127.078C126.408 726.106 125.848 726.216 125.396 726.435C124.945 726.649 124.588 726.938 124.323 727.303C124.059 727.663 123.868 728.068 123.749 728.52C123.635 728.971 123.578 729.429 123.578 729.894V731.356C123.578 731.799 123.631 732.19 123.735 732.532C123.84 732.869 123.984 733.154 124.166 733.387C124.348 733.619 124.553 733.795 124.781 733.913C125.014 734.032 125.255 734.091 125.506 734.091C125.798 734.091 126.057 734.036 126.285 733.927C126.513 733.813 126.704 733.656 126.859 733.455C127.019 733.25 127.14 733.008 127.222 732.73C127.304 732.452 127.345 732.147 127.345 731.814C127.345 731.518 127.308 731.233 127.235 730.96C127.162 730.682 127.051 730.436 126.9 730.222C126.75 730.003 126.561 729.832 126.333 729.709C126.11 729.581 125.843 729.518 125.533 729.518C125.182 729.518 124.854 729.604 124.549 729.777C124.248 729.946 124 730.169 123.804 730.447C123.612 730.721 123.503 731.019 123.476 731.343L122.806 731.336C122.869 730.826 122.988 730.39 123.161 730.03C123.339 729.666 123.558 729.369 123.817 729.142C124.082 728.909 124.376 728.741 124.699 728.636C125.027 728.526 125.374 728.472 125.738 728.472C126.235 728.472 126.663 728.565 127.023 728.752C127.383 728.939 127.68 729.189 127.912 729.504C128.145 729.814 128.315 730.165 128.425 730.557C128.539 730.944 128.596 731.343 128.596 731.753C128.596 732.222 128.53 732.662 128.397 733.072C128.265 733.482 128.067 733.842 127.803 734.152C127.543 734.462 127.222 734.704 126.839 734.877C126.456 735.05 126.012 735.137 125.506 735.137C124.968 735.137 124.499 735.027 124.098 734.809C123.697 734.585 123.364 734.289 123.1 733.92C122.835 733.551 122.637 733.141 122.505 732.689C122.373 732.238 122.307 731.78 122.307 731.315V730.721C122.307 730.019 122.377 729.331 122.519 728.656C122.66 727.982 122.904 727.371 123.25 726.824C123.601 726.277 124.086 725.842 124.706 725.519C125.326 725.195 126.117 725.033 127.078 725.033Z" fill="#909090"/>
<path d="M163.228 724.992V735H161.964V726.571L159.414 727.501V726.359L163.03 724.992H163.228ZM174.78 725.047V725.758L170.658 735H169.325L173.44 726.086H168.053V725.047H174.78Z" fill="#909090"/>
<path d="M209.266 723.602V735H207.016V726.195L204.312 727.055V725.281L209.023 723.602H209.266ZM222.233 731.883C222.233 732.596 222.066 733.198 221.733 733.688C221.399 734.172 220.941 734.539 220.358 734.789C219.78 735.034 219.123 735.156 218.389 735.156C217.655 735.156 216.996 735.034 216.413 734.789C215.829 734.539 215.368 734.172 215.03 733.688C214.691 733.198 214.522 732.596 214.522 731.883C214.522 731.404 214.618 730.971 214.811 730.586C215.004 730.195 215.272 729.862 215.616 729.586C215.965 729.305 216.373 729.091 216.842 728.945C217.311 728.794 217.821 728.719 218.373 728.719C219.113 728.719 219.774 728.849 220.358 729.109C220.941 729.37 221.399 729.737 221.733 730.211C222.066 730.685 222.233 731.242 222.233 731.883ZM219.967 731.734C219.967 731.385 219.899 731.086 219.764 730.836C219.634 730.581 219.449 730.385 219.209 730.25C218.97 730.115 218.691 730.047 218.373 730.047C218.056 730.047 217.777 730.115 217.538 730.25C217.298 730.385 217.11 730.581 216.975 730.836C216.845 731.086 216.78 731.385 216.78 731.734C216.78 732.078 216.845 732.375 216.975 732.625C217.11 732.875 217.298 733.068 217.538 733.203C217.782 733.333 218.066 733.398 218.389 733.398C218.712 733.398 218.991 733.333 219.225 733.203C219.465 733.068 219.647 732.875 219.772 732.625C219.902 732.375 219.967 732.078 219.967 731.734ZM221.991 726.641C221.991 727.219 221.837 727.732 221.53 728.18C221.222 728.622 220.795 728.969 220.248 729.219C219.707 729.469 219.087 729.594 218.389 729.594C217.686 729.594 217.061 729.469 216.514 729.219C215.967 728.969 215.54 728.622 215.233 728.18C214.926 727.732 214.772 727.219 214.772 726.641C214.772 725.953 214.926 725.375 215.233 724.906C215.545 724.432 215.972 724.073 216.514 723.828C217.061 723.583 217.681 723.461 218.373 723.461C219.077 723.461 219.699 723.583 220.241 723.828C220.788 724.073 221.215 724.432 221.522 724.906C221.834 725.375 221.991 725.953 221.991 726.641ZM219.741 726.742C219.741 726.435 219.686 726.169 219.577 725.945C219.467 725.716 219.311 725.539 219.108 725.414C218.91 725.289 218.665 725.227 218.373 725.227C218.092 725.227 217.85 725.286 217.647 725.406C217.449 725.526 217.295 725.701 217.186 725.93C217.082 726.154 217.03 726.424 217.03 726.742C217.03 727.049 217.082 727.32 217.186 727.555C217.295 727.784 217.452 727.964 217.655 728.094C217.858 728.224 218.103 728.289 218.389 728.289C218.676 728.289 218.918 728.224 219.116 728.094C219.319 727.964 219.472 727.784 219.577 727.555C219.686 727.32 219.741 727.049 219.741 726.742Z" fill="#C7C7C7"/>
<path d="M255.473 724.992V735H254.209V726.571L251.659 727.501V726.359L255.275 724.992H255.473ZM261.85 733.94H261.98C262.709 733.94 263.301 733.838 263.757 733.633C264.213 733.428 264.564 733.152 264.81 732.806C265.056 732.459 265.224 732.07 265.316 731.637C265.407 731.199 265.452 730.75 265.452 730.29V728.766C265.452 728.314 265.4 727.913 265.295 727.562C265.195 727.212 265.054 726.918 264.871 726.681C264.694 726.444 264.491 726.264 264.263 726.141C264.035 726.018 263.793 725.956 263.538 725.956C263.247 725.956 262.985 726.015 262.752 726.134C262.524 726.248 262.331 726.41 262.171 726.619C262.016 726.829 261.898 727.075 261.816 727.357C261.734 727.64 261.693 727.948 261.693 728.28C261.693 728.576 261.729 728.864 261.802 729.142C261.875 729.42 261.986 729.67 262.137 729.894C262.287 730.117 262.474 730.295 262.697 730.427C262.925 730.554 263.192 730.618 263.497 730.618C263.78 730.618 264.044 730.563 264.29 730.454C264.541 730.34 264.762 730.188 264.953 729.996C265.149 729.8 265.304 729.579 265.418 729.333C265.537 729.087 265.605 728.829 265.623 728.561H266.225C266.225 728.939 266.15 729.312 265.999 729.682C265.853 730.046 265.648 730.379 265.384 730.68C265.12 730.98 264.81 731.222 264.454 731.404C264.099 731.582 263.711 731.671 263.292 731.671C262.8 731.671 262.374 731.575 262.014 731.384C261.654 731.192 261.358 730.937 261.125 730.618C260.897 730.299 260.726 729.944 260.612 729.552C260.503 729.155 260.448 728.754 260.448 728.349C260.448 727.875 260.514 727.43 260.647 727.016C260.779 726.601 260.975 726.236 261.235 725.922C261.494 725.603 261.816 725.354 262.198 725.177C262.586 724.999 263.032 724.91 263.538 724.91C264.108 724.91 264.593 725.024 264.994 725.252C265.395 725.48 265.721 725.785 265.972 726.168C266.227 726.551 266.414 726.981 266.532 727.46C266.651 727.938 266.71 728.431 266.71 728.937V729.395C266.71 729.91 266.676 730.434 266.608 730.967C266.544 731.495 266.418 732.001 266.232 732.484C266.049 732.967 265.783 733.4 265.432 733.783C265.081 734.161 264.623 734.462 264.058 734.686C263.497 734.904 262.805 735.014 261.98 735.014H261.85V733.94Z" fill="#909090"/>
<path d="M303.961 733.961V735H297.446V734.091L300.707 730.461C301.108 730.014 301.418 729.636 301.637 729.326C301.86 729.012 302.015 728.731 302.102 728.485C302.193 728.235 302.238 727.979 302.238 727.72C302.238 727.392 302.17 727.095 302.033 726.831C301.901 726.562 301.705 726.348 301.445 726.188C301.186 726.029 300.871 725.949 300.502 725.949C300.06 725.949 299.691 726.036 299.394 726.209C299.103 726.378 298.884 726.615 298.738 726.92C298.592 727.225 298.519 727.576 298.519 727.973H297.255C297.255 727.412 297.378 726.899 297.624 726.435C297.87 725.97 298.235 725.601 298.718 725.327C299.201 725.049 299.796 724.91 300.502 724.91C301.131 724.91 301.669 725.022 302.115 725.245C302.562 725.464 302.904 725.774 303.141 726.175C303.382 726.571 303.503 727.036 303.503 727.569C303.503 727.861 303.453 728.157 303.352 728.458C303.257 728.754 303.122 729.05 302.949 729.347C302.781 729.643 302.582 729.935 302.354 730.222C302.131 730.509 301.892 730.791 301.637 731.069L298.971 733.961H303.961ZM312.962 729.23V730.748C312.962 731.564 312.89 732.252 312.744 732.812C312.598 733.373 312.388 733.824 312.115 734.166C311.841 734.508 311.511 734.756 311.124 734.911C310.741 735.062 310.308 735.137 309.825 735.137C309.442 735.137 309.089 735.089 308.765 734.993C308.442 734.897 308.15 734.745 307.89 734.535C307.635 734.321 307.416 734.043 307.234 733.701C307.052 733.359 306.913 732.945 306.817 732.457C306.721 731.969 306.673 731.4 306.673 730.748V729.23C306.673 728.415 306.746 727.731 306.892 727.18C307.043 726.628 307.254 726.186 307.528 725.854C307.801 725.516 308.129 725.275 308.512 725.129C308.9 724.983 309.333 724.91 309.811 724.91C310.198 724.91 310.554 724.958 310.877 725.054C311.206 725.145 311.497 725.293 311.752 725.498C312.008 725.699 312.224 725.967 312.402 726.305C312.584 726.637 312.723 727.045 312.819 727.528C312.915 728.011 312.962 728.579 312.962 729.23ZM311.691 730.953V729.019C311.691 728.572 311.664 728.18 311.609 727.843C311.559 727.501 311.484 727.209 311.383 726.968C311.283 726.726 311.155 726.53 311.001 726.38C310.85 726.229 310.675 726.12 310.474 726.052C310.278 725.979 310.057 725.942 309.811 725.942C309.51 725.942 309.244 725.999 309.011 726.113C308.779 726.223 308.583 726.398 308.423 726.64C308.268 726.881 308.15 727.198 308.068 727.59C307.986 727.982 307.945 728.458 307.945 729.019V730.953C307.945 731.4 307.97 731.794 308.02 732.136C308.075 732.478 308.155 732.774 308.259 733.024C308.364 733.271 308.492 733.473 308.642 733.633C308.793 733.792 308.966 733.911 309.162 733.988C309.362 734.061 309.583 734.098 309.825 734.098C310.135 734.098 310.406 734.038 310.638 733.92C310.871 733.801 311.064 733.617 311.219 733.366C311.379 733.111 311.497 732.785 311.575 732.389C311.652 731.988 311.691 731.509 311.691 730.953Z" fill="#909090"/>
<path d="M350.083 733.961V735H343.569V734.091L346.829 730.461C347.23 730.014 347.54 729.636 347.759 729.326C347.982 729.012 348.137 728.731 348.224 728.485C348.315 728.235 348.361 727.979 348.361 727.72C348.361 727.392 348.292 727.095 348.156 726.831C348.023 726.562 347.827 726.348 347.568 726.188C347.308 726.029 346.993 725.949 346.624 725.949C346.182 725.949 345.813 726.036 345.517 726.209C345.225 726.378 345.007 726.615 344.861 726.92C344.715 727.225 344.642 727.576 344.642 727.973H343.377C343.377 727.412 343.5 726.899 343.746 726.435C343.993 725.97 344.357 725.601 344.84 725.327C345.323 725.049 345.918 724.91 346.624 724.91C347.253 724.91 347.791 725.022 348.238 725.245C348.684 725.464 349.026 725.774 349.263 726.175C349.505 726.571 349.625 727.036 349.625 727.569C349.625 727.861 349.575 728.157 349.475 728.458C349.379 728.754 349.245 729.05 349.072 729.347C348.903 729.643 348.705 729.935 348.477 730.222C348.254 730.509 348.014 730.791 347.759 731.069L345.093 733.961H350.083ZM356.993 724.992V735H355.728V726.571L353.179 727.501V726.359L356.795 724.992H356.993Z" fill="#909090"/>
<path d="M378 213C378 303.575 304.575 377 214 377C123.425 377 50 303.575 50 213C50 122.425 123.425 49 214 49C304.575 49 378 122.425 378 213ZM66.4 213C66.4 294.517 132.483 360.6 214 360.6C295.517 360.6 361.6 294.517 361.6 213C361.6 131.483 295.517 65.4 214 65.4C132.483 65.4 66.4 131.483 66.4 213Z" fill="#373737"/>
<path d="M214 57.2C214 52.6713 217.674 48.9786 222.197 49.2049C249.583 50.5752 276.236 58.7945 299.69 73.167C325.478 88.9701 346.394 111.597 360.125 138.546C373.856 165.494 379.867 195.715 377.494 225.867C375.336 253.29 366.319 279.684 351.331 302.645C348.855 306.437 343.709 307.239 340.045 304.577C336.381 301.915 335.59 296.798 338.044 292.992C351.267 272.489 359.224 248.987 361.145 224.581C363.281 197.444 357.871 170.245 345.513 145.991C333.155 121.737 314.33 101.373 291.121 87.1503C270.246 74.3583 246.556 66.9823 222.196 65.6277C217.674 65.3763 214 61.7287 214 57.2Z" fill="#45D865"/>
<rect x="112" y="558" width="203" height="45" rx="22.5" stroke="#58DC75" stroke-width="2"/>
<path d="M186.567 583.4V585H181.27V583.4H186.567ZM181.939 575.047V585H179.889V575.047H181.939ZM185.877 579.101V580.659H181.27V579.101H185.877ZM186.561 575.047V576.653H181.27V575.047H186.561ZM196.564 575.047V585H194.513L190.514 578.328V585H188.464V575.047H190.514L194.52 581.726V575.047H196.564ZM202.104 585H199.937L199.951 583.4H202.104C202.642 583.4 203.095 583.28 203.464 583.038C203.834 582.792 204.112 582.434 204.298 581.965C204.49 581.495 204.586 580.928 204.586 580.263V579.777C204.586 579.267 204.531 578.818 204.421 578.431C204.317 578.043 204.159 577.717 203.95 577.453C203.74 577.189 203.483 576.991 203.177 576.858C202.872 576.722 202.521 576.653 202.125 576.653H199.896V575.047H202.125C202.79 575.047 203.398 575.161 203.95 575.389C204.506 575.612 204.987 575.933 205.392 576.353C205.798 576.772 206.11 577.273 206.329 577.856C206.552 578.435 206.664 579.08 206.664 579.791V580.263C206.664 580.969 206.552 581.614 206.329 582.197C206.11 582.781 205.798 583.282 205.392 583.701C204.991 584.116 204.51 584.437 203.95 584.665C203.394 584.888 202.779 585 202.104 585ZM201.099 575.047V585H199.048V575.047H201.099ZM215.091 575.047V585H213.04V575.047H215.091ZM219.056 579.299V580.898H214.53V579.299H219.056ZM219.534 575.047V576.653H214.53V575.047H219.534ZM224.213 576.749L221.506 585H219.325L223.023 575.047H224.411L224.213 576.749ZM226.462 585L223.748 576.749L223.529 575.047H224.931L228.649 585H226.462ZM226.339 581.295V582.901H221.082V581.295H226.339ZM235.454 582.396C235.454 582.218 235.427 582.058 235.372 581.917C235.322 581.771 235.226 581.639 235.085 581.521C234.943 581.397 234.745 581.277 234.49 581.158C234.235 581.04 233.904 580.917 233.499 580.789C233.048 580.643 232.619 580.479 232.214 580.297C231.813 580.115 231.457 579.903 231.147 579.661C230.842 579.415 230.6 579.13 230.423 578.807C230.249 578.483 230.163 578.107 230.163 577.679C230.163 577.264 230.254 576.888 230.436 576.551C230.619 576.209 230.874 575.917 231.202 575.676C231.53 575.43 231.917 575.241 232.364 575.108C232.815 574.976 233.31 574.91 233.847 574.91C234.581 574.91 235.221 575.042 235.768 575.307C236.315 575.571 236.739 575.933 237.04 576.394C237.345 576.854 237.498 577.38 237.498 577.973H235.461C235.461 577.681 235.399 577.426 235.276 577.207C235.158 576.984 234.975 576.808 234.729 576.681C234.488 576.553 234.182 576.489 233.813 576.489C233.458 576.489 233.162 576.544 232.925 576.653C232.688 576.758 232.51 576.902 232.391 577.084C232.273 577.262 232.214 577.462 232.214 577.686C232.214 577.854 232.255 578.007 232.337 578.144C232.423 578.28 232.551 578.408 232.72 578.526C232.888 578.645 233.096 578.757 233.342 578.861C233.588 578.966 233.873 579.069 234.196 579.169C234.738 579.333 235.215 579.518 235.625 579.723C236.04 579.928 236.386 580.158 236.664 580.413C236.942 580.668 237.151 580.958 237.293 581.281C237.434 581.605 237.505 581.972 237.505 582.382C237.505 582.815 237.42 583.202 237.252 583.544C237.083 583.886 236.839 584.175 236.52 584.412C236.201 584.649 235.821 584.829 235.379 584.952C234.937 585.075 234.442 585.137 233.895 585.137C233.403 585.137 232.918 585.073 232.439 584.945C231.961 584.813 231.526 584.615 231.134 584.351C230.746 584.086 230.436 583.749 230.204 583.339C229.971 582.929 229.855 582.443 229.855 581.883H231.913C231.913 582.193 231.961 582.455 232.056 582.669C232.152 582.883 232.287 583.056 232.46 583.188C232.638 583.321 232.847 583.416 233.089 583.476C233.335 583.535 233.604 583.564 233.895 583.564C234.251 583.564 234.542 583.514 234.77 583.414C235.003 583.314 235.174 583.175 235.283 582.997C235.397 582.819 235.454 582.619 235.454 582.396ZM244.049 575.047V585H242.005V575.047H244.049ZM247.112 575.047V576.653H238.991V575.047H247.112Z" fill="#58DC75"/>
<path d="M61.0703 455.396C61.0703 455.218 61.043 455.058 60.9883 454.917C60.9382 454.771 60.8424 454.639 60.7012 454.521C60.5599 454.397 60.3617 454.277 60.1064 454.158C59.8512 454.04 59.5208 453.917 59.1152 453.789C58.6641 453.643 58.2357 453.479 57.8301 453.297C57.429 453.115 57.0736 452.903 56.7637 452.661C56.4583 452.415 56.2168 452.13 56.0391 451.807C55.8659 451.483 55.7793 451.107 55.7793 450.679C55.7793 450.264 55.8704 449.888 56.0527 449.551C56.235 449.209 56.4902 448.917 56.8184 448.676C57.1465 448.43 57.5339 448.241 57.9805 448.108C58.4316 447.976 58.9261 447.91 59.4639 447.91C60.1976 447.91 60.8379 448.042 61.3848 448.307C61.9316 448.571 62.3555 448.933 62.6562 449.394C62.9616 449.854 63.1143 450.38 63.1143 450.973H61.0771C61.0771 450.681 61.0156 450.426 60.8926 450.207C60.7741 449.984 60.5918 449.808 60.3457 449.681C60.1042 449.553 59.7988 449.489 59.4297 449.489C59.0742 449.489 58.778 449.544 58.541 449.653C58.304 449.758 58.1263 449.902 58.0078 450.084C57.8893 450.262 57.8301 450.462 57.8301 450.686C57.8301 450.854 57.8711 451.007 57.9531 451.144C58.0397 451.28 58.1673 451.408 58.3359 451.526C58.5046 451.645 58.7119 451.757 58.958 451.861C59.2041 451.966 59.4889 452.069 59.8125 452.169C60.3548 452.333 60.8311 452.518 61.2412 452.723C61.6559 452.928 62.0023 453.158 62.2803 453.413C62.5583 453.668 62.7679 453.958 62.9092 454.281C63.0505 454.605 63.1211 454.972 63.1211 455.382C63.1211 455.815 63.0368 456.202 62.8682 456.544C62.6995 456.886 62.4557 457.175 62.1367 457.412C61.8177 457.649 61.4372 457.829 60.9951 457.952C60.5531 458.075 60.0586 458.137 59.5117 458.137C59.0195 458.137 58.5342 458.073 58.0557 457.945C57.5771 457.813 57.1419 457.615 56.75 457.351C56.3626 457.086 56.0527 456.749 55.8203 456.339C55.5879 455.929 55.4717 455.443 55.4717 454.883H57.5293C57.5293 455.193 57.5771 455.455 57.6729 455.669C57.7686 455.883 57.903 456.056 58.0762 456.188C58.2539 456.321 58.4635 456.416 58.7051 456.476C58.9512 456.535 59.2201 456.564 59.5117 456.564C59.8672 456.564 60.1589 456.514 60.3867 456.414C60.6191 456.314 60.79 456.175 60.8994 455.997C61.0133 455.819 61.0703 455.619 61.0703 455.396ZM68.9658 448.047V458H66.9219V448.047H68.9658ZM72.0283 448.047V449.653H63.9072V448.047H72.0283ZM76.5059 449.749L73.7988 458H71.6182L75.3164 448.047H76.7041L76.5059 449.749ZM78.7549 458L76.041 449.749L75.8223 448.047H77.2236L80.9424 458H78.7549ZM78.6318 454.295V455.901H73.375V454.295H78.6318ZM81.8652 448.047H85.5771C86.3382 448.047 86.9922 448.161 87.5391 448.389C88.0905 448.617 88.5143 448.954 88.8105 449.4C89.1068 449.847 89.2549 450.396 89.2549 451.048C89.2549 451.581 89.1637 452.039 88.9814 452.422C88.8037 452.8 88.5508 453.117 88.2227 453.372C87.8991 453.623 87.5186 453.823 87.0811 453.974L86.4316 454.315H83.2051L83.1914 452.716H85.5908C85.9508 452.716 86.2493 452.652 86.4863 452.524C86.7233 452.397 86.901 452.219 87.0195 451.991C87.1426 451.763 87.2041 451.499 87.2041 451.198C87.2041 450.879 87.1449 450.604 87.0264 450.371C86.9079 450.139 86.7279 449.961 86.4863 449.838C86.2448 449.715 85.9417 449.653 85.5771 449.653H83.916V458H81.8652V448.047ZM87.4297 458L85.1602 453.563L87.3271 453.55L89.624 457.904V458H87.4297ZM94.874 448.047V458H92.8301V448.047H94.874ZM97.9365 448.047V449.653H89.8154V448.047H97.9365ZM105.784 456.4V458H100.486V456.4H105.784ZM101.156 448.047V458H99.1055V448.047H101.156ZM105.094 452.101V453.659H100.486V452.101H105.094ZM105.777 448.047V449.653H100.486V448.047H105.777ZM110.036 458H107.869L107.883 456.4H110.036C110.574 456.4 111.027 456.28 111.396 456.038C111.766 455.792 112.044 455.434 112.23 454.965C112.422 454.495 112.518 453.928 112.518 453.263V452.777C112.518 452.267 112.463 451.818 112.354 451.431C112.249 451.043 112.091 450.717 111.882 450.453C111.672 450.189 111.415 449.991 111.109 449.858C110.804 449.722 110.453 449.653 110.057 449.653H107.828V448.047H110.057C110.722 448.047 111.33 448.161 111.882 448.389C112.438 448.612 112.919 448.933 113.324 449.353C113.73 449.772 114.042 450.273 114.261 450.856C114.484 451.435 114.596 452.08 114.596 452.791V453.263C114.596 453.969 114.484 454.614 114.261 455.197C114.042 455.781 113.73 456.282 113.324 456.701C112.923 457.116 112.442 457.437 111.882 457.665C111.326 457.888 110.711 458 110.036 458ZM109.031 448.047V458H106.98V448.047H109.031Z" fill="#808080"/>
<path d="M138.833 448.047V458H137.534V448.047H138.833ZM142.032 448.047V449.127H134.342V448.047H142.032ZM142.299 454.384V454.227C142.299 453.693 142.376 453.199 142.531 452.743C142.686 452.283 142.91 451.884 143.201 451.547C143.493 451.205 143.846 450.941 144.261 450.754C144.675 450.562 145.14 450.467 145.655 450.467C146.175 450.467 146.642 450.562 147.057 450.754C147.476 450.941 147.831 451.205 148.123 451.547C148.419 451.884 148.645 452.283 148.8 452.743C148.955 453.199 149.032 453.693 149.032 454.227V454.384C149.032 454.917 148.955 455.411 148.8 455.867C148.645 456.323 148.419 456.722 148.123 457.063C147.831 457.401 147.478 457.665 147.063 457.856C146.653 458.043 146.188 458.137 145.669 458.137C145.149 458.137 144.682 458.043 144.268 457.856C143.853 457.665 143.497 457.401 143.201 457.063C142.91 456.722 142.686 456.323 142.531 455.867C142.376 455.411 142.299 454.917 142.299 454.384ZM143.563 454.227V454.384C143.563 454.753 143.607 455.102 143.693 455.43C143.78 455.753 143.91 456.04 144.083 456.291C144.261 456.542 144.482 456.74 144.746 456.886C145.01 457.027 145.318 457.098 145.669 457.098C146.015 457.098 146.318 457.027 146.578 456.886C146.842 456.74 147.061 456.542 147.234 456.291C147.408 456.04 147.537 455.753 147.624 455.43C147.715 455.102 147.761 454.753 147.761 454.384V454.227C147.761 453.862 147.715 453.518 147.624 453.194C147.537 452.866 147.405 452.577 147.228 452.326C147.054 452.071 146.836 451.87 146.571 451.725C146.312 451.579 146.006 451.506 145.655 451.506C145.309 451.506 145.004 451.579 144.739 451.725C144.479 451.87 144.261 452.071 144.083 452.326C143.91 452.577 143.78 452.866 143.693 453.194C143.607 453.518 143.563 453.862 143.563 454.227ZM155.28 456.564V447.5H156.552V458H155.39L155.28 456.564ZM150.304 454.384V454.24C150.304 453.675 150.372 453.162 150.509 452.702C150.65 452.237 150.848 451.839 151.104 451.506C151.363 451.173 151.671 450.918 152.026 450.74C152.386 450.558 152.787 450.467 153.229 450.467C153.694 450.467 154.1 450.549 154.446 450.713C154.797 450.872 155.093 451.107 155.335 451.417C155.581 451.722 155.775 452.091 155.916 452.524C156.057 452.957 156.155 453.447 156.21 453.994V454.623C156.16 455.165 156.062 455.653 155.916 456.086C155.775 456.519 155.581 456.888 155.335 457.193C155.093 457.499 154.797 457.733 154.446 457.897C154.095 458.057 153.685 458.137 153.216 458.137C152.783 458.137 152.386 458.043 152.026 457.856C151.671 457.67 151.363 457.408 151.104 457.07C150.848 456.733 150.65 456.337 150.509 455.881C150.372 455.421 150.304 454.922 150.304 454.384ZM151.575 454.24V454.384C151.575 454.753 151.612 455.099 151.685 455.423C151.762 455.746 151.881 456.031 152.04 456.277C152.2 456.523 152.402 456.717 152.648 456.858C152.895 456.995 153.188 457.063 153.53 457.063C153.95 457.063 154.294 456.975 154.562 456.797C154.836 456.619 155.055 456.384 155.219 456.093C155.383 455.801 155.51 455.484 155.602 455.143V453.495C155.547 453.244 155.467 453.003 155.362 452.771C155.262 452.534 155.13 452.324 154.966 452.142C154.806 451.955 154.608 451.807 154.371 451.697C154.139 451.588 153.863 451.533 153.544 451.533C153.198 451.533 152.899 451.606 152.648 451.752C152.402 451.893 152.2 452.089 152.04 452.34C151.881 452.586 151.762 452.873 151.685 453.201C151.612 453.525 151.575 453.871 151.575 454.24ZM162.882 456.735V452.928C162.882 452.636 162.823 452.383 162.704 452.169C162.59 451.95 162.417 451.782 162.185 451.663C161.952 451.545 161.665 451.485 161.323 451.485C161.004 451.485 160.724 451.54 160.482 451.649C160.245 451.759 160.059 451.902 159.922 452.08C159.79 452.258 159.724 452.449 159.724 452.654H158.459C158.459 452.39 158.527 452.128 158.664 451.868C158.801 451.608 158.997 451.374 159.252 451.164C159.512 450.95 159.822 450.781 160.182 450.658C160.546 450.531 160.952 450.467 161.398 450.467C161.936 450.467 162.41 450.558 162.82 450.74C163.235 450.923 163.559 451.198 163.791 451.567C164.028 451.932 164.146 452.39 164.146 452.941V456.387C164.146 456.633 164.167 456.895 164.208 457.173C164.254 457.451 164.32 457.69 164.406 457.891V458H163.087C163.023 457.854 162.973 457.66 162.937 457.419C162.9 457.173 162.882 456.945 162.882 456.735ZM163.101 453.516L163.114 454.404H161.836C161.476 454.404 161.155 454.434 160.872 454.493C160.59 454.548 160.353 454.632 160.161 454.746C159.97 454.86 159.824 455.004 159.724 455.177C159.623 455.345 159.573 455.544 159.573 455.771C159.573 456.004 159.626 456.216 159.73 456.407C159.835 456.599 159.993 456.751 160.202 456.865C160.416 456.975 160.678 457.029 160.988 457.029C161.376 457.029 161.717 456.947 162.014 456.783C162.31 456.619 162.545 456.419 162.718 456.182C162.896 455.945 162.991 455.715 163.005 455.491L163.545 456.1C163.513 456.291 163.426 456.503 163.285 456.735C163.144 456.968 162.955 457.191 162.718 457.405C162.485 457.615 162.207 457.79 161.884 457.932C161.565 458.068 161.205 458.137 160.804 458.137C160.302 458.137 159.863 458.039 159.484 457.843C159.111 457.647 158.819 457.385 158.609 457.057C158.404 456.724 158.302 456.353 158.302 455.942C158.302 455.546 158.379 455.197 158.534 454.896C158.689 454.591 158.912 454.338 159.204 454.138C159.496 453.933 159.847 453.778 160.257 453.673C160.667 453.568 161.125 453.516 161.631 453.516H163.101ZM168.104 457.234L170.162 450.604H171.516L168.549 459.142C168.48 459.324 168.389 459.52 168.275 459.729C168.166 459.944 168.025 460.146 167.852 460.338C167.678 460.529 167.469 460.684 167.223 460.803C166.981 460.926 166.692 460.987 166.354 460.987C166.254 460.987 166.127 460.974 165.972 460.946C165.817 460.919 165.707 460.896 165.644 460.878L165.637 459.853C165.673 459.857 165.73 459.862 165.808 459.866C165.89 459.875 165.947 459.88 165.979 459.88C166.266 459.88 166.509 459.841 166.71 459.764C166.91 459.691 167.079 459.565 167.216 459.388C167.357 459.215 167.478 458.975 167.578 458.67L168.104 457.234ZM166.594 450.604L168.515 456.346L168.843 457.679L167.934 458.144L165.213 450.604H166.594ZM173.067 456.496V457.515C173.067 457.929 172.963 458.367 172.753 458.827C172.543 459.292 172.249 459.679 171.871 459.989L171.153 459.49C171.299 459.29 171.422 459.085 171.522 458.875C171.623 458.67 171.698 458.456 171.748 458.232C171.803 458.014 171.83 457.781 171.83 457.535V456.496H173.067ZM182.173 447.992V458H180.908V449.571L178.358 450.501V449.359L181.975 447.992H182.173ZM192.413 456.961V458H185.898V457.091L189.159 453.461C189.56 453.014 189.87 452.636 190.089 452.326C190.312 452.012 190.467 451.731 190.554 451.485C190.645 451.235 190.69 450.979 190.69 450.72C190.69 450.392 190.622 450.095 190.485 449.831C190.353 449.562 190.157 449.348 189.897 449.188C189.638 449.029 189.323 448.949 188.954 448.949C188.512 448.949 188.143 449.036 187.847 449.209C187.555 449.378 187.336 449.615 187.19 449.92C187.045 450.225 186.972 450.576 186.972 450.973H185.707C185.707 450.412 185.83 449.899 186.076 449.435C186.322 448.97 186.687 448.601 187.17 448.327C187.653 448.049 188.248 447.91 188.954 447.91C189.583 447.91 190.121 448.022 190.567 448.245C191.014 448.464 191.356 448.774 191.593 449.175C191.834 449.571 191.955 450.036 191.955 450.569C191.955 450.861 191.905 451.157 191.805 451.458C191.709 451.754 191.575 452.05 191.401 452.347C191.233 452.643 191.035 452.935 190.807 453.222C190.583 453.509 190.344 453.791 190.089 454.069L187.423 456.961H192.413ZM193.849 457.33C193.849 457.116 193.915 456.936 194.047 456.79C194.184 456.64 194.38 456.564 194.635 456.564C194.89 456.564 195.084 456.64 195.216 456.79C195.353 456.936 195.421 457.116 195.421 457.33C195.421 457.54 195.353 457.717 195.216 457.863C195.084 458.009 194.89 458.082 194.635 458.082C194.38 458.082 194.184 458.009 194.047 457.863C193.915 457.717 193.849 457.54 193.849 457.33ZM193.855 451.294C193.855 451.08 193.922 450.9 194.054 450.754C194.19 450.604 194.386 450.528 194.642 450.528C194.897 450.528 195.09 450.604 195.223 450.754C195.359 450.9 195.428 451.08 195.428 451.294C195.428 451.504 195.359 451.681 195.223 451.827C195.09 451.973 194.897 452.046 194.642 452.046C194.386 452.046 194.19 451.973 194.054 451.827C193.922 451.681 193.855 451.504 193.855 451.294ZM198.757 453.263L197.745 453.003L198.244 448.047H203.351V449.216H199.317L199.017 451.923C199.199 451.818 199.429 451.72 199.707 451.629C199.99 451.538 200.313 451.492 200.678 451.492C201.138 451.492 201.55 451.572 201.915 451.731C202.28 451.886 202.59 452.11 202.845 452.401C203.104 452.693 203.303 453.044 203.439 453.454C203.576 453.864 203.645 454.322 203.645 454.828C203.645 455.307 203.578 455.746 203.446 456.147C203.319 456.549 203.125 456.899 202.865 457.2C202.605 457.496 202.277 457.727 201.881 457.891C201.489 458.055 201.026 458.137 200.493 458.137C200.092 458.137 199.712 458.082 199.352 457.973C198.996 457.859 198.677 457.688 198.395 457.46C198.117 457.228 197.889 456.94 197.711 456.599C197.538 456.252 197.428 455.847 197.383 455.382H198.586C198.641 455.756 198.75 456.07 198.914 456.325C199.078 456.58 199.292 456.774 199.557 456.906C199.826 457.034 200.138 457.098 200.493 457.098C200.794 457.098 201.061 457.045 201.293 456.94C201.525 456.836 201.721 456.685 201.881 456.489C202.04 456.293 202.161 456.056 202.243 455.778C202.33 455.5 202.373 455.188 202.373 454.842C202.373 454.527 202.33 454.236 202.243 453.967C202.157 453.698 202.027 453.463 201.854 453.263C201.685 453.062 201.478 452.907 201.231 452.798C200.985 452.684 200.703 452.627 200.384 452.627C199.96 452.627 199.639 452.684 199.42 452.798C199.206 452.912 198.985 453.067 198.757 453.263ZM211.308 455.307C211.308 455.913 211.166 456.428 210.884 456.852C210.606 457.271 210.228 457.59 209.749 457.809C209.275 458.027 208.74 458.137 208.143 458.137C207.546 458.137 207.008 458.027 206.529 457.809C206.051 457.59 205.673 457.271 205.395 456.852C205.117 456.428 204.978 455.913 204.978 455.307C204.978 454.91 205.053 454.548 205.203 454.22C205.358 453.887 205.575 453.598 205.853 453.352C206.135 453.105 206.468 452.916 206.851 452.784C207.238 452.647 207.664 452.579 208.129 452.579C208.74 452.579 209.284 452.698 209.763 452.935C210.241 453.167 210.617 453.488 210.891 453.898C211.169 454.309 211.308 454.778 211.308 455.307ZM210.036 455.279C210.036 454.91 209.956 454.584 209.797 454.302C209.637 454.015 209.414 453.791 209.127 453.632C208.84 453.472 208.507 453.393 208.129 453.393C207.742 453.393 207.407 453.472 207.124 453.632C206.846 453.791 206.63 454.015 206.475 454.302C206.32 454.584 206.242 454.91 206.242 455.279C206.242 455.662 206.317 455.99 206.468 456.264C206.623 456.533 206.841 456.74 207.124 456.886C207.411 457.027 207.751 457.098 208.143 457.098C208.535 457.098 208.872 457.027 209.154 456.886C209.437 456.74 209.653 456.533 209.804 456.264C209.959 455.99 210.036 455.662 210.036 455.279ZM211.075 450.638C211.075 451.121 210.948 451.556 210.692 451.943C210.437 452.331 210.089 452.636 209.646 452.859C209.204 453.083 208.703 453.194 208.143 453.194C207.573 453.194 207.065 453.083 206.618 452.859C206.176 452.636 205.83 452.331 205.579 451.943C205.328 451.556 205.203 451.121 205.203 450.638C205.203 450.059 205.328 449.567 205.579 449.161C205.834 448.756 206.183 448.446 206.625 448.231C207.067 448.017 207.571 447.91 208.136 447.91C208.705 447.91 209.211 448.017 209.653 448.231C210.095 448.446 210.442 448.756 210.692 449.161C210.948 449.567 211.075 450.059 211.075 450.638ZM209.811 450.658C209.811 450.326 209.74 450.032 209.599 449.776C209.457 449.521 209.261 449.321 209.011 449.175C208.76 449.024 208.468 448.949 208.136 448.949C207.803 448.949 207.511 449.02 207.261 449.161C207.015 449.298 206.821 449.494 206.68 449.749C206.543 450.004 206.475 450.307 206.475 450.658C206.475 451 206.543 451.299 206.68 451.554C206.821 451.809 207.017 452.007 207.268 452.148C207.518 452.29 207.81 452.36 208.143 452.36C208.475 452.36 208.765 452.29 209.011 452.148C209.261 452.007 209.457 451.809 209.599 451.554C209.74 451.299 209.811 451 209.811 450.658ZM217.781 452.025V460.844H216.51V450.604H217.672L217.781 452.025ZM222.765 454.24V454.384C222.765 454.922 222.701 455.421 222.573 455.881C222.446 456.337 222.259 456.733 222.013 457.07C221.771 457.408 221.473 457.67 221.117 457.856C220.762 458.043 220.354 458.137 219.894 458.137C219.424 458.137 219.009 458.059 218.649 457.904C218.289 457.749 217.984 457.524 217.733 457.228C217.483 456.931 217.282 456.576 217.132 456.161C216.986 455.746 216.886 455.279 216.831 454.76V453.994C216.886 453.447 216.988 452.957 217.139 452.524C217.289 452.091 217.487 451.722 217.733 451.417C217.984 451.107 218.287 450.872 218.643 450.713C218.998 450.549 219.408 450.467 219.873 450.467C220.338 450.467 220.75 450.558 221.11 450.74C221.47 450.918 221.773 451.173 222.02 451.506C222.266 451.839 222.45 452.237 222.573 452.702C222.701 453.162 222.765 453.675 222.765 454.24ZM221.493 454.384V454.24C221.493 453.871 221.454 453.525 221.377 453.201C221.299 452.873 221.179 452.586 221.015 452.34C220.855 452.089 220.65 451.893 220.399 451.752C220.149 451.606 219.85 451.533 219.504 451.533C219.185 451.533 218.907 451.588 218.67 451.697C218.438 451.807 218.239 451.955 218.075 452.142C217.911 452.324 217.777 452.534 217.672 452.771C217.572 453.003 217.496 453.244 217.446 453.495V455.266C217.537 455.585 217.665 455.885 217.829 456.168C217.993 456.446 218.212 456.672 218.485 456.845C218.759 457.013 219.103 457.098 219.518 457.098C219.859 457.098 220.153 457.027 220.399 456.886C220.65 456.74 220.855 456.542 221.015 456.291C221.179 456.04 221.299 455.753 221.377 455.43C221.454 455.102 221.493 454.753 221.493 454.384ZM225.636 452.073V458H224.364V450.604H225.567L225.636 452.073ZM225.376 454.021L224.788 454.001C224.793 453.495 224.859 453.028 224.986 452.6C225.114 452.167 225.303 451.791 225.554 451.472C225.804 451.153 226.117 450.907 226.49 450.733C226.864 450.556 227.297 450.467 227.789 450.467C228.135 450.467 228.454 450.517 228.746 450.617C229.038 450.713 229.291 450.866 229.505 451.075C229.719 451.285 229.885 451.554 230.004 451.882C230.122 452.21 230.182 452.606 230.182 453.071V458H228.917V453.133C228.917 452.745 228.851 452.436 228.719 452.203C228.591 451.971 228.409 451.802 228.172 451.697C227.935 451.588 227.657 451.533 227.338 451.533C226.964 451.533 226.652 451.599 226.401 451.731C226.151 451.864 225.95 452.046 225.8 452.278C225.649 452.511 225.54 452.777 225.472 453.078C225.408 453.374 225.376 453.689 225.376 454.021ZM230.168 453.324L229.32 453.584C229.325 453.178 229.391 452.789 229.519 452.415C229.651 452.041 229.84 451.709 230.086 451.417C230.337 451.125 230.644 450.895 231.009 450.727C231.373 450.553 231.79 450.467 232.26 450.467C232.656 450.467 233.007 450.519 233.312 450.624C233.622 450.729 233.882 450.891 234.092 451.109C234.306 451.324 234.468 451.599 234.577 451.937C234.687 452.274 234.741 452.675 234.741 453.14V458H233.47V453.126C233.47 452.711 233.404 452.39 233.271 452.162C233.144 451.93 232.962 451.768 232.725 451.677C232.492 451.581 232.214 451.533 231.891 451.533C231.613 451.533 231.367 451.581 231.152 451.677C230.938 451.772 230.758 451.905 230.612 452.073C230.466 452.237 230.355 452.426 230.277 452.641C230.204 452.855 230.168 453.083 230.168 453.324Z" fill="#BFBFBF"/>
<path d="M138.833 480.047V490H137.534V480.047H138.833ZM142.032 480.047V481.127H134.342V480.047H142.032ZM142.299 486.384V486.227C142.299 485.693 142.376 485.199 142.531 484.743C142.686 484.283 142.91 483.884 143.201 483.547C143.493 483.205 143.846 482.941 144.261 482.754C144.675 482.562 145.14 482.467 145.655 482.467C146.175 482.467 146.642 482.562 147.057 482.754C147.476 482.941 147.831 483.205 148.123 483.547C148.419 483.884 148.645 484.283 148.8 484.743C148.955 485.199 149.032 485.693 149.032 486.227V486.384C149.032 486.917 148.955 487.411 148.8 487.867C148.645 488.323 148.419 488.722 148.123 489.063C147.831 489.401 147.478 489.665 147.063 489.856C146.653 490.043 146.188 490.137 145.669 490.137C145.149 490.137 144.682 490.043 144.268 489.856C143.853 489.665 143.497 489.401 143.201 489.063C142.91 488.722 142.686 488.323 142.531 487.867C142.376 487.411 142.299 486.917 142.299 486.384ZM143.563 486.227V486.384C143.563 486.753 143.607 487.102 143.693 487.43C143.78 487.753 143.91 488.04 144.083 488.291C144.261 488.542 144.482 488.74 144.746 488.886C145.01 489.027 145.318 489.098 145.669 489.098C146.015 489.098 146.318 489.027 146.578 488.886C146.842 488.74 147.061 488.542 147.234 488.291C147.408 488.04 147.537 487.753 147.624 487.43C147.715 487.102 147.761 486.753 147.761 486.384V486.227C147.761 485.862 147.715 485.518 147.624 485.194C147.537 484.866 147.405 484.577 147.228 484.326C147.054 484.071 146.836 483.87 146.571 483.725C146.312 483.579 146.006 483.506 145.655 483.506C145.309 483.506 145.004 483.579 144.739 483.725C144.479 483.87 144.261 484.071 144.083 484.326C143.91 484.577 143.78 484.866 143.693 485.194C143.607 485.518 143.563 485.862 143.563 486.227ZM151.876 484.073V490H150.604V482.604H151.808L151.876 484.073ZM151.616 486.021L151.028 486.001C151.033 485.495 151.099 485.028 151.227 484.6C151.354 484.167 151.543 483.791 151.794 483.472C152.045 483.153 152.357 482.907 152.73 482.733C153.104 482.556 153.537 482.467 154.029 482.467C154.376 482.467 154.695 482.517 154.986 482.617C155.278 482.713 155.531 482.866 155.745 483.075C155.959 483.285 156.126 483.554 156.244 483.882C156.363 484.21 156.422 484.606 156.422 485.071V490H155.157V485.133C155.157 484.745 155.091 484.436 154.959 484.203C154.831 483.971 154.649 483.802 154.412 483.697C154.175 483.588 153.897 483.533 153.578 483.533C153.204 483.533 152.892 483.599 152.642 483.731C152.391 483.864 152.19 484.046 152.04 484.278C151.89 484.511 151.78 484.777 151.712 485.078C151.648 485.374 151.616 485.689 151.616 486.021ZM156.408 485.324L155.561 485.584C155.565 485.178 155.631 484.789 155.759 484.415C155.891 484.041 156.08 483.709 156.326 483.417C156.577 483.125 156.884 482.895 157.249 482.727C157.614 482.553 158.031 482.467 158.5 482.467C158.896 482.467 159.247 482.519 159.553 482.624C159.863 482.729 160.122 482.891 160.332 483.109C160.546 483.324 160.708 483.599 160.817 483.937C160.927 484.274 160.981 484.675 160.981 485.14V490H159.71V485.126C159.71 484.711 159.644 484.39 159.512 484.162C159.384 483.93 159.202 483.768 158.965 483.677C158.732 483.581 158.454 483.533 158.131 483.533C157.853 483.533 157.607 483.581 157.393 483.677C157.178 483.772 156.998 483.905 156.853 484.073C156.707 484.237 156.595 484.426 156.518 484.641C156.445 484.855 156.408 485.083 156.408 485.324ZM162.561 486.384V486.227C162.561 485.693 162.638 485.199 162.793 484.743C162.948 484.283 163.171 483.884 163.463 483.547C163.755 483.205 164.108 482.941 164.522 482.754C164.937 482.562 165.402 482.467 165.917 482.467C166.437 482.467 166.904 482.562 167.318 482.754C167.738 482.941 168.093 483.205 168.385 483.547C168.681 483.884 168.907 484.283 169.062 484.743C169.216 485.199 169.294 485.693 169.294 486.227V486.384C169.294 486.917 169.216 487.411 169.062 487.867C168.907 488.323 168.681 488.722 168.385 489.063C168.093 489.401 167.74 489.665 167.325 489.856C166.915 490.043 166.45 490.137 165.931 490.137C165.411 490.137 164.944 490.043 164.529 489.856C164.115 489.665 163.759 489.401 163.463 489.063C163.171 488.722 162.948 488.323 162.793 487.867C162.638 487.411 162.561 486.917 162.561 486.384ZM163.825 486.227V486.384C163.825 486.753 163.868 487.102 163.955 487.43C164.042 487.753 164.172 488.04 164.345 488.291C164.522 488.542 164.743 488.74 165.008 488.886C165.272 489.027 165.58 489.098 165.931 489.098C166.277 489.098 166.58 489.027 166.84 488.886C167.104 488.74 167.323 488.542 167.496 488.291C167.669 488.04 167.799 487.753 167.886 487.43C167.977 487.102 168.022 486.753 168.022 486.384V486.227C168.022 485.862 167.977 485.518 167.886 485.194C167.799 484.866 167.667 484.577 167.489 484.326C167.316 484.071 167.097 483.87 166.833 483.725C166.573 483.579 166.268 483.506 165.917 483.506C165.571 483.506 165.265 483.579 165.001 483.725C164.741 483.87 164.522 484.071 164.345 484.326C164.172 484.577 164.042 484.866 163.955 485.194C163.868 485.518 163.825 485.862 163.825 486.227ZM172.145 483.766V490H170.88V482.604H172.11L172.145 483.766ZM174.455 482.562L174.448 483.738C174.343 483.715 174.243 483.702 174.147 483.697C174.056 483.688 173.951 483.684 173.833 483.684C173.541 483.684 173.284 483.729 173.061 483.82C172.837 483.911 172.648 484.039 172.493 484.203C172.338 484.367 172.215 484.563 172.124 484.791C172.037 485.014 171.98 485.26 171.953 485.529L171.598 485.734C171.598 485.288 171.641 484.868 171.728 484.477C171.819 484.085 171.958 483.738 172.145 483.438C172.331 483.132 172.568 482.895 172.855 482.727C173.147 482.553 173.493 482.467 173.895 482.467C173.986 482.467 174.09 482.478 174.209 482.501C174.327 482.519 174.41 482.54 174.455 482.562ZM176.889 483.766V490H175.624V482.604H176.854L176.889 483.766ZM179.199 482.562L179.192 483.738C179.088 483.715 178.987 483.702 178.892 483.697C178.8 483.688 178.696 483.684 178.577 483.684C178.285 483.684 178.028 483.729 177.805 483.82C177.581 483.911 177.392 484.039 177.237 484.203C177.082 484.367 176.959 484.563 176.868 484.791C176.782 485.014 176.725 485.26 176.697 485.529L176.342 485.734C176.342 485.288 176.385 484.868 176.472 484.477C176.563 484.085 176.702 483.738 176.889 483.438C177.076 483.132 177.312 482.895 177.6 482.727C177.891 482.553 178.238 482.467 178.639 482.467C178.73 482.467 178.835 482.478 178.953 482.501C179.072 482.519 179.154 482.54 179.199 482.562ZM179.896 486.384V486.227C179.896 485.693 179.974 485.199 180.129 484.743C180.284 484.283 180.507 483.884 180.799 483.547C181.09 483.205 181.444 482.941 181.858 482.754C182.273 482.562 182.738 482.467 183.253 482.467C183.772 482.467 184.24 482.562 184.654 482.754C185.074 482.941 185.429 483.205 185.721 483.547C186.017 483.884 186.243 484.283 186.397 484.743C186.552 485.199 186.63 485.693 186.63 486.227V486.384C186.63 486.917 186.552 487.411 186.397 487.867C186.243 488.323 186.017 488.722 185.721 489.063C185.429 489.401 185.076 489.665 184.661 489.856C184.251 490.043 183.786 490.137 183.267 490.137C182.747 490.137 182.28 490.043 181.865 489.856C181.451 489.665 181.095 489.401 180.799 489.063C180.507 488.722 180.284 488.323 180.129 487.867C179.974 487.411 179.896 486.917 179.896 486.384ZM181.161 486.227V486.384C181.161 486.753 181.204 487.102 181.291 487.43C181.378 487.753 181.507 488.04 181.681 488.291C181.858 488.542 182.079 488.74 182.344 488.886C182.608 489.027 182.916 489.098 183.267 489.098C183.613 489.098 183.916 489.027 184.176 488.886C184.44 488.74 184.659 488.542 184.832 488.291C185.005 488.04 185.135 487.753 185.222 487.43C185.313 487.102 185.358 486.753 185.358 486.384V486.227C185.358 485.862 185.313 485.518 185.222 485.194C185.135 484.866 185.003 484.577 184.825 484.326C184.652 484.071 184.433 483.87 184.169 483.725C183.909 483.579 183.604 483.506 183.253 483.506C182.907 483.506 182.601 483.579 182.337 483.725C182.077 483.87 181.858 484.071 181.681 484.326C181.507 484.577 181.378 484.866 181.291 485.194C181.204 485.518 181.161 485.862 181.161 486.227ZM190.089 488.688L191.989 482.604H192.823L192.659 483.813L190.725 490H189.911L190.089 488.688ZM188.811 482.604L190.431 488.756L190.547 490H189.692L187.546 482.604H188.811ZM194.642 488.708L196.187 482.604H197.444L195.298 490H194.45L194.642 488.708ZM193.008 482.604L194.867 488.585L195.079 490H194.272L192.283 483.8L192.119 482.604H193.008ZM199.044 488.496V489.515C199.044 489.929 198.939 490.367 198.729 490.827C198.52 491.292 198.226 491.679 197.848 491.989L197.13 491.49C197.276 491.29 197.399 491.085 197.499 490.875C197.599 490.67 197.674 490.456 197.725 490.232C197.779 490.014 197.807 489.781 197.807 489.535V488.496H199.044ZM210.241 484.23V485.748C210.241 486.564 210.168 487.252 210.022 487.812C209.877 488.373 209.667 488.824 209.394 489.166C209.12 489.508 208.79 489.756 208.402 489.911C208.02 490.062 207.587 490.137 207.104 490.137C206.721 490.137 206.368 490.089 206.044 489.993C205.72 489.897 205.429 489.745 205.169 489.535C204.914 489.321 204.695 489.043 204.513 488.701C204.33 488.359 204.191 487.945 204.096 487.457C204 486.969 203.952 486.4 203.952 485.748V484.23C203.952 483.415 204.025 482.731 204.171 482.18C204.321 481.628 204.533 481.186 204.807 480.854C205.08 480.516 205.408 480.275 205.791 480.129C206.178 479.983 206.611 479.91 207.09 479.91C207.477 479.91 207.833 479.958 208.156 480.054C208.484 480.145 208.776 480.293 209.031 480.498C209.286 480.699 209.503 480.967 209.681 481.305C209.863 481.637 210.002 482.045 210.098 482.528C210.193 483.011 210.241 483.579 210.241 484.23ZM208.97 485.953V484.019C208.97 483.572 208.942 483.18 208.888 482.843C208.838 482.501 208.762 482.209 208.662 481.968C208.562 481.726 208.434 481.53 208.279 481.38C208.129 481.229 207.953 481.12 207.753 481.052C207.557 480.979 207.336 480.942 207.09 480.942C206.789 480.942 206.522 480.999 206.29 481.113C206.058 481.223 205.862 481.398 205.702 481.64C205.547 481.881 205.429 482.198 205.347 482.59C205.265 482.982 205.224 483.458 205.224 484.019V485.953C205.224 486.4 205.249 486.794 205.299 487.136C205.354 487.478 205.433 487.774 205.538 488.024C205.643 488.271 205.771 488.473 205.921 488.633C206.071 488.792 206.244 488.911 206.44 488.988C206.641 489.061 206.862 489.098 207.104 489.098C207.413 489.098 207.685 489.038 207.917 488.92C208.149 488.801 208.343 488.617 208.498 488.366C208.658 488.111 208.776 487.785 208.854 487.389C208.931 486.988 208.97 486.509 208.97 485.953ZM218.595 486.65V487.689H211.403V486.944L215.86 480.047H216.893L215.785 482.043L212.839 486.65H218.595ZM217.207 480.047V490H215.942V480.047H217.207ZM219.825 489.33C219.825 489.116 219.891 488.936 220.023 488.79C220.16 488.64 220.356 488.564 220.611 488.564C220.867 488.564 221.06 488.64 221.192 488.79C221.329 488.936 221.397 489.116 221.397 489.33C221.397 489.54 221.329 489.717 221.192 489.863C221.06 490.009 220.867 490.082 220.611 490.082C220.356 490.082 220.16 490.009 220.023 489.863C219.891 489.717 219.825 489.54 219.825 489.33ZM219.832 483.294C219.832 483.08 219.898 482.9 220.03 482.754C220.167 482.604 220.363 482.528 220.618 482.528C220.873 482.528 221.067 482.604 221.199 482.754C221.336 482.9 221.404 483.08 221.404 483.294C221.404 483.504 221.336 483.681 221.199 483.827C221.067 483.973 220.873 484.046 220.618 484.046C220.363 484.046 220.167 483.973 220.03 483.827C219.898 483.681 219.832 483.504 219.832 483.294ZM224.733 485.263L223.722 485.003L224.221 480.047H229.327V481.216H225.294L224.993 483.923C225.175 483.818 225.406 483.72 225.684 483.629C225.966 483.538 226.29 483.492 226.654 483.492C227.115 483.492 227.527 483.572 227.892 483.731C228.256 483.886 228.566 484.11 228.821 484.401C229.081 484.693 229.279 485.044 229.416 485.454C229.553 485.864 229.621 486.322 229.621 486.828C229.621 487.307 229.555 487.746 229.423 488.147C229.295 488.549 229.102 488.899 228.842 489.2C228.582 489.496 228.254 489.727 227.857 489.891C227.465 490.055 227.003 490.137 226.47 490.137C226.069 490.137 225.688 490.082 225.328 489.973C224.973 489.859 224.654 489.688 224.371 489.46C224.093 489.228 223.865 488.94 223.688 488.599C223.514 488.252 223.405 487.847 223.359 487.382H224.562C224.617 487.756 224.727 488.07 224.891 488.325C225.055 488.58 225.269 488.774 225.533 488.906C225.802 489.034 226.114 489.098 226.47 489.098C226.771 489.098 227.037 489.045 227.27 488.94C227.502 488.836 227.698 488.685 227.857 488.489C228.017 488.293 228.138 488.056 228.22 487.778C228.306 487.5 228.35 487.188 228.35 486.842C228.35 486.527 228.306 486.236 228.22 485.967C228.133 485.698 228.003 485.463 227.83 485.263C227.661 485.062 227.454 484.907 227.208 484.798C226.962 484.684 226.679 484.627 226.36 484.627C225.937 484.627 225.615 484.684 225.396 484.798C225.182 484.912 224.961 485.067 224.733 485.263ZM237.284 487.307C237.284 487.913 237.143 488.428 236.86 488.852C236.582 489.271 236.204 489.59 235.726 489.809C235.252 490.027 234.716 490.137 234.119 490.137C233.522 490.137 232.984 490.027 232.506 489.809C232.027 489.59 231.649 489.271 231.371 488.852C231.093 488.428 230.954 487.913 230.954 487.307C230.954 486.91 231.029 486.548 231.18 486.22C231.335 485.887 231.551 485.598 231.829 485.352C232.112 485.105 232.444 484.916 232.827 484.784C233.215 484.647 233.641 484.579 234.105 484.579C234.716 484.579 235.261 484.698 235.739 484.935C236.218 485.167 236.594 485.488 236.867 485.898C237.145 486.309 237.284 486.778 237.284 487.307ZM236.013 487.279C236.013 486.91 235.933 486.584 235.773 486.302C235.614 486.015 235.391 485.791 235.104 485.632C234.816 485.472 234.484 485.393 234.105 485.393C233.718 485.393 233.383 485.472 233.101 485.632C232.823 485.791 232.606 486.015 232.451 486.302C232.296 486.584 232.219 486.91 232.219 487.279C232.219 487.662 232.294 487.99 232.444 488.264C232.599 488.533 232.818 488.74 233.101 488.886C233.388 489.027 233.727 489.098 234.119 489.098C234.511 489.098 234.848 489.027 235.131 488.886C235.413 488.74 235.63 488.533 235.78 488.264C235.935 487.99 236.013 487.662 236.013 487.279ZM237.052 482.638C237.052 483.121 236.924 483.556 236.669 483.943C236.414 484.331 236.065 484.636 235.623 484.859C235.181 485.083 234.68 485.194 234.119 485.194C233.549 485.194 233.041 485.083 232.595 484.859C232.153 484.636 231.806 484.331 231.556 483.943C231.305 483.556 231.18 483.121 231.18 482.638C231.18 482.059 231.305 481.567 231.556 481.161C231.811 480.756 232.16 480.446 232.602 480.231C233.044 480.017 233.547 479.91 234.112 479.91C234.682 479.91 235.188 480.017 235.63 480.231C236.072 480.446 236.418 480.756 236.669 481.161C236.924 481.567 237.052 482.059 237.052 482.638ZM235.787 482.658C235.787 482.326 235.716 482.032 235.575 481.776C235.434 481.521 235.238 481.321 234.987 481.175C234.737 481.024 234.445 480.949 234.112 480.949C233.78 480.949 233.488 481.02 233.237 481.161C232.991 481.298 232.798 481.494 232.656 481.749C232.52 482.004 232.451 482.307 232.451 482.658C232.451 483 232.52 483.299 232.656 483.554C232.798 483.809 232.993 484.007 233.244 484.148C233.495 484.29 233.786 484.36 234.119 484.36C234.452 484.36 234.741 484.29 234.987 484.148C235.238 484.007 235.434 483.809 235.575 483.554C235.716 483.299 235.787 483 235.787 482.658ZM246.854 488.735V484.928C246.854 484.636 246.795 484.383 246.677 484.169C246.563 483.95 246.39 483.782 246.157 483.663C245.925 483.545 245.638 483.485 245.296 483.485C244.977 483.485 244.697 483.54 244.455 483.649C244.218 483.759 244.031 483.902 243.895 484.08C243.762 484.258 243.696 484.449 243.696 484.654H242.432C242.432 484.39 242.5 484.128 242.637 483.868C242.773 483.608 242.969 483.374 243.225 483.164C243.484 482.95 243.794 482.781 244.154 482.658C244.519 482.531 244.924 482.467 245.371 482.467C245.909 482.467 246.383 482.558 246.793 482.74C247.208 482.923 247.531 483.198 247.764 483.567C248.001 483.932 248.119 484.39 248.119 484.941V488.387C248.119 488.633 248.14 488.895 248.181 489.173C248.226 489.451 248.292 489.69 248.379 489.891V490H247.06C246.996 489.854 246.946 489.66 246.909 489.419C246.873 489.173 246.854 488.945 246.854 488.735ZM247.073 485.516L247.087 486.404H245.809C245.449 486.404 245.127 486.434 244.845 486.493C244.562 486.548 244.325 486.632 244.134 486.746C243.942 486.86 243.797 487.004 243.696 487.177C243.596 487.345 243.546 487.544 243.546 487.771C243.546 488.004 243.598 488.216 243.703 488.407C243.808 488.599 243.965 488.751 244.175 488.865C244.389 488.975 244.651 489.029 244.961 489.029C245.348 489.029 245.69 488.947 245.986 488.783C246.283 488.619 246.517 488.419 246.69 488.182C246.868 487.945 246.964 487.715 246.978 487.491L247.518 488.1C247.486 488.291 247.399 488.503 247.258 488.735C247.117 488.968 246.927 489.191 246.69 489.405C246.458 489.615 246.18 489.79 245.856 489.932C245.537 490.068 245.177 490.137 244.776 490.137C244.275 490.137 243.835 490.039 243.457 489.843C243.083 489.647 242.792 489.385 242.582 489.057C242.377 488.724 242.274 488.353 242.274 487.942C242.274 487.546 242.352 487.197 242.507 486.896C242.662 486.591 242.885 486.338 243.177 486.138C243.468 485.933 243.819 485.778 244.229 485.673C244.64 485.568 245.098 485.516 245.604 485.516H247.073ZM251.366 484.073V490H250.095V482.604H251.298L251.366 484.073ZM251.106 486.021L250.519 486.001C250.523 485.495 250.589 485.028 250.717 484.6C250.844 484.167 251.034 483.791 251.284 483.472C251.535 483.153 251.847 482.907 252.221 482.733C252.594 482.556 253.027 482.467 253.52 482.467C253.866 482.467 254.185 482.517 254.477 482.617C254.768 482.713 255.021 482.866 255.235 483.075C255.45 483.285 255.616 483.554 255.734 483.882C255.853 484.21 255.912 484.606 255.912 485.071V490H254.647V485.133C254.647 484.745 254.581 484.436 254.449 484.203C254.322 483.971 254.139 483.802 253.902 483.697C253.665 483.588 253.387 483.533 253.068 483.533C252.695 483.533 252.382 483.599 252.132 483.731C251.881 483.864 251.681 484.046 251.53 484.278C251.38 484.511 251.271 484.777 251.202 485.078C251.138 485.374 251.106 485.689 251.106 486.021ZM255.898 485.324L255.051 485.584C255.055 485.178 255.121 484.789 255.249 484.415C255.381 484.041 255.57 483.709 255.816 483.417C256.067 483.125 256.375 482.895 256.739 482.727C257.104 482.553 257.521 482.467 257.99 482.467C258.387 482.467 258.738 482.519 259.043 482.624C259.353 482.729 259.613 482.891 259.822 483.109C260.036 483.324 260.198 483.599 260.308 483.937C260.417 484.274 260.472 484.675 260.472 485.14V490H259.2V485.126C259.2 484.711 259.134 484.39 259.002 484.162C258.874 483.93 258.692 483.768 258.455 483.677C258.223 483.581 257.945 483.533 257.621 483.533C257.343 483.533 257.097 483.581 256.883 483.677C256.669 483.772 256.489 483.905 256.343 484.073C256.197 484.237 256.085 484.426 256.008 484.641C255.935 484.855 255.898 485.083 255.898 485.324Z" fill="#808080"/>
<path d="M60.3389 480.047V490H58.2949V480.047H60.3389ZM63.4014 480.047V481.653H55.2803V480.047H63.4014ZM67.8789 481.749L65.1719 490H62.9912L66.6895 480.047H68.0771L67.8789 481.749ZM70.1279 490L67.4141 481.749L67.1953 480.047H68.5967L72.3154 490H70.1279ZM70.0049 486.295V487.901H64.748V486.295H70.0049ZM73.2383 480.047H76.9502C77.7113 480.047 78.3652 480.161 78.9121 480.389C79.4635 480.617 79.8874 480.954 80.1836 481.4C80.4798 481.847 80.6279 482.396 80.6279 483.048C80.6279 483.581 80.5368 484.039 80.3545 484.422C80.1768 484.8 79.9238 485.117 79.5957 485.372C79.2721 485.623 78.8916 485.823 78.4541 485.974L77.8047 486.315H74.5781L74.5645 484.716H76.9639C77.3239 484.716 77.6224 484.652 77.8594 484.524C78.0964 484.397 78.2741 484.219 78.3926 483.991C78.5156 483.763 78.5771 483.499 78.5771 483.198C78.5771 482.879 78.5179 482.604 78.3994 482.371C78.2809 482.139 78.1009 481.961 77.8594 481.838C77.6178 481.715 77.3148 481.653 76.9502 481.653H75.2891V490H73.2383V480.047ZM78.8027 490L76.5332 485.563L78.7002 485.55L80.9971 489.904V490H78.8027ZM90.0957 484.798V488.742C89.9408 488.929 89.7015 489.132 89.3779 489.351C89.0544 489.565 88.6374 489.749 88.127 489.904C87.6165 490.059 86.999 490.137 86.2744 490.137C85.6318 490.137 85.0462 490.032 84.5176 489.822C83.9889 489.608 83.5332 489.296 83.1504 488.886C82.7721 488.476 82.4805 487.974 82.2754 487.382C82.0703 486.785 81.9678 486.104 81.9678 485.338V484.716C81.9678 483.95 82.0658 483.269 82.2617 482.672C82.4622 482.075 82.7471 481.571 83.1162 481.161C83.4854 480.751 83.9251 480.439 84.4355 480.225C84.946 480.01 85.5133 479.903 86.1377 479.903C87.0036 479.903 87.7145 480.045 88.2705 480.327C88.8265 480.605 89.2503 480.993 89.542 481.489C89.8382 481.981 90.0205 482.547 90.0889 483.185H88.0996C88.0495 482.847 87.9538 482.553 87.8125 482.303C87.6712 482.052 87.4684 481.856 87.2041 481.715C86.9443 481.574 86.6071 481.503 86.1924 481.503C85.8506 481.503 85.5452 481.574 85.2764 481.715C85.012 481.852 84.7887 482.054 84.6064 482.323C84.4242 482.592 84.2852 482.925 84.1895 483.321C84.0938 483.718 84.0459 484.178 84.0459 484.702V485.338C84.0459 485.857 84.096 486.318 84.1963 486.719C84.2965 487.115 84.4447 487.45 84.6406 487.724C84.8411 487.993 85.0872 488.195 85.3789 488.332C85.6706 488.469 86.0101 488.537 86.3975 488.537C86.721 488.537 86.9899 488.51 87.2041 488.455C87.4229 488.4 87.5983 488.334 87.7305 488.257C87.8672 488.175 87.972 488.097 88.0449 488.024V486.261H86.1719V484.798H90.0957ZM98.4287 488.4V490H93.1309V488.4H98.4287ZM93.8008 480.047V490H91.75V480.047H93.8008ZM97.7383 484.101V485.659H93.1309V484.101H97.7383ZM98.4219 480.047V481.653H93.1309V480.047H98.4219ZM104.212 480.047V490H102.168V480.047H104.212ZM107.274 480.047V481.653H99.1533V480.047H107.274Z" fill="#808080"/>
<path d="M47 453C47 455.209 45.2091 457 43 457C40.7909 457 39 455.209 39 453C39 450.791 40.7909 449 43 449C45.2091 449 47 450.791 47 453ZM39.8 453C39.8 454.767 41.2327 456.2 43 456.2C44.7673 456.2 46.2 454.767 46.2 453C46.2 451.233 44.7673 449.8 43 449.8C41.2327 449.8 39.8 451.233 39.8 453Z" fill="#7F7F7F"/>
<path d="M47 485C47 487.209 45.2091 489 43 489C40.7909 489 39 487.209 39 485C39 482.791 40.7909 481 43 481C45.2091 481 47 482.791 47 485ZM39.8 485C39.8 486.767 41.2327 488.2 43 488.2C44.7673 488.2 46.2 486.767 46.2 485C46.2 483.233 44.7673 481.8 43 481.8C41.2327 481.8 39.8 483.233 39.8 485Z" fill="#58DC75"/>
<line x1="43" y1="457" x2="43" y2="481" stroke="#595959" stroke-width="2" stroke-dasharray="4 4"/>
<path d="M255 443C253.687 443 252.386 443.259 251.173 443.761C249.96 444.264 248.858 445 247.929 445.929C246.054 447.804 245 450.348 245 453C245 455.652 246.054 458.196 247.929 460.071C248.858 461 249.96 461.736 251.173 462.239C252.386 462.741 253.687 463 255 463C257.652 463 260.196 461.946 262.071 460.071C263.946 458.196 265 455.652 265 453H263C263 455.122 262.157 457.157 260.657 458.657C259.157 460.157 257.122 461 255 461C252.878 461 250.843 460.157 249.343 458.657C247.843 457.157 247 455.122 247 453C247 450.878 247.843 448.843 249.343 447.343C250.843 445.843 252.878 445 255 445V443ZM261.78 444C261.61 444 261.43 444.07 261.3 444.2L260.08 445.41L262.58 447.91L263.8 446.7C264.06 446.44 264.06 446 263.8 445.75L262.25 444.2C262.12 444.07 261.95 444 261.78 444ZM259.37 446.12L252 453.5V456H254.5L261.87 448.62L259.37 446.12Z" fill="#808080"/>
<path d="M191.266 144.602V156H189.016V147.195L186.312 148.055V146.281L191.023 144.602H191.266ZM200.773 144.508H201.102V146.305H200.969C200.375 146.305 199.846 146.393 199.383 146.57C198.919 146.747 198.526 147 198.203 147.328C197.885 147.651 197.641 148.042 197.469 148.5C197.302 148.958 197.219 149.471 197.219 150.039V151.93C197.219 152.336 197.258 152.695 197.336 153.008C197.419 153.315 197.536 153.573 197.688 153.781C197.844 153.984 198.026 154.138 198.234 154.242C198.443 154.341 198.677 154.391 198.938 154.391C199.182 154.391 199.404 154.339 199.602 154.234C199.805 154.13 199.977 153.984 200.117 153.797C200.263 153.604 200.372 153.38 200.445 153.125C200.523 152.865 200.562 152.581 200.562 152.273C200.562 151.966 200.523 151.682 200.445 151.422C200.372 151.161 200.263 150.938 200.117 150.75C199.971 150.557 199.794 150.409 199.586 150.305C199.378 150.201 199.143 150.148 198.883 150.148C198.529 150.148 198.216 150.232 197.945 150.398C197.68 150.56 197.471 150.768 197.32 151.023C197.169 151.279 197.089 151.547 197.078 151.828L196.398 151.391C196.414 150.99 196.497 150.609 196.648 150.25C196.805 149.891 197.018 149.573 197.289 149.297C197.565 149.016 197.896 148.797 198.281 148.641C198.667 148.479 199.102 148.398 199.586 148.398C200.117 148.398 200.583 148.5 200.984 148.703C201.391 148.906 201.729 149.185 202 149.539C202.271 149.893 202.474 150.302 202.609 150.766C202.745 151.229 202.812 151.724 202.812 152.25C202.812 152.802 202.721 153.315 202.539 153.789C202.362 154.263 202.104 154.677 201.766 155.031C201.432 155.385 201.031 155.661 200.562 155.859C200.094 156.057 199.568 156.156 198.984 156.156C198.38 156.156 197.831 156.047 197.336 155.828C196.846 155.604 196.424 155.292 196.07 154.891C195.716 154.49 195.443 154.013 195.25 153.461C195.062 152.909 194.969 152.305 194.969 151.648V150.773C194.969 149.857 195.102 149.018 195.367 148.258C195.638 147.492 196.026 146.831 196.531 146.273C197.036 145.711 197.646 145.276 198.359 144.969C199.073 144.661 199.878 144.508 200.773 144.508ZM209.109 144.625L204.938 156.977H203.266L207.438 144.625H209.109ZM217.758 152.883C217.758 153.596 217.591 154.198 217.258 154.688C216.924 155.172 216.466 155.539 215.883 155.789C215.305 156.034 214.648 156.156 213.914 156.156C213.18 156.156 212.521 156.034 211.938 155.789C211.354 155.539 210.893 155.172 210.555 154.688C210.216 154.198 210.047 153.596 210.047 152.883C210.047 152.404 210.143 151.971 210.336 151.586C210.529 151.195 210.797 150.862 211.141 150.586C211.49 150.305 211.898 150.091 212.367 149.945C212.836 149.794 213.346 149.719 213.898 149.719C214.638 149.719 215.299 149.849 215.883 150.109C216.466 150.37 216.924 150.737 217.258 151.211C217.591 151.685 217.758 152.242 217.758 152.883ZM215.492 152.734C215.492 152.385 215.424 152.086 215.289 151.836C215.159 151.581 214.974 151.385 214.734 151.25C214.495 151.115 214.216 151.047 213.898 151.047C213.581 151.047 213.302 151.115 213.062 151.25C212.823 151.385 212.635 151.581 212.5 151.836C212.37 152.086 212.305 152.385 212.305 152.734C212.305 153.078 212.37 153.375 212.5 153.625C212.635 153.875 212.823 154.068 213.062 154.203C213.307 154.333 213.591 154.398 213.914 154.398C214.237 154.398 214.516 154.333 214.75 154.203C214.99 154.068 215.172 153.875 215.297 153.625C215.427 153.375 215.492 153.078 215.492 152.734ZM217.516 147.641C217.516 148.219 217.362 148.732 217.055 149.18C216.747 149.622 216.32 149.969 215.773 150.219C215.232 150.469 214.612 150.594 213.914 150.594C213.211 150.594 212.586 150.469 212.039 150.219C211.492 149.969 211.065 149.622 210.758 149.18C210.451 148.732 210.297 148.219 210.297 147.641C210.297 146.953 210.451 146.375 210.758 145.906C211.07 145.432 211.497 145.073 212.039 144.828C212.586 144.583 213.206 144.461 213.898 144.461C214.602 144.461 215.224 144.583 215.766 144.828C216.312 145.073 216.74 145.432 217.047 145.906C217.359 146.375 217.516 146.953 217.516 147.641ZM215.266 147.742C215.266 147.435 215.211 147.169 215.102 146.945C214.992 146.716 214.836 146.539 214.633 146.414C214.435 146.289 214.19 146.227 213.898 146.227C213.617 146.227 213.375 146.286 213.172 146.406C212.974 146.526 212.82 146.701 212.711 146.93C212.607 147.154 212.555 147.424 212.555 147.742C212.555 148.049 212.607 148.32 212.711 148.555C212.82 148.784 212.977 148.964 213.18 149.094C213.383 149.224 213.628 149.289 213.914 149.289C214.201 149.289 214.443 149.224 214.641 149.094C214.844 148.964 214.997 148.784 215.102 148.555C215.211 148.32 215.266 148.049 215.266 147.742Z" fill="#909090"/>
<path d="M234 152.333C233.381 152.333 232.788 152.087 232.35 151.65C231.912 151.212 231.667 150.619 231.667 150C231.667 149.381 231.912 148.788 232.35 148.35C232.788 147.912 233.381 147.667 234 147.667C234.619 147.667 235.212 147.912 235.65 148.35C236.088 148.788 236.333 149.381 236.333 150C236.333 150.619 236.088 151.212 235.65 151.65C235.212 152.087 234.619 152.333 234 152.333ZM238.953 150.647C238.98 150.433 239 150.22 239 150C239 149.78 238.98 149.56 238.953 149.333L240.36 148.247C240.487 148.147 240.52 147.967 240.44 147.82L239.107 145.513C239.027 145.367 238.847 145.307 238.7 145.367L237.04 146.033C236.693 145.773 236.333 145.547 235.913 145.38L235.667 143.613C235.64 143.453 235.5 143.333 235.333 143.333H232.667C232.5 143.333 232.36 143.453 232.333 143.613L232.087 145.38C231.667 145.547 231.307 145.773 230.96 146.033L229.3 145.367C229.153 145.307 228.973 145.367 228.893 145.513L227.56 147.82C227.473 147.967 227.513 148.147 227.64 148.247L229.047 149.333C229.02 149.56 229 149.78 229 150C229 150.22 229.02 150.433 229.047 150.647L227.64 151.753C227.513 151.853 227.473 152.033 227.56 152.18L228.893 154.487C228.973 154.633 229.153 154.687 229.3 154.633L230.96 153.96C231.307 154.227 231.667 154.453 232.087 154.62L232.333 156.387C232.36 156.547 232.5 156.667 232.667 156.667H235.333C235.5 156.667 235.64 156.547 235.667 156.387L235.913 154.62C236.333 154.447 236.693 154.227 237.04 153.96L238.7 154.633C238.847 154.687 239.027 154.633 239.107 154.487L240.44 152.18C240.52 152.033 240.487 151.853 240.36 151.753L238.953 150.647Z" fill="#909090"/>
<path d="M137.141 685.02V672.938H139.391V685.02C139.391 686.145 139.16 687.094 138.699 687.867C138.238 688.641 137.602 689.23 136.789 689.637C135.984 690.035 135.059 690.234 134.012 690.234C132.965 690.234 132.035 690.055 131.223 689.695C130.41 689.336 129.773 688.789 129.312 688.055C128.852 687.32 128.621 686.395 128.621 685.277H130.883C130.883 685.996 131.016 686.586 131.281 687.047C131.547 687.508 131.914 687.848 132.383 688.066C132.859 688.285 133.402 688.395 134.012 688.395C134.605 688.395 135.137 688.27 135.605 688.02C136.082 687.762 136.457 687.383 136.73 686.883C137.004 686.375 137.141 685.754 137.141 685.02ZM152.771 687.832V681.305C152.771 680.805 152.67 680.371 152.466 680.004C152.271 679.629 151.974 679.34 151.576 679.137C151.177 678.934 150.685 678.832 150.099 678.832C149.552 678.832 149.072 678.926 148.658 679.113C148.252 679.301 147.931 679.547 147.697 679.852C147.47 680.156 147.357 680.484 147.357 680.836H145.189C145.189 680.383 145.306 679.934 145.541 679.488C145.775 679.043 146.111 678.641 146.548 678.281C146.994 677.914 147.525 677.625 148.142 677.414C148.767 677.195 149.462 677.086 150.228 677.086C151.15 677.086 151.962 677.242 152.666 677.555C153.377 677.867 153.931 678.34 154.33 678.973C154.736 679.598 154.939 680.383 154.939 681.328V687.234C154.939 687.656 154.974 688.105 155.045 688.582C155.123 689.059 155.236 689.469 155.384 689.812V690H153.123C153.013 689.75 152.927 689.418 152.865 689.004C152.802 688.582 152.771 688.191 152.771 687.832ZM153.146 682.312L153.17 683.836H150.978C150.361 683.836 149.81 683.887 149.326 683.988C148.841 684.082 148.435 684.227 148.107 684.422C147.779 684.617 147.529 684.863 147.357 685.16C147.185 685.449 147.099 685.789 147.099 686.18C147.099 686.578 147.189 686.941 147.369 687.27C147.548 687.598 147.818 687.859 148.177 688.055C148.545 688.242 148.994 688.336 149.525 688.336C150.189 688.336 150.775 688.195 151.283 687.914C151.791 687.633 152.193 687.289 152.49 686.883C152.795 686.477 152.959 686.082 152.982 685.699L153.908 686.742C153.853 687.07 153.705 687.434 153.462 687.832C153.22 688.23 152.896 688.613 152.49 688.98C152.091 689.34 151.615 689.641 151.06 689.883C150.513 690.117 149.896 690.234 149.209 690.234C148.349 690.234 147.595 690.066 146.947 689.73C146.306 689.395 145.806 688.945 145.447 688.383C145.095 687.812 144.92 687.176 144.92 686.473C144.92 685.793 145.052 685.195 145.318 684.68C145.584 684.156 145.966 683.723 146.466 683.379C146.966 683.027 147.568 682.762 148.271 682.582C148.974 682.402 149.759 682.312 150.627 682.312H153.146ZM162.917 680.027V690H160.749V677.32H162.8L162.917 680.027ZM162.402 683.18L161.499 683.145C161.507 682.277 161.636 681.477 161.886 680.742C162.136 680 162.487 679.355 162.941 678.809C163.394 678.262 163.933 677.84 164.558 677.543C165.191 677.238 165.89 677.086 166.655 677.086C167.28 677.086 167.843 677.172 168.343 677.344C168.843 677.508 169.269 677.773 169.62 678.141C169.98 678.508 170.253 678.984 170.441 679.57C170.628 680.148 170.722 680.855 170.722 681.691V690H168.542V681.668C168.542 681.004 168.445 680.473 168.249 680.074C168.054 679.668 167.769 679.375 167.394 679.195C167.019 679.008 166.558 678.914 166.011 678.914C165.472 678.914 164.98 679.027 164.534 679.254C164.097 679.48 163.718 679.793 163.398 680.191C163.085 680.59 162.839 681.047 162.659 681.562C162.487 682.07 162.402 682.609 162.402 683.18ZM184.173 687.07V677.32H186.352V690H184.278L184.173 687.07ZM184.583 684.398L185.485 684.375C185.485 685.219 185.395 686 185.216 686.719C185.044 687.43 184.763 688.047 184.372 688.57C183.981 689.094 183.47 689.504 182.837 689.801C182.204 690.09 181.434 690.234 180.528 690.234C179.911 690.234 179.345 690.145 178.829 689.965C178.321 689.785 177.884 689.508 177.516 689.133C177.149 688.758 176.864 688.27 176.661 687.668C176.466 687.066 176.368 686.344 176.368 685.5V677.32H178.536V685.523C178.536 686.094 178.598 686.566 178.723 686.941C178.856 687.309 179.032 687.602 179.251 687.82C179.477 688.031 179.727 688.18 180.001 688.266C180.282 688.352 180.571 688.395 180.868 688.395C181.79 688.395 182.52 688.219 183.059 687.867C183.598 687.508 183.985 687.027 184.22 686.426C184.462 685.816 184.583 685.141 184.583 684.398ZM199.534 687.832V681.305C199.534 680.805 199.432 680.371 199.229 680.004C199.034 679.629 198.737 679.34 198.338 679.137C197.94 678.934 197.448 678.832 196.862 678.832C196.315 678.832 195.834 678.926 195.42 679.113C195.014 679.301 194.694 679.547 194.459 679.852C194.233 680.156 194.12 680.484 194.12 680.836H191.952C191.952 680.383 192.069 679.934 192.303 679.488C192.537 679.043 192.873 678.641 193.311 678.281C193.756 677.914 194.287 677.625 194.905 677.414C195.53 677.195 196.225 677.086 196.991 677.086C197.912 677.086 198.725 677.242 199.428 677.555C200.139 677.867 200.694 678.34 201.092 678.973C201.498 679.598 201.702 680.383 201.702 681.328V687.234C201.702 687.656 201.737 688.105 201.807 688.582C201.885 689.059 201.998 689.469 202.147 689.812V690H199.885C199.776 689.75 199.69 689.418 199.627 689.004C199.565 688.582 199.534 688.191 199.534 687.832ZM199.909 682.312L199.932 683.836H197.741C197.123 683.836 196.573 683.887 196.088 683.988C195.604 684.082 195.198 684.227 194.87 684.422C194.541 684.617 194.291 684.863 194.12 685.16C193.948 685.449 193.862 685.789 193.862 686.18C193.862 686.578 193.952 686.941 194.131 687.27C194.311 687.598 194.58 687.859 194.94 688.055C195.307 688.242 195.756 688.336 196.287 688.336C196.952 688.336 197.537 688.195 198.045 687.914C198.553 687.633 198.955 687.289 199.252 686.883C199.557 686.477 199.721 686.082 199.745 685.699L200.67 686.742C200.616 687.07 200.467 687.434 200.225 687.832C199.983 688.23 199.659 688.613 199.252 688.98C198.854 689.34 198.377 689.641 197.823 689.883C197.276 690.117 196.659 690.234 195.971 690.234C195.112 690.234 194.358 690.066 193.709 689.73C193.069 689.395 192.569 688.945 192.209 688.383C191.858 687.812 191.682 687.176 191.682 686.473C191.682 685.793 191.815 685.195 192.08 684.68C192.346 684.156 192.729 683.723 193.229 683.379C193.729 683.027 194.33 682.762 195.034 682.582C195.737 682.402 196.522 682.312 197.389 682.312H199.909ZM209.68 679.312V690H207.512V677.32H209.621L209.68 679.312ZM213.641 677.25L213.629 679.266C213.449 679.227 213.277 679.203 213.113 679.195C212.957 679.18 212.777 679.172 212.574 679.172C212.074 679.172 211.633 679.25 211.25 679.406C210.867 679.562 210.543 679.781 210.277 680.062C210.012 680.344 209.801 680.68 209.645 681.07C209.496 681.453 209.398 681.875 209.352 682.336L208.742 682.688C208.742 681.922 208.816 681.203 208.965 680.531C209.121 679.859 209.359 679.266 209.68 678.75C210 678.227 210.406 677.82 210.898 677.531C211.398 677.234 211.992 677.086 212.68 677.086C212.836 677.086 213.016 677.105 213.219 677.145C213.422 677.176 213.562 677.211 213.641 677.25ZM221.818 688.688L225.345 677.32H227.666L222.58 691.957C222.463 692.27 222.306 692.605 222.111 692.965C221.923 693.332 221.681 693.68 221.384 694.008C221.088 694.336 220.728 694.602 220.306 694.805C219.892 695.016 219.396 695.121 218.818 695.121C218.646 695.121 218.427 695.098 218.162 695.051C217.896 695.004 217.709 694.965 217.599 694.934L217.588 693.176C217.65 693.184 217.748 693.191 217.88 693.199C218.021 693.215 218.119 693.223 218.173 693.223C218.666 693.223 219.084 693.156 219.427 693.023C219.771 692.898 220.06 692.684 220.295 692.379C220.537 692.082 220.744 691.672 220.916 691.148L221.818 688.688ZM219.228 677.32L222.521 687.164L223.084 689.449L221.525 690.246L216.861 677.32H219.228ZM251.321 688.219V690H240.153V688.441L245.743 682.219C246.43 681.453 246.962 680.805 247.337 680.273C247.72 679.734 247.985 679.254 248.134 678.832C248.29 678.402 248.368 677.965 248.368 677.52C248.368 676.957 248.251 676.449 248.016 675.996C247.79 675.535 247.454 675.168 247.009 674.895C246.563 674.621 246.024 674.484 245.391 674.484C244.634 674.484 244.001 674.633 243.493 674.93C242.993 675.219 242.618 675.625 242.368 676.148C242.118 676.672 241.993 677.273 241.993 677.953H239.825C239.825 676.992 240.036 676.113 240.458 675.316C240.88 674.52 241.505 673.887 242.333 673.418C243.161 672.941 244.18 672.703 245.391 672.703C246.47 672.703 247.391 672.895 248.157 673.277C248.923 673.652 249.509 674.184 249.915 674.871C250.329 675.551 250.536 676.348 250.536 677.262C250.536 677.762 250.45 678.27 250.278 678.785C250.114 679.293 249.884 679.801 249.587 680.309C249.298 680.816 248.958 681.316 248.567 681.809C248.184 682.301 247.774 682.785 247.337 683.262L242.766 688.219H251.321ZM266.752 680.109V682.711C266.752 684.109 266.627 685.289 266.377 686.25C266.127 687.211 265.768 687.984 265.299 688.57C264.83 689.156 264.264 689.582 263.6 689.848C262.944 690.105 262.202 690.234 261.373 690.234C260.717 690.234 260.112 690.152 259.557 689.988C259.002 689.824 258.502 689.562 258.057 689.203C257.62 688.836 257.245 688.359 256.932 687.773C256.62 687.188 256.381 686.477 256.217 685.641C256.053 684.805 255.971 683.828 255.971 682.711V680.109C255.971 678.711 256.096 677.539 256.346 676.594C256.604 675.648 256.967 674.891 257.436 674.32C257.905 673.742 258.467 673.328 259.123 673.078C259.787 672.828 260.53 672.703 261.35 672.703C262.014 672.703 262.623 672.785 263.178 672.949C263.741 673.105 264.241 673.359 264.678 673.711C265.116 674.055 265.487 674.516 265.791 675.094C266.104 675.664 266.342 676.363 266.506 677.191C266.67 678.02 266.752 678.992 266.752 680.109ZM264.573 683.062V679.746C264.573 678.98 264.526 678.309 264.432 677.73C264.346 677.145 264.217 676.645 264.045 676.23C263.873 675.816 263.655 675.48 263.389 675.223C263.131 674.965 262.83 674.777 262.487 674.66C262.151 674.535 261.772 674.473 261.35 674.473C260.834 674.473 260.377 674.57 259.979 674.766C259.58 674.953 259.245 675.254 258.971 675.668C258.705 676.082 258.502 676.625 258.362 677.297C258.221 677.969 258.151 678.785 258.151 679.746V683.062C258.151 683.828 258.194 684.504 258.28 685.09C258.373 685.676 258.51 686.184 258.69 686.613C258.87 687.035 259.088 687.383 259.346 687.656C259.604 687.93 259.901 688.133 260.237 688.266C260.58 688.391 260.959 688.453 261.373 688.453C261.905 688.453 262.37 688.352 262.768 688.148C263.166 687.945 263.498 687.629 263.764 687.199C264.037 686.762 264.241 686.203 264.373 685.523C264.506 684.836 264.573 684.016 264.573 683.062ZM283.121 688.219V690H271.953V688.441L277.543 682.219C278.23 681.453 278.762 680.805 279.137 680.273C279.52 679.734 279.785 679.254 279.934 678.832C280.09 678.402 280.168 677.965 280.168 677.52C280.168 676.957 280.051 676.449 279.816 675.996C279.59 675.535 279.254 675.168 278.809 674.895C278.363 674.621 277.824 674.484 277.191 674.484C276.434 674.484 275.801 674.633 275.293 674.93C274.793 675.219 274.418 675.625 274.168 676.148C273.918 676.672 273.793 677.273 273.793 677.953H271.625C271.625 676.992 271.836 676.113 272.258 675.316C272.68 674.52 273.305 673.887 274.133 673.418C274.961 672.941 275.98 672.703 277.191 672.703C278.27 672.703 279.191 672.895 279.957 673.277C280.723 673.652 281.309 674.184 281.715 674.871C282.129 675.551 282.336 676.348 282.336 677.262C282.336 677.762 282.25 678.27 282.078 678.785C281.914 679.293 281.684 679.801 281.387 680.309C281.098 680.816 280.758 681.316 280.367 681.809C279.984 682.301 279.574 682.785 279.137 683.262L274.566 688.219H283.121ZM299.021 688.219V690H287.853V688.441L293.443 682.219C294.13 681.453 294.662 680.805 295.037 680.273C295.42 679.734 295.685 679.254 295.834 678.832C295.99 678.402 296.068 677.965 296.068 677.52C296.068 676.957 295.951 676.449 295.716 675.996C295.49 675.535 295.154 675.168 294.709 674.895C294.263 674.621 293.724 674.484 293.091 674.484C292.334 674.484 291.701 674.633 291.193 674.93C290.693 675.219 290.318 675.625 290.068 676.148C289.818 676.672 289.693 677.273 289.693 677.953H287.525C287.525 676.992 287.736 676.113 288.158 675.316C288.58 674.52 289.205 673.887 290.033 673.418C290.861 672.941 291.88 672.703 293.091 672.703C294.17 672.703 295.091 672.895 295.857 673.277C296.623 673.652 297.209 674.184 297.615 674.871C298.029 675.551 298.236 676.348 298.236 677.262C298.236 677.762 298.15 678.27 297.978 678.785C297.814 679.293 297.584 679.801 297.287 680.309C296.998 680.816 296.658 681.316 296.267 681.809C295.884 682.301 295.474 682.785 295.037 683.262L290.466 688.219H299.021Z" fill="#909090"/>
<path d="M41.41 826.58L36.83 822L41.41 817.41L40 816L34 822L40 828L41.41 826.58Z" fill="#7F7F7F"/>
<path d="M387 826.58L391.58 822L387 817.41L388.41 816L394.41 822L388.41 828L387 826.58Z" fill="#7F7F7F"/>
</svg>
